<svg width="329" height="202" viewBox="0 0 329 202" fill="none" xmlns="http://www.w3.org/2000/svg">
<g clip-path="url(#clip0_110_5755)">
<path d="M254.602 68.3355C252.506 67.1922 251.553 68.145 250.785 67.1922C250.016 66.2395 252.887 63.7557 247.164 61.2786C247.164 61.2786 246.783 55.9366 238.957 55.746C231.132 55.5555 233.26 61.0617 231.138 62.4219C229.016 63.782 228.464 61.6597 226.368 62.9935C224.272 64.3274 225.218 67.0017 223.503 67.3828C221.788 67.7639 219.495 65.6678 217.399 67.0017C215.303 68.3355 215.296 69.4788 214.343 69.4788C213.391 69.4788 211.485 68.7166 210.335 69.4788C209.185 70.241 207.858 71.2003 207.858 71.2003H256.127C256.127 71.2003 256.705 69.4525 254.602 68.3355Z" fill="white" stroke="#263238" stroke-width="0.657072" stroke-miterlimit="10"/>
<path d="M135.751 84.7623C134.798 84.2432 134.365 84.6769 134.023 84.2432C133.681 83.8096 134.976 82.686 132.374 81.5624C132.374 81.5624 132.203 79.1312 128.648 79.0458C125.093 78.9604 126.053 81.4704 125.1 82.0814C124.147 82.6925 123.891 81.7332 122.938 82.3377C121.985 82.9422 122.412 84.1578 121.624 84.3089C120.836 84.46 119.804 83.5336 118.851 84.1381C117.898 84.7426 117.898 85.2617 117.465 85.2617C117.031 85.2617 116.151 84.92 115.645 85.2617C115.139 85.6034 114.521 86.0436 114.521 86.0436H136.434C136.491 85.7837 136.453 85.5123 136.328 85.2777C136.202 85.0431 135.998 84.8605 135.751 84.7623Z" fill="white" stroke="#263238" stroke-width="0.657072" stroke-miterlimit="10"/>
<path d="M153.505 29.5683C152.191 28.8586 151.6 29.45 151.12 28.8586C150.64 28.2673 152.434 26.71 148.86 25.1659C148.86 25.1659 148.623 21.828 143.741 21.7097C138.859 21.5914 140.167 25.0476 138.852 25.8755C137.538 26.7034 137.19 25.4024 135.876 26.2369C134.562 27.0714 135.166 28.7338 134.089 28.9769C133.011 29.22 131.592 27.9059 130.284 28.7338C128.977 29.5617 128.97 30.2845 128.379 30.2845C127.787 30.2845 126.591 29.8048 125.875 30.2845C125.159 30.7641 124.325 31.3555 124.325 31.3555H154.458C154.541 30.9928 154.49 30.6122 154.315 30.2839C154.14 29.9555 153.853 29.7014 153.505 29.5683Z" fill="white" stroke="#263238" stroke-width="0.657072" stroke-miterlimit="10"/>
<path d="M68.8349 95.0783H63.4731V100.479H68.8349V95.0783Z" stroke="white" stroke-width="0.657072" stroke-miterlimit="10"/>
<path d="M59.8592 98.344H57.6843V100.473H59.8592V98.344Z" stroke="white" stroke-width="0.657072" stroke-miterlimit="10"/>
<path d="M277.849 129.18H257.533V86.3262H258.893V81.8843H211.301V86.3262H212.95V150.056H200.466V13.3255H157.658V116.729H142.013V105.283H146.107V100.44H111.886V31.0664H114.101V27.4394H72.5539V31.0664H75.537V100.558H42.7031V150.253H25.4615" stroke="white" stroke-width="0.657072" stroke-miterlimit="10"/>
<path d="M202.168 11.8273H155.752V13.3123H202.168V11.8273Z" stroke="white" stroke-width="0.657072" stroke-miterlimit="10"/>
<path d="M84.4797 35.1008H79.2495V40.6991H84.4797V35.1008Z" stroke="white" stroke-width="0.657072" stroke-miterlimit="10"/>
<path d="M92.1478 35.1008H86.9175V40.6991H92.1478V35.1008Z" stroke="white" stroke-width="0.657072" stroke-miterlimit="10"/>
<path d="M99.8158 35.1008H94.5855V40.6991H99.8158V35.1008Z" stroke="white" stroke-width="0.657072" stroke-miterlimit="10"/>
<path d="M107.49 35.1008H102.26V40.6991H107.49V35.1008Z" stroke="white" stroke-width="0.657072" stroke-miterlimit="10"/>
<path d="M84.4797 43.9778H79.2495V49.5761H84.4797V43.9778Z" stroke="white" stroke-width="0.657072" stroke-miterlimit="10"/>
<path d="M92.1478 43.9778H86.9175V49.5761H92.1478V43.9778Z" stroke="white" stroke-width="0.657072" stroke-miterlimit="10"/>
<path d="M99.8158 43.9778H94.5855V49.5761H99.8158V43.9778Z" stroke="white" stroke-width="0.657072" stroke-miterlimit="10"/>
<path d="M107.49 43.9778H102.26V49.5761H107.49V43.9778Z" stroke="white" stroke-width="0.657072" stroke-miterlimit="10"/>
<path d="M84.4797 52.8483H79.2495V58.4466H84.4797V52.8483Z" stroke="white" stroke-width="0.657072" stroke-miterlimit="10"/>
<path d="M92.1478 52.8483H86.9175V58.4466H92.1478V52.8483Z" stroke="white" stroke-width="0.657072" stroke-miterlimit="10"/>
<path d="M99.8158 52.8483H94.5855V58.4466H99.8158V52.8483Z" stroke="white" stroke-width="0.657072" stroke-miterlimit="10"/>
<path d="M107.49 52.8483H102.26V58.4466H107.49V52.8483Z" stroke="white" stroke-width="0.657072" stroke-miterlimit="10"/>
<path d="M84.4797 61.7188H79.2495V67.317H84.4797V61.7188Z" stroke="white" stroke-width="0.657072" stroke-miterlimit="10"/>
<path d="M92.1478 61.7188H86.9175V67.317H92.1478V61.7188Z" stroke="white" stroke-width="0.657072" stroke-miterlimit="10"/>
<path d="M99.8158 61.7188H94.5855V67.317H99.8158V61.7188Z" stroke="white" stroke-width="0.657072" stroke-miterlimit="10"/>
<path d="M107.49 61.7188H102.26V67.317H107.49V61.7188Z" stroke="white" stroke-width="0.657072" stroke-miterlimit="10"/>
<path d="M84.4797 70.5958H79.2495V76.1941H84.4797V70.5958Z" stroke="white" stroke-width="0.657072" stroke-miterlimit="10"/>
<path d="M92.1478 70.5958H86.9175V76.1941H92.1478V70.5958Z" stroke="white" stroke-width="0.657072" stroke-miterlimit="10"/>
<path d="M99.8158 70.5958H94.5855V76.1941H99.8158V70.5958Z" stroke="white" stroke-width="0.657072" stroke-miterlimit="10"/>
<path d="M107.49 70.5958H102.26V76.1941H107.49V70.5958Z" stroke="white" stroke-width="0.657072" stroke-miterlimit="10"/>
<path d="M84.4797 79.4663H79.2495V85.0646H84.4797V79.4663Z" stroke="white" stroke-width="0.657072" stroke-miterlimit="10"/>
<path d="M92.1478 79.4663H86.9175V85.0646H92.1478V79.4663Z" stroke="white" stroke-width="0.657072" stroke-miterlimit="10"/>
<path d="M99.8158 79.4663H94.5855V85.0646H99.8158V79.4663Z" stroke="white" stroke-width="0.657072" stroke-miterlimit="10"/>
<path d="M107.49 79.4663H102.26V85.0646H107.49V79.4663Z" stroke="white" stroke-width="0.657072" stroke-miterlimit="10"/>
<path d="M84.4797 88.3433H79.2495V93.9416H84.4797V88.3433Z" stroke="white" stroke-width="0.657072" stroke-miterlimit="10"/>
<path d="M92.1478 88.3433H86.9175V93.9416H92.1478V88.3433Z" stroke="white" stroke-width="0.657072" stroke-miterlimit="10"/>
<path d="M99.8158 88.3433H94.5855V93.9416H99.8158V88.3433Z" stroke="white" stroke-width="0.657072" stroke-miterlimit="10"/>
<path d="M107.49 88.3433H102.26V93.9416H107.49V88.3433Z" stroke="white" stroke-width="0.657072" stroke-miterlimit="10"/>
<path d="M84.4797 97.2138H79.2495V102.812H84.4797V97.2138Z" stroke="white" stroke-width="0.657072" stroke-miterlimit="10"/>
<path d="M92.1478 97.2138H86.9175V102.812H92.1478V97.2138Z" stroke="white" stroke-width="0.657072" stroke-miterlimit="10"/>
<path d="M99.8158 97.2138H94.5855V102.812H99.8158V97.2138Z" stroke="white" stroke-width="0.657072" stroke-miterlimit="10"/>
<path d="M107.49 97.2138H102.26V102.812H107.49V97.2138Z" stroke="white" stroke-width="0.657072" stroke-miterlimit="10"/>
<path d="M84.4797 105.329H79.2495V110.927H84.4797V105.329Z" stroke="white" stroke-width="0.657072" stroke-miterlimit="10"/>
<path d="M92.1478 105.329H86.9175V110.927H92.1478V105.329Z" stroke="white" stroke-width="0.657072" stroke-miterlimit="10"/>
<path d="M99.8158 105.329H94.5855V110.927H99.8158V105.329Z" stroke="white" stroke-width="0.657072" stroke-miterlimit="10"/>
<path d="M107.49 105.329H102.26V110.927H107.49V105.329Z" stroke="white" stroke-width="0.657072" stroke-miterlimit="10"/>
<path d="M84.4797 114.206H79.2495V119.804H84.4797V114.206Z" stroke="white" stroke-width="0.657072" stroke-miterlimit="10"/>
<path d="M92.1478 114.206H86.9175V119.804H92.1478V114.206Z" stroke="white" stroke-width="0.657072" stroke-miterlimit="10"/>
<path d="M99.8158 114.206H94.5855V119.804H99.8158V114.206Z" stroke="white" stroke-width="0.657072" stroke-miterlimit="10"/>
<path d="M107.49 114.206H102.26V119.804H107.49V114.206Z" stroke="white" stroke-width="0.657072" stroke-miterlimit="10"/>
<path d="M84.4797 123.076H79.2495V128.674H84.4797V123.076Z" stroke="white" stroke-width="0.657072" stroke-miterlimit="10"/>
<path d="M92.1478 123.076H86.9175V128.674H92.1478V123.076Z" stroke="white" stroke-width="0.657072" stroke-miterlimit="10"/>
<path d="M99.8158 123.076H94.5855V128.674H99.8158V123.076Z" stroke="white" stroke-width="0.657072" stroke-miterlimit="10"/>
<path d="M107.49 123.076H102.26V128.674H107.49V123.076Z" stroke="white" stroke-width="0.657072" stroke-miterlimit="10"/>
<path d="M84.4797 131.947H79.2495V137.545H84.4797V131.947Z" stroke="white" stroke-width="0.657072" stroke-miterlimit="10"/>
<path d="M92.1478 131.947H86.9175V137.545H92.1478V131.947Z" stroke="white" stroke-width="0.657072" stroke-miterlimit="10"/>
<path d="M99.8158 131.947H94.5855V137.545H99.8158V131.947Z" stroke="white" stroke-width="0.657072" stroke-miterlimit="10"/>
<path d="M107.49 131.947H102.26V137.545H107.49V131.947Z" stroke="white" stroke-width="0.657072" stroke-miterlimit="10"/>
<path d="M84.4797 140.824H79.2495V146.422H84.4797V140.824Z" stroke="white" stroke-width="0.657072" stroke-miterlimit="10"/>
<path d="M92.1478 140.824H86.9175V146.422H92.1478V140.824Z" stroke="white" stroke-width="0.657072" stroke-miterlimit="10"/>
<path d="M99.8158 140.824H94.5855V146.422H99.8158V140.824Z" stroke="white" stroke-width="0.657072" stroke-miterlimit="10"/>
<path d="M107.49 140.824H102.26V146.422H107.49V140.824Z" stroke="white" stroke-width="0.657072" stroke-miterlimit="10"/>
<path d="M84.4797 149.694H79.2495V155.292H84.4797V149.694Z" stroke="white" stroke-width="0.657072" stroke-miterlimit="10"/>
<path d="M92.1478 149.694H86.9175V155.292H92.1478V149.694Z" stroke="white" stroke-width="0.657072" stroke-miterlimit="10"/>
<path d="M99.8158 149.694H94.5855V155.292H99.8158V149.694Z" stroke="white" stroke-width="0.657072" stroke-miterlimit="10"/>
<path d="M107.49 149.694H102.26V155.292H107.49V149.694Z" stroke="white" stroke-width="0.657072" stroke-miterlimit="10"/>
<path d="M84.4797 158.571H79.2495V164.169H84.4797V158.571Z" stroke="white" stroke-width="0.657072" stroke-miterlimit="10"/>
<path d="M92.1478 158.571H86.9175V164.169H92.1478V158.571Z" stroke="white" stroke-width="0.657072" stroke-miterlimit="10"/>
<path d="M99.8158 158.571H94.5855V164.169H99.8158V158.571Z" stroke="white" stroke-width="0.657072" stroke-miterlimit="10"/>
<path d="M107.49 158.571H102.26V164.169H107.49V158.571Z" stroke="white" stroke-width="0.657072" stroke-miterlimit="10"/>
<path d="M84.4797 167.442H79.2495V173.04H84.4797V167.442Z" stroke="white" stroke-width="0.657072" stroke-miterlimit="10"/>
<path d="M92.1478 167.442H86.9175V173.04H92.1478V167.442Z" stroke="white" stroke-width="0.657072" stroke-miterlimit="10"/>
<path d="M99.8158 167.442H94.5855V173.04H99.8158V167.442Z" stroke="white" stroke-width="0.657072" stroke-miterlimit="10"/>
<path d="M107.49 167.442H102.26V173.04H107.49V167.442Z" stroke="white" stroke-width="0.657072" stroke-miterlimit="10"/>
<path d="M114.436 105.329H109.205V110.927H114.436V105.329Z" stroke="white" stroke-width="0.657072" stroke-miterlimit="10"/>
<path d="M122.104 105.329H116.873V110.927H122.104V105.329Z" stroke="white" stroke-width="0.657072" stroke-miterlimit="10"/>
<path d="M129.772 105.329H124.541V110.927H129.772V105.329Z" stroke="white" stroke-width="0.657072" stroke-miterlimit="10"/>
<path d="M137.44 105.329H132.209V110.927H137.44V105.329Z" stroke="white" stroke-width="0.657072" stroke-miterlimit="10"/>
<path d="M114.436 114.206H109.205V119.804H114.436V114.206Z" stroke="white" stroke-width="0.657072" stroke-miterlimit="10"/>
<path d="M122.104 114.206H116.873V119.804H122.104V114.206Z" stroke="white" stroke-width="0.657072" stroke-miterlimit="10"/>
<path d="M129.772 114.206H124.541V119.804H129.772V114.206Z" stroke="white" stroke-width="0.657072" stroke-miterlimit="10"/>
<path d="M137.44 114.206H132.209V119.804H137.44V114.206Z" stroke="white" stroke-width="0.657072" stroke-miterlimit="10"/>
<path d="M114.436 123.076H109.205V128.674H114.436V123.076Z" stroke="white" stroke-width="0.657072" stroke-miterlimit="10"/>
<path d="M122.104 123.076H116.873V128.674H122.104V123.076Z" stroke="white" stroke-width="0.657072" stroke-miterlimit="10"/>
<path d="M129.772 123.076H124.541V128.674H129.772V123.076Z" stroke="white" stroke-width="0.657072" stroke-miterlimit="10"/>
<path d="M137.44 123.076H132.209V128.674H137.44V123.076Z" stroke="white" stroke-width="0.657072" stroke-miterlimit="10"/>
<path d="M114.436 131.947H109.205V137.545H114.436V131.947Z" stroke="white" stroke-width="0.657072" stroke-miterlimit="10"/>
<path d="M122.104 131.947H116.873V137.545H122.104V131.947Z" stroke="white" stroke-width="0.657072" stroke-miterlimit="10"/>
<path d="M129.772 131.947H124.541V137.545H129.772V131.947Z" stroke="white" stroke-width="0.657072" stroke-miterlimit="10"/>
<path d="M137.44 131.947H132.209V137.545H137.44V131.947Z" stroke="white" stroke-width="0.657072" stroke-miterlimit="10"/>
<path d="M114.436 140.824H109.205V146.422H114.436V140.824Z" stroke="white" stroke-width="0.657072" stroke-miterlimit="10"/>
<path d="M122.104 140.824H116.873V146.422H122.104V140.824Z" stroke="white" stroke-width="0.657072" stroke-miterlimit="10"/>
<path d="M129.772 140.824H124.541V146.422H129.772V140.824Z" stroke="white" stroke-width="0.657072" stroke-miterlimit="10"/>
<path d="M137.44 140.824H132.209V146.422H137.44V140.824Z" stroke="white" stroke-width="0.657072" stroke-miterlimit="10"/>
<path d="M114.436 149.694H109.205V155.292H114.436V149.694Z" stroke="white" stroke-width="0.657072" stroke-miterlimit="10"/>
<path d="M122.104 149.694H116.873V155.292H122.104V149.694Z" stroke="white" stroke-width="0.657072" stroke-miterlimit="10"/>
<path d="M129.772 149.694H124.541V155.292H129.772V149.694Z" stroke="white" stroke-width="0.657072" stroke-miterlimit="10"/>
<path d="M137.44 149.694H132.209V155.292H137.44V149.694Z" stroke="white" stroke-width="0.657072" stroke-miterlimit="10"/>
<path d="M114.436 158.571H109.205V164.169H114.436V158.571Z" stroke="white" stroke-width="0.657072" stroke-miterlimit="10"/>
<path d="M122.104 158.571H116.873V164.169H122.104V158.571Z" stroke="white" stroke-width="0.657072" stroke-miterlimit="10"/>
<path d="M129.772 158.571H124.541V164.169H129.772V158.571Z" stroke="white" stroke-width="0.657072" stroke-miterlimit="10"/>
<path d="M137.44 158.571H132.209V164.169H137.44V158.571Z" stroke="white" stroke-width="0.657072" stroke-miterlimit="10"/>
<path d="M114.436 167.442H109.205V173.04H114.436V167.442Z" stroke="white" stroke-width="0.657072" stroke-miterlimit="10"/>
<path d="M122.104 167.442H116.873V173.04H122.104V167.442Z" stroke="white" stroke-width="0.657072" stroke-miterlimit="10"/>
<path d="M129.772 167.442H124.541V173.04H129.772V167.442Z" stroke="white" stroke-width="0.657072" stroke-miterlimit="10"/>
<path d="M137.44 167.442H132.209V173.04H137.44V167.442Z" stroke="white" stroke-width="0.657072" stroke-miterlimit="10"/>
<path d="M54.1099 105.329H48.8796V110.927H54.1099V105.329Z" stroke="white" stroke-width="0.657072" stroke-miterlimit="10"/>
<path d="M61.7779 105.329H56.5476V110.927H61.7779V105.329Z" stroke="white" stroke-width="0.657072" stroke-miterlimit="10"/>
<path d="M69.4459 105.329H64.2156V110.927H69.4459V105.329Z" stroke="white" stroke-width="0.657072" stroke-miterlimit="10"/>
<path d="M77.114 105.329H71.8837V110.927H77.114V105.329Z" stroke="white" stroke-width="0.657072" stroke-miterlimit="10"/>
<path d="M54.1099 114.206H48.8796V119.804H54.1099V114.206Z" stroke="white" stroke-width="0.657072" stroke-miterlimit="10"/>
<path d="M61.7779 114.206H56.5476V119.804H61.7779V114.206Z" stroke="white" stroke-width="0.657072" stroke-miterlimit="10"/>
<path d="M69.4459 114.206H64.2156V119.804H69.4459V114.206Z" stroke="white" stroke-width="0.657072" stroke-miterlimit="10"/>
<path d="M77.114 114.206H71.8837V119.804H77.114V114.206Z" stroke="white" stroke-width="0.657072" stroke-miterlimit="10"/>
<path d="M54.1099 123.076H48.8796V128.674H54.1099V123.076Z" stroke="white" stroke-width="0.657072" stroke-miterlimit="10"/>
<path d="M61.7779 123.076H56.5476V128.674H61.7779V123.076Z" stroke="white" stroke-width="0.657072" stroke-miterlimit="10"/>
<path d="M69.4459 123.076H64.2156V128.674H69.4459V123.076Z" stroke="white" stroke-width="0.657072" stroke-miterlimit="10"/>
<path d="M77.114 123.076H71.8837V128.674H77.114V123.076Z" stroke="white" stroke-width="0.657072" stroke-miterlimit="10"/>
<path d="M54.1099 131.947H48.8796V137.545H54.1099V131.947Z" stroke="white" stroke-width="0.657072" stroke-miterlimit="10"/>
<path d="M61.7779 131.947H56.5476V137.545H61.7779V131.947Z" stroke="white" stroke-width="0.657072" stroke-miterlimit="10"/>
<path d="M69.4459 131.947H64.2156V137.545H69.4459V131.947Z" stroke="white" stroke-width="0.657072" stroke-miterlimit="10"/>
<path d="M77.114 131.947H71.8837V137.545H77.114V131.947Z" stroke="white" stroke-width="0.657072" stroke-miterlimit="10"/>
<path d="M54.1099 140.824H48.8796V146.422H54.1099V140.824Z" stroke="white" stroke-width="0.657072" stroke-miterlimit="10"/>
<path d="M61.7779 140.824H56.5476V146.422H61.7779V140.824Z" stroke="white" stroke-width="0.657072" stroke-miterlimit="10"/>
<path d="M69.4459 140.824H64.2156V146.422H69.4459V140.824Z" stroke="white" stroke-width="0.657072" stroke-miterlimit="10"/>
<path d="M77.114 140.824H71.8837V146.422H77.114V140.824Z" stroke="white" stroke-width="0.657072" stroke-miterlimit="10"/>
<path d="M54.1099 149.694H48.8796V155.292H54.1099V149.694Z" stroke="white" stroke-width="0.657072" stroke-miterlimit="10"/>
<path d="M61.7779 149.694H56.5476V155.292H61.7779V149.694Z" stroke="white" stroke-width="0.657072" stroke-miterlimit="10"/>
<path d="M69.4459 149.694H64.2156V155.292H69.4459V149.694Z" stroke="white" stroke-width="0.657072" stroke-miterlimit="10"/>
<path d="M77.114 149.694H71.8837V155.292H77.114V149.694Z" stroke="white" stroke-width="0.657072" stroke-miterlimit="10"/>
<path d="M54.1099 158.571H48.8796V164.169H54.1099V158.571Z" stroke="white" stroke-width="0.657072" stroke-miterlimit="10"/>
<path d="M61.7779 158.571H56.5476V164.169H61.7779V158.571Z" stroke="white" stroke-width="0.657072" stroke-miterlimit="10"/>
<path d="M69.4459 158.571H64.2156V164.169H69.4459V158.571Z" stroke="white" stroke-width="0.657072" stroke-miterlimit="10"/>
<path d="M77.114 158.571H71.8837V164.169H77.114V158.571Z" stroke="white" stroke-width="0.657072" stroke-miterlimit="10"/>
<path d="M54.1099 167.442H48.8796V173.04H54.1099V167.442Z" stroke="white" stroke-width="0.657072" stroke-miterlimit="10"/>
<path d="M61.7779 167.442H56.5476V173.04H61.7779V167.442Z" stroke="white" stroke-width="0.657072" stroke-miterlimit="10"/>
<path d="M69.4459 167.442H64.2156V173.04H69.4459V167.442Z" stroke="white" stroke-width="0.657072" stroke-miterlimit="10"/>
<path d="M77.114 167.442H71.8837V173.04H77.114V167.442Z" stroke="white" stroke-width="0.657072" stroke-miterlimit="10"/>
<path d="M225.402 87.936H220.172V93.5342H225.402V87.936Z" stroke="white" stroke-width="0.657072" stroke-miterlimit="10"/>
<path d="M233.07 87.936H227.84V93.5342H233.07V87.936Z" stroke="white" stroke-width="0.657072" stroke-miterlimit="10"/>
<path d="M240.738 87.936H235.508V93.5342H240.738V87.936Z" stroke="white" stroke-width="0.657072" stroke-miterlimit="10"/>
<path d="M248.406 87.936H243.176V93.5342H248.406V87.936Z" stroke="white" stroke-width="0.657072" stroke-miterlimit="10"/>
<path d="M225.402 96.813H220.172V102.411H225.402V96.813Z" stroke="white" stroke-width="0.657072" stroke-miterlimit="10"/>
<path d="M233.07 96.813H227.84V102.411H233.07V96.813Z" stroke="white" stroke-width="0.657072" stroke-miterlimit="10"/>
<path d="M240.738 96.813H235.508V102.411H240.738V96.813Z" stroke="white" stroke-width="0.657072" stroke-miterlimit="10"/>
<path d="M248.406 96.813H243.176V102.411H248.406V96.813Z" stroke="white" stroke-width="0.657072" stroke-miterlimit="10"/>
<path d="M225.402 105.683H220.172V111.282H225.402V105.683Z" stroke="white" stroke-width="0.657072" stroke-miterlimit="10"/>
<path d="M233.07 105.683H227.84V111.282H233.07V105.683Z" stroke="white" stroke-width="0.657072" stroke-miterlimit="10"/>
<path d="M240.738 105.683H235.508V111.282H240.738V105.683Z" stroke="white" stroke-width="0.657072" stroke-miterlimit="10"/>
<path d="M248.406 105.683H243.176V111.282H248.406V105.683Z" stroke="white" stroke-width="0.657072" stroke-miterlimit="10"/>
<path d="M225.402 114.554H220.172V120.152H225.402V114.554Z" stroke="white" stroke-width="0.657072" stroke-miterlimit="10"/>
<path d="M233.07 114.554H227.84V120.152H233.07V114.554Z" stroke="white" stroke-width="0.657072" stroke-miterlimit="10"/>
<path d="M240.738 114.554H235.508V120.152H240.738V114.554Z" stroke="white" stroke-width="0.657072" stroke-miterlimit="10"/>
<path d="M248.406 114.554H243.176V120.152H248.406V114.554Z" stroke="white" stroke-width="0.657072" stroke-miterlimit="10"/>
<path d="M225.402 123.431H220.172V129.029H225.402V123.431Z" stroke="white" stroke-width="0.657072" stroke-miterlimit="10"/>
<path d="M233.07 123.431H227.84V129.029H233.07V123.431Z" stroke="white" stroke-width="0.657072" stroke-miterlimit="10"/>
<path d="M240.738 123.431H235.508V129.029H240.738V123.431Z" stroke="white" stroke-width="0.657072" stroke-miterlimit="10"/>
<path d="M248.406 123.431H243.176V129.029H248.406V123.431Z" stroke="white" stroke-width="0.657072" stroke-miterlimit="10"/>
<path d="M225.402 132.301H220.172V137.9H225.402V132.301Z" stroke="white" stroke-width="0.657072" stroke-miterlimit="10"/>
<path d="M233.07 132.301H227.84V137.9H233.07V132.301Z" stroke="white" stroke-width="0.657072" stroke-miterlimit="10"/>
<path d="M240.738 132.301H235.508V137.9H240.738V132.301Z" stroke="white" stroke-width="0.657072" stroke-miterlimit="10"/>
<path d="M248.406 132.301H243.176V137.9H248.406V132.301Z" stroke="white" stroke-width="0.657072" stroke-miterlimit="10"/>
<path d="M225.402 141.178H220.172V146.777H225.402V141.178Z" stroke="white" stroke-width="0.657072" stroke-miterlimit="10"/>
<path d="M233.07 141.178H227.84V146.777H233.07V141.178Z" stroke="white" stroke-width="0.657072" stroke-miterlimit="10"/>
<path d="M240.738 141.178H235.508V146.777H240.738V141.178Z" stroke="white" stroke-width="0.657072" stroke-miterlimit="10"/>
<path d="M248.406 141.178H243.176V146.777H248.406V141.178Z" stroke="white" stroke-width="0.657072" stroke-miterlimit="10"/>
<path d="M225.402 150.049H220.172V155.647H225.402V150.049Z" stroke="white" stroke-width="0.657072" stroke-miterlimit="10"/>
<path d="M233.07 150.049H227.84V155.647H233.07V150.049Z" stroke="white" stroke-width="0.657072" stroke-miterlimit="10"/>
<path d="M240.738 150.049H235.508V155.647H240.738V150.049Z" stroke="white" stroke-width="0.657072" stroke-miterlimit="10"/>
<path d="M248.406 150.049H243.176V155.647H248.406V150.049Z" stroke="white" stroke-width="0.657072" stroke-miterlimit="10"/>
<path d="M161.692 16.5516V178.684" stroke="white" stroke-width="0.657072" stroke-miterlimit="10"/>
<path d="M166.877 16.5516V178.684" stroke="white" stroke-width="0.657072" stroke-miterlimit="10"/>
<path d="M172.061 16.5516V178.684" stroke="white" stroke-width="0.657072" stroke-miterlimit="10"/>
<path d="M177.245 16.5516V178.684" stroke="white" stroke-width="0.657072" stroke-miterlimit="10"/>
<path d="M182.436 16.5516V178.684" stroke="white" stroke-width="0.657072" stroke-miterlimit="10"/>
<path d="M187.62 16.5516V178.684" stroke="white" stroke-width="0.657072" stroke-miterlimit="10"/>
<path d="M192.805 16.5516V178.684" stroke="white" stroke-width="0.657072" stroke-miterlimit="10"/>
<path d="M197.989 16.5516V178.684" stroke="white" stroke-width="0.657072" stroke-miterlimit="10"/>
<path d="M145.364 175.859H52.3884V181.102H145.364V175.859Z" stroke="white" stroke-width="0.657072" stroke-miterlimit="10"/>
<path d="M285.912 175.859H202.424V181.102H285.912V175.859Z" stroke="white" stroke-width="0.657072" stroke-miterlimit="10"/>
<path d="M194.625 175.655C194.625 175.655 203.738 176.555 208.357 182.226C208.357 182.226 213.24 175.655 222.005 175.813C224.156 173.227 225.528 170.083 225.96 166.747C226.392 163.411 225.867 160.021 224.446 156.972C223.025 153.923 220.766 151.341 217.934 149.527C215.101 147.713 211.811 146.741 208.447 146.726C205.083 146.711 201.785 147.652 198.935 149.44C196.086 151.228 193.804 153.79 192.355 156.825C190.906 159.861 190.35 163.246 190.752 166.586C191.154 169.926 192.497 173.082 194.625 175.688V175.655Z" fill="#80F17E"/>
<path opacity="0.5" d="M194.625 175.655C194.625 175.655 203.738 176.555 208.357 182.226C208.357 182.226 213.24 175.655 222.005 175.813C224.156 173.227 225.528 170.083 225.96 166.747C226.392 163.411 225.867 160.021 224.446 156.972C223.025 153.923 220.766 151.341 217.934 149.527C215.101 147.713 211.811 146.741 208.447 146.726C205.083 146.711 201.785 147.652 198.935 149.44C196.086 151.228 193.804 153.79 192.355 156.825C190.906 159.861 190.35 163.246 190.752 166.586C191.154 169.926 192.497 173.082 194.625 175.688V175.655Z" fill="white"/>
<path d="M208.055 148.025L207.753 193.711H209.29L208.055 148.025Z" fill="#263238"/>
<path d="M208.522 180.485C208.522 180.485 211.597 174.945 217.136 173.257C217.136 173.257 211.288 174.637 208.364 179.407L208.522 180.485Z" fill="#263238"/>
<path d="M208.522 164.794C208.522 164.794 211.597 159.255 217.136 157.566C217.136 157.566 211.288 158.946 208.364 163.716L208.522 164.794Z" fill="#263238"/>
<path d="M208.522 172.639C208.522 172.639 211.597 167.1 217.136 165.411C217.136 165.411 211.288 166.791 208.364 171.561L208.522 172.639Z" fill="#263238"/>
<path d="M208.062 168.795C208.062 168.795 205.092 163.256 199.75 161.567C199.75 161.567 205.394 162.954 208.213 167.724L208.062 168.795Z" fill="#263238"/>
<path d="M208.062 176.483C208.062 176.483 205.092 170.944 199.75 169.255C199.75 169.255 205.394 170.642 208.213 175.405L208.062 176.483Z" fill="#263238"/>
<path d="M237.551 172.192C237.551 172.192 248.413 173.263 253.919 179.998C253.919 179.998 259.734 172.199 270.181 172.357C272.733 169.277 274.358 165.535 274.866 161.568C275.374 157.601 274.745 153.571 273.052 149.947C271.358 146.324 268.67 143.256 265.301 141.101C261.931 138.946 258.019 137.792 254.019 137.774C250.019 137.757 246.097 138.876 242.709 141.001C239.32 143.126 236.605 146.17 234.88 149.778C233.154 153.387 232.489 157.411 232.962 161.383C233.435 165.354 235.027 169.11 237.551 172.212V172.192Z" fill="#80F17E"/>
<path opacity="0.5" d="M237.551 172.192C237.551 172.192 248.413 173.263 253.919 179.998C253.919 179.998 259.734 172.199 270.181 172.357C272.733 169.277 274.358 165.535 274.866 161.568C275.374 157.601 274.745 153.571 273.052 149.947C271.358 146.324 268.67 143.256 265.301 141.101C261.931 138.946 258.019 137.792 254.019 137.774C250.019 137.757 246.097 138.876 242.709 141.001C239.32 143.126 236.605 146.17 234.88 149.778C233.154 153.387 232.489 157.411 232.962 161.383C233.435 165.354 235.027 169.11 237.551 172.212V172.192Z" fill="white"/>
<path d="M253.557 139.266L253.19 193.711H255.029L253.557 139.266Z" fill="#1C2129"/>
<path d="M254.109 177.948C254.109 177.948 257.776 171.345 264.373 169.327C264.373 169.327 257.408 170.983 253.925 176.66L254.109 177.948Z" fill="#1C2129"/>
<path d="M254.109 159.248C254.109 159.248 257.776 152.644 264.373 150.634C264.373 150.634 257.408 152.283 253.925 157.967L254.109 159.248Z" fill="#1C2129"/>
<path d="M254.109 168.598C254.109 168.598 257.776 162.027 264.373 159.977C264.373 159.977 257.408 161.633 253.925 167.317L254.109 168.598Z" fill="#1C2129"/>
<path d="M253.564 164.012C253.564 164.012 250.029 157.441 243.662 155.398C243.662 155.398 250.384 157.047 253.741 162.73L253.564 164.012Z" fill="#263238"/>
<path d="M253.564 173.178C253.564 173.178 250.029 166.607 243.662 164.564C243.662 164.564 250.384 166.213 253.741 171.897L253.564 173.178Z" fill="#263238"/>
<path d="M281.273 178.48C281.273 178.48 288.96 179.243 292.857 184.006C294.257 182.311 296.016 180.947 298.006 180.012C299.997 179.076 302.17 178.594 304.369 178.599C306.176 176.418 307.327 173.769 307.688 170.96C308.048 168.151 307.603 165.297 306.404 162.731C305.205 160.166 303.302 157.993 300.917 156.467C298.531 154.94 295.761 154.123 292.929 154.11C290.097 154.097 287.319 154.889 284.92 156.394C282.52 157.898 280.597 160.054 279.375 162.608C278.153 165.163 277.682 168.013 278.017 170.825C278.352 173.638 279.479 176.297 281.266 178.494L281.273 178.48Z" fill="#80F17E"/>
<path opacity="0.5" d="M281.273 178.48C281.273 178.48 288.96 179.243 292.857 184.006C294.257 182.311 296.016 180.947 298.006 180.012C299.997 179.076 302.17 178.594 304.369 178.599C306.176 176.418 307.327 173.769 307.688 170.96C308.048 168.151 307.603 165.297 306.404 162.731C305.205 160.166 303.302 157.993 300.917 156.467C298.531 154.94 295.761 154.123 292.929 154.11C290.097 154.097 287.319 154.889 284.92 156.394C282.52 157.898 280.597 160.054 279.375 162.608C278.153 165.163 277.682 168.013 278.017 170.825C278.352 173.638 279.479 176.297 281.266 178.494L281.273 178.48Z" fill="white"/>
<path d="M292.601 155.174L292.344 193.711H293.639L292.601 155.174Z" fill="#263238"/>
<path d="M292.995 182.554C292.995 182.554 295.584 177.882 300.223 176.457C300.223 176.457 295.295 177.62 292.831 181.648L292.995 182.554Z" fill="#263238"/>
<path d="M292.995 169.314C292.995 169.314 295.584 164.643 300.223 163.217C300.223 163.217 295.295 164.386 292.831 168.408L292.995 169.314Z" fill="#263238"/>
<path d="M292.995 175.938C292.995 175.938 295.584 171.266 300.223 169.833C300.223 169.833 295.295 171.003 292.831 175.024L292.995 175.938Z" fill="#263238"/>
<path d="M292.607 172.692C292.607 172.692 290.104 168.02 285.596 166.594C285.596 166.594 290.354 167.757 292.732 171.785L292.607 172.692Z" fill="#263238"/>
<path d="M292.607 179.177C292.607 179.177 290.104 174.505 285.596 173.079C285.596 173.079 290.354 174.249 292.732 178.27L292.607 179.177Z" fill="#263238"/>
<path d="M35.9221 175.655C35.9221 175.655 45.0357 176.555 49.6549 182.226C49.6549 182.226 54.5369 175.655 63.3023 175.813C65.4535 173.227 66.8252 170.083 67.2575 166.747C67.6897 163.411 67.1647 160.021 65.7435 156.972C64.3224 153.923 62.0638 151.341 59.2311 149.527C56.3984 147.713 53.1083 146.741 49.7445 146.726C46.3807 146.711 43.0819 147.652 40.2328 149.44C37.3836 151.228 35.1016 153.79 33.6527 156.825C32.2038 159.861 31.6479 163.246 32.0497 166.586C32.4515 169.926 33.7945 173.082 35.9221 175.688V175.655Z" fill="#80F17E"/>
<path opacity="0.5" d="M35.9221 175.655C35.9221 175.655 45.0357 176.555 49.6549 182.226C49.6549 182.226 54.5369 175.655 63.3023 175.813C65.4535 173.227 66.8252 170.083 67.2575 166.747C67.6897 163.411 67.1647 160.021 65.7435 156.972C64.3224 153.923 62.0638 151.341 59.2311 149.527C56.3984 147.713 53.1083 146.741 49.7445 146.726C46.3807 146.711 43.0819 147.652 40.2328 149.44C37.3836 151.228 35.1016 153.79 33.6527 156.825C32.2038 159.861 31.6479 163.246 32.0497 166.586C32.4515 169.926 33.7945 173.082 35.9221 175.688V175.655Z" fill="white"/>
<path d="M49.3527 148.025L49.0439 193.711H50.5814L49.3527 148.025Z" fill="#1C2129"/>
<path d="M49.8126 180.485C49.8126 180.485 52.8943 174.945 58.4268 173.257C58.4268 173.257 52.5855 174.637 49.6615 179.407L49.8126 180.485Z" fill="white"/>
<path d="M49.8126 164.794C49.8126 164.794 52.8943 159.255 58.4268 157.566C58.4268 157.566 52.5855 158.946 49.6615 163.716L49.8126 164.794Z" fill="#263238"/>
<path d="M49.8126 172.639C49.8126 172.639 52.8943 167.1 58.4268 165.411C58.4268 165.411 52.5855 166.791 49.6615 171.561L49.8126 172.639Z" fill="#263238"/>
<path d="M49.3593 168.795C49.3593 168.795 46.3893 163.256 41.0473 161.567C41.0473 161.567 46.685 162.954 49.5104 167.724L49.3593 168.795Z" fill="#1C2129"/>
<path d="M49.3593 176.483C49.3593 176.483 46.3893 170.944 41.0473 169.255C41.0473 169.255 46.685 170.642 49.5104 175.405L49.3593 176.483Z" fill="white"/>
<path d="M78.8486 172.192C78.8486 172.192 89.71 173.263 95.2163 179.998C95.2163 179.998 101.031 172.199 111.479 172.357C114.03 169.276 115.654 165.535 116.161 161.568C116.668 157.601 116.038 153.572 114.345 149.949C112.651 146.326 109.963 143.259 106.594 141.104C103.224 138.949 99.3125 137.796 95.3133 137.778C91.314 137.761 87.392 138.879 84.0038 141.004C80.6156 143.129 77.9006 146.172 76.1748 149.78C74.449 153.388 73.7835 157.411 74.2557 161.383C74.7279 165.354 76.3184 169.109 78.8421 172.212L78.8486 172.192Z" fill="#80F17E"/>
<path opacity="0.5" d="M78.8486 172.192C78.8486 172.192 89.71 173.263 95.2163 179.998C95.2163 179.998 101.031 172.199 111.479 172.357C114.03 169.276 115.654 165.535 116.161 161.568C116.668 157.601 116.038 153.572 114.345 149.949C112.651 146.326 109.963 143.259 106.594 141.104C103.224 138.949 99.3125 137.796 95.3133 137.778C91.314 137.761 87.392 138.879 84.0038 141.004C80.6156 143.129 77.9006 146.172 76.1748 149.78C74.449 153.388 73.7835 157.411 74.2557 161.383C74.7279 165.354 76.3184 169.109 78.8421 172.212L78.8486 172.192Z" fill="white"/>
<path d="M94.8549 139.266L94.4869 193.711H96.3202L94.8549 139.266Z" fill="#263238"/>
<path d="M95.4068 177.948C95.4068 177.948 99.0732 171.345 105.67 169.327C105.67 169.327 98.7053 170.983 95.2228 176.66L95.4068 177.948Z" fill="#263238"/>
<path d="M95.4068 159.248C95.4068 159.248 99.0732 152.644 105.67 150.634C105.67 150.634 98.7053 152.283 95.2228 157.967L95.4068 159.248Z" fill="#263238"/>
<path d="M95.4068 168.598C95.4068 168.598 99.0732 162.027 105.67 159.977C105.67 159.977 98.7053 161.633 95.2228 167.317L95.4068 168.598Z" fill="#263238"/>
<path d="M94.8615 164.012C94.8615 164.012 91.3264 157.441 84.9528 155.398C84.9528 155.398 91.6747 157.047 95.0389 162.73L94.8615 164.012Z" fill="#263238"/>
<path d="M94.8615 173.178C94.8615 173.178 91.3264 166.607 84.9528 164.564C84.9528 164.564 91.6747 166.213 95.0389 171.897L94.8615 173.178Z" fill="#263238"/>
<path d="M122.57 178.48C122.57 178.48 130.258 179.243 134.154 184.006C135.554 182.31 137.313 180.945 139.303 180.01C141.294 179.075 143.467 178.593 145.666 178.599C147.474 176.418 148.625 173.769 148.985 170.96C149.345 168.151 148.9 165.297 147.702 162.731C146.503 160.166 144.6 157.993 142.214 156.467C139.829 154.94 137.058 154.123 134.226 154.11C131.394 154.097 128.617 154.889 126.217 156.394C123.818 157.898 121.895 160.054 120.673 162.608C119.451 165.163 118.98 168.013 119.315 170.825C119.649 173.638 120.776 176.297 122.564 178.494L122.57 178.48Z" fill="#80F17E"/>
<path opacity="0.5" d="M122.57 178.48C122.57 178.48 130.258 179.243 134.154 184.006C135.554 182.31 137.313 180.945 139.303 180.01C141.294 179.075 143.467 178.593 145.666 178.599C147.474 176.418 148.625 173.769 148.985 170.96C149.345 168.151 148.9 165.297 147.702 162.731C146.503 160.166 144.6 157.993 142.214 156.467C139.829 154.94 137.058 154.123 134.226 154.11C131.394 154.097 128.617 154.889 126.217 156.394C123.818 157.898 121.895 160.054 120.673 162.608C119.451 165.163 118.98 168.013 119.315 170.825C119.649 173.638 120.776 176.297 122.564 178.494L122.57 178.48Z" fill="white"/>
<path d="M133.898 155.174L133.635 193.711H134.936L133.898 155.174Z" fill="white"/>
<path d="M134.286 182.554C134.286 182.554 136.881 177.882 141.553 176.457C141.553 176.457 136.625 177.62 134.161 181.648L134.286 182.554Z" fill="white"/>
<path d="M134.286 169.314C134.286 169.314 136.881 164.643 141.553 163.217C141.553 163.217 136.625 164.386 134.161 168.408L134.286 169.314Z" fill="#263238"/>
<path d="M134.286 175.938C134.286 175.938 136.881 171.266 141.553 169.833C141.553 169.833 136.625 171.003 134.161 175.024L134.286 175.938Z" fill="#263238"/>
<path d="M133.905 172.692C133.905 172.692 131.401 168.02 126.894 166.594C126.894 166.594 131.651 167.757 134.029 171.785L133.905 172.692Z" fill="#263238"/>
<path d="M133.905 179.177C133.905 179.177 131.401 174.505 126.894 173.079C126.894 173.079 131.651 174.249 134.029 178.27L133.905 179.177Z" fill="white"/>
<path d="M225.112 193.238C234.569 191.032 240.447 181.578 238.241 172.12C236.035 162.663 226.581 156.785 217.124 158.991C207.667 161.197 201.788 170.652 203.994 180.109C206.2 189.566 215.655 195.444 225.112 193.238Z" fill="#263238" stroke="#263238" stroke-width="0.657072" stroke-miterlimit="10"/>
<path d="M110.404 188.55C117.271 181.683 117.271 170.55 110.404 163.684C103.537 156.817 92.4043 156.817 85.5377 163.684C78.671 170.55 78.671 181.683 85.5377 188.55C92.4043 195.417 103.537 195.417 110.404 188.55Z" fill="#263238" stroke="#263238" stroke-width="0.657072" stroke-miterlimit="10"/>
<path d="M209.258 142.795C209.258 142.795 204.593 139.877 183.29 132.873C161.988 125.869 148.268 123.53 127.262 124.121C106.255 124.712 77.9419 132.584 72.6919 134.634C67.4419 136.684 65.1027 137.262 66.2723 138.714C67.4419 140.167 73.8549 145.43 72.981 147.762C72.1071 150.095 57.8224 162.954 56.9288 164.971C56.0351 166.988 59.8527 174.019 60.431 175.773C61.0092 177.528 64.2288 178.106 66.8506 178.402C69.4723 178.697 256.245 178.402 256.245 178.402C256.245 178.402 258.873 175.195 258.288 171.108C257.704 167.021 257.079 161.633 254.445 158.183C252.316 155.384 250.114 152.434 244.588 151.849C241.086 151.475 210.138 143.091 209.258 142.795Z" fill="#80F17E"/>
<mask id="mask0_110_5755" style="mask-type:luminance" maskUnits="userSpaceOnUse" x="56" y="124" width="203" height="55">
<path d="M209.258 142.795C209.258 142.795 204.593 139.877 183.29 132.873C161.988 125.869 148.268 123.53 127.262 124.121C106.255 124.712 77.9419 132.584 72.6919 134.634C67.4419 136.684 65.1027 137.262 66.2723 138.714C67.4419 140.167 73.8549 145.43 72.981 147.762C72.1071 150.095 57.8224 162.954 56.9288 164.971C56.0351 166.988 59.8527 174.019 60.431 175.773C61.0092 177.528 64.2288 178.106 66.8506 178.402C69.4723 178.697 256.245 178.402 256.245 178.402C256.245 178.402 258.873 175.195 258.288 171.108C257.704 167.021 257.079 161.633 254.445 158.183C252.316 155.384 250.114 152.434 244.588 151.849C241.086 151.475 210.138 143.091 209.258 142.795Z" fill="white"/>
</mask>
<g mask="url(#mask0_110_5755)">
<path d="M209.258 142.795C209.258 142.795 204.593 139.877 183.29 132.873C161.988 125.869 148.268 123.53 127.262 124.121C106.255 124.712 77.9419 132.584 72.6919 134.634C67.4419 136.684 65.1027 137.262 66.2723 138.714C67.4419 140.167 73.8549 145.43 72.981 147.762C72.1071 150.095 57.8224 162.954 56.9288 164.971C56.0351 166.988 59.8527 174.019 60.431 175.773C61.0092 177.528 64.2288 178.106 66.8506 178.402C69.4723 178.697 256.245 178.402 256.245 178.402C256.245 178.402 258.873 175.195 258.288 171.108C257.704 167.021 257.079 161.633 254.445 158.183C252.316 155.384 250.114 152.434 244.588 151.849C241.086 151.475 210.138 143.091 209.258 142.795Z" fill="#80F17E"/>
<mask id="mask1_110_5755" style="mask-type:luminance" maskUnits="userSpaceOnUse" x="56" y="124" width="203" height="55">
<path d="M209.258 142.795C209.258 142.795 204.593 139.877 183.29 132.873C161.988 125.869 148.268 123.53 127.262 124.121C106.255 124.712 77.9419 132.584 72.6919 134.634C67.4419 136.684 65.1027 137.262 66.2723 138.714C67.4419 140.167 73.8549 145.43 72.981 147.762C72.1071 150.095 57.8224 162.954 56.9288 164.971C56.0351 166.988 59.8527 174.019 60.431 175.773C61.0092 177.528 64.2288 178.106 66.8506 178.402C69.4723 178.697 256.245 178.402 256.245 178.402C256.245 178.402 258.873 175.195 258.288 171.108C257.704 167.021 257.079 161.633 254.445 158.183C252.316 155.384 250.114 152.434 244.588 151.849C241.086 151.475 210.138 143.091 209.258 142.795Z" fill="white"/>
</mask>
<g mask="url(#mask1_110_5755)">
<path opacity="0.15" d="M209.258 142.795C209.258 142.795 204.593 139.877 183.29 132.873C161.988 125.869 148.268 123.53 127.262 124.121C106.255 124.712 77.9419 132.584 72.6919 134.634C67.4419 136.684 65.1027 137.262 66.2723 138.714C67.4419 140.167 73.8549 145.43 72.981 147.762C72.1071 150.095 57.8224 162.954 56.9288 164.971C56.0351 166.988 59.8527 174.019 60.431 175.773C61.0092 177.528 64.2288 178.106 66.8506 178.402C69.4723 178.697 256.245 178.402 256.245 178.402C256.245 178.402 258.873 175.195 258.288 171.108C257.704 167.021 257.079 161.633 254.445 158.183C252.316 155.384 250.114 152.434 244.588 151.849C241.086 151.475 210.138 143.091 209.258 142.795Z" fill="black"/>
</g>
</g>
<path d="M209.258 142.795C209.258 142.795 204.593 139.877 183.29 132.873C161.988 125.869 148.268 123.53 127.262 124.121C106.255 124.712 77.9419 132.584 72.6919 134.634C67.4419 136.684 65.1027 137.262 66.2723 138.714C67.4419 140.167 73.8549 145.43 72.981 147.762C72.1071 150.095 57.8224 162.954 56.9288 164.971C56.0351 166.988 59.8527 174.019 60.431 175.773C61.0092 177.528 64.2288 178.106 66.8506 178.402C69.4723 178.697 256.245 178.402 256.245 178.402C256.245 178.402 258.873 175.195 258.288 171.108C257.704 167.021 257.079 161.633 254.445 158.183C252.316 155.384 250.114 152.434 244.588 151.849C241.086 151.475 210.138 143.091 209.258 142.795Z" stroke="#263238" stroke-width="0.657072" stroke-miterlimit="10"/>
<path d="M256.245 163.223H245.154V166.141H256.245V163.223Z" fill="#263238" stroke="#263238" stroke-width="0.657072" stroke-miterlimit="10"/>
<path d="M239.831 158.177H241.599C242.729 158.175 243.835 158.512 244.772 159.144C245.709 159.777 246.435 160.676 246.855 161.725L248.636 166.141H242.854L239.831 158.177Z" fill="white" stroke="#263238" stroke-width="0.657072" stroke-miterlimit="10"/>
<path d="M256.107 161.16C256.041 161.344 255.982 161.528 255.93 161.725L254.74 166.141H257.513C257.207 164.439 256.736 162.771 256.107 161.16Z" fill="white" stroke="#263238" stroke-width="0.657072" stroke-miterlimit="10"/>
<path d="M209.258 142.795C209.258 142.795 204.593 139.877 183.29 132.873C178.421 131.276 173.96 129.923 169.709 128.786H154.688L151.481 129.667L194.671 142.808L209.258 142.795Z" fill="#263238" stroke="#263238" stroke-width="0.657072" stroke-miterlimit="10"/>
<path d="M51.9744 138.117V157.829C51.9744 157.829 63.9726 147.973 62.4876 145.167C61.0026 142.361 51.9744 138.117 51.9744 138.117Z" fill="#8F8F8F" stroke="#263238" stroke-width="0.657072" stroke-miterlimit="10"/>
<path d="M194.671 142.795C194.671 142.795 189.999 139.877 168.697 132.873C147.394 125.869 133.681 123.53 112.668 124.121C91.655 124.712 63.3484 132.584 58.1312 134.634C52.9141 136.684 50.542 137.262 51.7116 138.714C52.8812 140.167 59.3008 145.43 58.4203 147.762C57.5398 150.095 43.2157 162.954 42.3418 164.971C41.4679 166.988 45.2592 174.019 45.844 175.773C46.4288 177.528 49.6353 178.106 52.2636 178.402C54.8918 178.697 241.651 178.402 241.651 178.402C241.651 178.402 244.28 175.195 243.695 171.108C243.11 167.021 242.46 161.64 239.831 158.177C237.702 155.378 235.495 152.428 229.975 151.843C226.499 151.475 195.545 143.091 194.671 142.795Z" fill="#80F17E"/>
<mask id="mask2_110_5755" style="mask-type:luminance" maskUnits="userSpaceOnUse" x="42" y="124" width="202" height="55">
<path d="M194.671 142.795C194.671 142.795 189.999 139.877 168.697 132.873C147.394 125.869 133.681 123.53 112.668 124.121C91.655 124.712 63.3484 132.584 58.1312 134.634C52.9141 136.684 50.542 137.262 51.7116 138.714C52.8812 140.167 59.3008 145.43 58.4203 147.762C57.5398 150.095 43.2157 162.954 42.3418 164.971C41.4679 166.988 45.2592 174.019 45.844 175.773C46.4288 177.528 49.6353 178.106 52.2636 178.402C54.8918 178.697 241.651 178.402 241.651 178.402C241.651 178.402 244.28 175.195 243.695 171.108C243.11 167.021 242.46 161.64 239.831 158.177C237.702 155.378 235.495 152.428 229.975 151.843C226.499 151.475 195.545 143.091 194.671 142.795Z" fill="white"/>
</mask>
<g mask="url(#mask2_110_5755)">
<path opacity="0.15" d="M239.831 158.177C237.702 155.378 235.495 152.428 229.975 151.843C229.055 151.744 226.21 151.087 222.511 150.167C204.875 149.99 195.052 157.119 168.703 159.537C134.391 162.678 110.651 154.103 82.0552 150.667C70.1293 149.241 60.5032 150.995 53.3214 153.518C48.8205 158.065 42.8871 163.683 42.3352 164.971C41.4613 167.015 45.2526 174.019 45.8374 175.773C46.4222 177.528 49.6287 178.106 52.257 178.402C54.8853 178.697 241.645 178.402 241.645 178.402C241.645 178.402 244.273 175.195 243.688 171.108C243.104 167.021 242.46 161.64 239.831 158.177Z" fill="black"/>
</g>
<path d="M194.671 142.795C194.671 142.795 189.999 139.877 168.697 132.873C147.394 125.869 133.681 123.53 112.668 124.121C91.655 124.712 63.3484 132.584 58.1312 134.634C52.9141 136.684 50.542 137.262 51.7116 138.714C52.8812 140.167 59.3008 145.43 58.4203 147.762C57.5398 150.095 43.2157 162.954 42.3418 164.971C41.4679 166.988 45.2592 174.019 45.844 175.773C46.4288 177.528 49.6353 178.106 52.2636 178.402C54.8918 178.697 241.651 178.402 241.651 178.402C241.651 178.402 244.28 175.195 243.695 171.108C243.11 167.021 242.46 161.64 239.831 158.177C237.702 155.378 235.495 152.428 229.975 151.843C226.499 151.475 195.545 143.091 194.671 142.795Z" stroke="#263238" stroke-width="0.657072" stroke-miterlimit="10"/>
<path d="M84.3089 132.032L95.9851 144.365H181.812V141.566C181.812 141.566 164.222 134.66 145.673 131.053C127.124 127.446 122.491 127.768 114.133 127.925C105.775 128.083 84.3089 132.032 84.3089 132.032Z" fill="#8F8F8F"/>
<mask id="mask3_110_5755" style="mask-type:luminance" maskUnits="userSpaceOnUse" x="84" y="127" width="98" height="18">
<path d="M84.3089 132.032L95.9851 144.365H181.812V141.566C181.812 141.566 164.222 134.66 145.673 131.053C127.124 127.446 122.491 127.768 114.133 127.925C105.775 128.083 84.3089 132.032 84.3089 132.032Z" fill="white"/>
</mask>
<g mask="url(#mask3_110_5755)">
<path d="M126.158 138.971C115.233 136.476 103.804 137.419 93.4357 141.671L95.9851 144.365H181.812V141.566C181.812 141.566 178.967 140.449 174.354 138.879C164.702 142.585 145.555 143.242 126.158 138.971Z" fill="#263238" stroke="#263238" stroke-width="0.657072" stroke-miterlimit="10"/>
</g>
<path d="M84.3089 132.032L95.9851 144.365H181.812V141.566C181.812 141.566 164.222 134.66 145.673 131.053C127.124 127.446 122.491 127.768 114.133 127.925C105.775 128.083 84.3089 132.032 84.3089 132.032Z" stroke="#263238" stroke-width="2.62829" stroke-miterlimit="10"/>
<path d="M123.116 146.008V172.81" stroke="#263238" stroke-width="0.657072" stroke-miterlimit="10"/>
<path d="M82.0834 193.256C91.5428 191.06 97.4309 181.612 95.2348 172.152C93.0388 162.693 83.5902 156.805 74.1308 159.001C64.6714 161.197 58.7833 170.646 60.9794 180.105C63.1754 189.564 72.624 195.453 82.0834 193.256Z" fill="#263238" stroke="#263238" stroke-width="0.657072" stroke-miterlimit="10"/>
<path d="M78.1259 163.427C75.6156 163.427 73.1617 164.172 71.0747 165.567C68.9877 166.962 67.3615 168.944 66.4017 171.264C65.442 173.584 65.1919 176.136 65.6831 178.598C66.1742 181.059 67.3846 183.32 69.161 185.094C70.9375 186.867 73.2001 188.074 75.6626 188.562C78.1252 189.049 80.6769 188.795 82.995 187.832C85.3131 186.868 87.2934 185.239 88.6852 183.15C90.077 181.061 90.8178 178.606 90.8139 176.095C90.807 172.734 89.4673 169.513 87.0888 167.138C84.7103 164.763 81.487 163.429 78.1259 163.427ZM86.6678 173.572L79.2757 174.959L81.3718 167.829C82.6291 168.325 83.7576 169.099 84.6726 170.094C85.5876 171.089 86.2653 172.278 86.6547 173.572H86.6678ZM78.7829 175.478V176.752H77.5148V175.478H78.7829ZM75.6093 167.593L76.9957 174.985L69.8599 172.882C70.3492 171.627 71.1166 170.499 72.1044 169.583C73.0922 168.667 74.2748 167.986 75.5633 167.593H75.6093ZM69.6233 178.658L77.0154 177.271L74.9062 184.401C73.643 183.911 72.5084 183.139 71.5894 182.144C70.6703 181.148 69.9911 179.956 69.6036 178.658H69.6233ZM80.6884 184.637L79.302 177.252L86.4181 179.381C85.92 180.635 85.1438 181.759 84.1479 182.67C83.1519 183.581 81.9623 184.253 80.6687 184.637H80.6884Z" fill="white" stroke="#263238" stroke-width="0.657072" stroke-miterlimit="10"/>
<path d="M82.0617 176.095C82.0617 175.316 81.8305 174.553 81.3973 173.905C80.9641 173.257 80.3484 172.751 79.628 172.453C78.9076 172.155 78.1149 172.076 77.3502 172.229C76.5854 172.381 75.883 172.756 75.3316 173.308C74.7802 173.859 74.4048 174.561 74.2526 175.326C74.1005 176.091 74.1786 176.884 74.477 177.604C74.7754 178.324 75.2807 178.94 75.929 179.373C76.5773 179.807 77.3396 180.038 78.1193 180.038C79.1649 180.038 80.1677 179.622 80.907 178.883C81.6464 178.144 82.0617 177.141 82.0617 176.095Z" fill="white" stroke="#263238" stroke-width="0.657072" stroke-miterlimit="10"/>
<path d="M214.294 188.55C221.161 181.683 221.161 170.55 214.294 163.683C207.427 156.817 196.294 156.817 189.428 163.683C182.561 170.55 182.561 181.683 189.428 188.55C196.294 195.416 207.427 195.416 214.294 188.55Z" fill="#263238" stroke="#263238" stroke-width="0.657072" stroke-miterlimit="10"/>
<path d="M201.859 163.427C199.349 163.427 196.895 164.172 194.808 165.567C192.721 166.962 191.095 168.944 190.135 171.264C189.175 173.584 188.925 176.136 189.416 178.598C189.907 181.059 191.118 183.32 192.894 185.094C194.671 186.867 196.933 188.074 199.396 188.562C201.858 189.049 204.41 188.795 206.728 187.832C209.046 186.868 211.027 185.239 212.418 183.15C213.81 181.061 214.551 178.606 214.547 176.095C214.54 172.734 213.201 169.513 210.822 167.138C208.443 164.763 205.22 163.429 201.859 163.427ZM210.401 173.572L203.016 174.959L205.112 167.829C206.367 168.326 207.494 169.1 208.407 170.095C209.319 171.09 209.995 172.279 210.381 173.572H210.401ZM202.516 175.478V176.752H201.241V175.478H202.516ZM199.336 167.593L200.722 174.985L193.593 172.882C194.084 171.624 194.854 170.494 195.845 169.578C196.837 168.662 198.024 167.983 199.316 167.593H199.336ZM193.357 178.658L200.749 177.271L198.646 184.401C197.382 183.912 196.246 183.14 195.326 182.144C194.406 181.149 193.725 179.956 193.337 178.658H193.357ZM204.422 184.637L203.035 177.252L210.145 179.381C209.648 180.635 208.873 181.759 207.878 182.67C206.884 183.58 205.695 184.253 204.402 184.637H204.422Z" fill="white" stroke="#263238" stroke-width="0.657072" stroke-miterlimit="10"/>
<path d="M205.795 176.095C205.795 175.316 205.564 174.553 205.131 173.905C204.697 173.257 204.082 172.751 203.361 172.453C202.641 172.155 201.848 172.076 201.083 172.229C200.319 172.381 199.616 172.756 199.065 173.308C198.513 173.859 198.138 174.561 197.986 175.326C197.834 176.091 197.912 176.884 198.21 177.604C198.509 178.324 199.014 178.94 199.662 179.373C200.311 179.807 201.073 180.038 201.853 180.038C202.898 180.038 203.901 179.622 204.64 178.883C205.38 178.144 205.795 177.141 205.795 176.095Z" fill="white" stroke="#263238" stroke-width="0.657072" stroke-miterlimit="10"/>
<path d="M239.831 158.177C239.831 158.177 226.742 157.52 226.158 158.177C225.573 158.834 230.534 164.091 232.288 165.267C233.674 166.193 240.206 166.016 242.847 165.924C242.315 163.098 241.454 160.28 239.831 158.177Z" fill="white" stroke="#263238" stroke-width="0.657072" stroke-miterlimit="10"/>
<path d="M125.264 128.011C124.403 127.952 123.595 127.912 122.807 127.886L120.606 144.313H126.44L125.264 128.011Z" fill="#263238" stroke="#263238" stroke-width="0.657072" stroke-miterlimit="10"/>
<path d="M4.90047 193.238C14.3576 191.032 20.2358 181.578 18.0298 172.12C15.8239 162.663 6.36909 156.785 -3.08799 158.991C-12.5451 161.197 -18.4233 170.652 -16.2173 180.109C-14.0114 189.566 -4.55661 195.444 4.90047 193.238Z" fill="#263238" stroke="#263238" stroke-width="0.657072" stroke-miterlimit="10"/>
<path d="M-10.9539 142.795C-10.9539 142.795 -15.6191 139.877 -36.9213 132.873C-58.2236 125.869 -71.9433 123.53 -92.9499 124.121C-113.956 124.712 -142.27 132.584 -147.52 134.634C-152.77 136.684 -155.109 137.262 -153.939 138.714C-152.77 140.167 -146.357 145.43 -147.231 147.762C-148.104 150.095 -162.389 162.954 -163.283 164.971C-164.176 166.988 -160.359 174.019 -159.781 175.773C-159.202 177.528 -155.983 178.106 -153.361 178.402C-150.739 178.697 36.0334 178.402 36.0334 178.402C36.0334 178.402 38.6616 175.195 38.0768 171.108C37.492 167.021 36.8678 161.633 34.233 158.183C32.104 155.384 29.9029 152.434 24.3769 151.849C20.8747 151.475 -10.0734 143.091 -10.9539 142.795Z" fill="#80F17E"/>
<mask id="mask4_110_5755" style="mask-type:luminance" maskUnits="userSpaceOnUse" x="-164" y="124" width="203" height="55">
<path d="M-10.9539 142.795C-10.9539 142.795 -15.6191 139.877 -36.9213 132.873C-58.2236 125.869 -71.9433 123.53 -92.9499 124.121C-113.956 124.712 -142.27 132.584 -147.52 134.634C-152.77 136.684 -155.109 137.262 -153.939 138.714C-152.77 140.167 -146.357 145.43 -147.231 147.762C-148.104 150.095 -162.389 162.954 -163.283 164.971C-164.176 166.988 -160.359 174.019 -159.781 175.773C-159.202 177.528 -155.983 178.106 -153.361 178.402C-150.739 178.697 36.0334 178.402 36.0334 178.402C36.0334 178.402 38.6616 175.195 38.0768 171.108C37.492 167.021 36.8678 161.633 34.233 158.183C32.104 155.384 29.9029 152.434 24.3769 151.849C20.8747 151.475 -10.0734 143.091 -10.9539 142.795Z" fill="white"/>
</mask>
<g mask="url(#mask4_110_5755)">
<path d="M-10.9539 142.795C-10.9539 142.795 -15.6191 139.877 -36.9213 132.873C-58.2236 125.869 -71.9433 123.53 -92.9499 124.121C-113.956 124.712 -142.27 132.584 -147.52 134.634C-152.77 136.684 -155.109 137.262 -153.939 138.714C-152.77 140.167 -146.357 145.43 -147.231 147.762C-148.104 150.095 -162.389 162.954 -163.283 164.971C-164.176 166.988 -160.359 174.019 -159.781 175.773C-159.202 177.528 -155.983 178.106 -153.361 178.402C-150.739 178.697 36.0334 178.402 36.0334 178.402C36.0334 178.402 38.6616 175.195 38.0768 171.108C37.492 167.021 36.8678 161.633 34.233 158.183C32.104 155.384 29.9029 152.434 24.3769 151.849C20.8747 151.475 -10.0734 143.091 -10.9539 142.795Z" fill="#80F17E"/>
<mask id="mask5_110_5755" style="mask-type:luminance" maskUnits="userSpaceOnUse" x="-164" y="124" width="203" height="55">
<path d="M-10.9539 142.795C-10.9539 142.795 -15.6191 139.877 -36.9213 132.873C-58.2236 125.869 -71.9433 123.53 -92.9499 124.121C-113.956 124.712 -142.27 132.584 -147.52 134.634C-152.77 136.684 -155.109 137.262 -153.939 138.714C-152.77 140.167 -146.357 145.43 -147.231 147.762C-148.104 150.095 -162.389 162.954 -163.283 164.971C-164.176 166.988 -160.359 174.019 -159.781 175.773C-159.202 177.528 -155.983 178.106 -153.361 178.402C-150.739 178.697 36.0334 178.402 36.0334 178.402C36.0334 178.402 38.6616 175.195 38.0768 171.108C37.492 167.021 36.8678 161.633 34.233 158.183C32.104 155.384 29.9029 152.434 24.3769 151.849C20.8747 151.475 -10.0734 143.091 -10.9539 142.795Z" fill="white"/>
</mask>
<g mask="url(#mask5_110_5755)">
<path opacity="0.15" d="M-10.9539 142.795C-10.9539 142.795 -15.6191 139.877 -36.9213 132.873C-58.2236 125.869 -71.9433 123.53 -92.9499 124.121C-113.956 124.712 -142.27 132.584 -147.52 134.634C-152.77 136.684 -155.109 137.262 -153.939 138.714C-152.77 140.167 -146.357 145.43 -147.231 147.762C-148.104 150.095 -162.389 162.954 -163.283 164.971C-164.176 166.988 -160.359 174.019 -159.781 175.773C-159.202 177.528 -155.983 178.106 -153.361 178.402C-150.739 178.697 36.0334 178.402 36.0334 178.402C36.0334 178.402 38.6616 175.195 38.0768 171.108C37.492 167.021 36.8678 161.633 34.233 158.183C32.104 155.384 29.9029 152.434 24.3769 151.849C20.8747 151.475 -10.0734 143.091 -10.9539 142.795Z" fill="black"/>
</g>
</g>
<path d="M-10.9539 142.795C-10.9539 142.795 -15.6191 139.877 -36.9213 132.873C-58.2236 125.869 -71.9433 123.53 -92.9499 124.121C-113.956 124.712 -142.27 132.584 -147.52 134.634C-152.77 136.684 -155.109 137.262 -153.939 138.714C-152.77 140.167 -146.357 145.43 -147.231 147.762C-148.104 150.095 -162.389 162.954 -163.283 164.971C-164.176 166.988 -160.359 174.019 -159.781 175.773C-159.202 177.528 -155.983 178.106 -153.361 178.402C-150.739 178.697 36.0334 178.402 36.0334 178.402C36.0334 178.402 38.6616 175.195 38.0768 171.108C37.492 167.021 36.8678 161.633 34.233 158.183C32.104 155.384 29.9029 152.434 24.3769 151.849C20.8747 151.475 -10.0734 143.091 -10.9539 142.795Z" stroke="#263238" stroke-width="0.657072" stroke-miterlimit="10"/>
<path d="M36.0333 163.223H24.942V166.141H36.0333V163.223Z" fill="#263238" stroke="#263238" stroke-width="0.657072" stroke-miterlimit="10"/>
<path d="M19.6196 158.177H21.3872C22.5178 158.175 23.623 158.512 24.5601 159.144C25.4972 159.777 26.223 160.676 26.6437 161.725L28.4244 166.141H22.6422L19.6196 158.177Z" fill="white" stroke="#263238" stroke-width="0.657072" stroke-miterlimit="10"/>
<path d="M35.8953 161.16C35.8296 161.344 35.7704 161.528 35.7179 161.725L34.5286 166.141H37.3014C36.9949 164.439 36.5239 162.771 35.8953 161.16Z" fill="white" stroke="#263238" stroke-width="0.657072" stroke-miterlimit="10"/>
<path d="M-25.5409 142.795C-25.5409 142.795 -30.2127 139.877 -51.5149 132.873C-72.8172 125.869 -86.5303 123.53 -107.543 124.121C-128.557 124.712 -156.863 132.584 -162.08 134.634C-167.298 136.684 -169.67 137.262 -168.5 138.714C-167.33 140.167 -160.911 145.43 -161.791 147.762C-162.672 150.095 -176.996 162.954 -177.87 164.971C-178.744 166.988 -174.952 174.019 -174.368 175.773C-173.783 177.528 -170.576 178.106 -167.948 178.402C-165.32 178.697 21.4398 178.402 21.4398 178.402C21.4398 178.402 24.0681 175.195 23.4833 171.108C22.8985 167.021 22.248 161.64 19.6197 158.177C17.4908 155.378 15.283 152.428 9.76361 151.843C6.28769 151.475 -24.667 143.091 -25.5409 142.795Z" fill="#80F17E"/>
<mask id="mask6_110_5755" style="mask-type:luminance" maskUnits="userSpaceOnUse" x="-178" y="124" width="202" height="55">
<path d="M-25.5409 142.795C-25.5409 142.795 -30.2127 139.877 -51.5149 132.873C-72.8172 125.869 -86.5303 123.53 -107.543 124.121C-128.557 124.712 -156.863 132.584 -162.08 134.634C-167.298 136.684 -169.67 137.262 -168.5 138.714C-167.33 140.167 -160.911 145.43 -161.791 147.762C-162.672 150.095 -176.996 162.954 -177.87 164.971C-178.744 166.988 -174.952 174.019 -174.368 175.773C-173.783 177.528 -170.576 178.106 -167.948 178.402C-165.32 178.697 21.4398 178.402 21.4398 178.402C21.4398 178.402 24.0681 175.195 23.4833 171.108C22.8985 167.021 22.248 161.64 19.6197 158.177C17.4908 155.378 15.283 152.428 9.76361 151.843C6.28769 151.475 -24.667 143.091 -25.5409 142.795Z" fill="white"/>
</mask>
<g mask="url(#mask6_110_5755)">
<path opacity="0.15" d="M19.6196 158.177C17.4907 155.378 15.283 152.428 9.76357 151.843C8.84366 151.744 5.99855 151.087 2.29924 150.167C-15.3366 149.99 -25.1598 157.119 -51.5084 159.537C-85.8207 162.678 -109.561 154.103 -138.156 150.667C-150.082 149.241 -159.708 150.995 -166.89 153.518C-171.391 158.065 -177.325 163.683 -177.876 164.971C-178.75 167.015 -174.959 174.019 -174.374 175.773C-173.789 177.528 -170.583 178.106 -167.955 178.402C-165.326 178.697 21.4332 178.402 21.4332 178.402C21.4332 178.402 24.0614 175.195 23.4767 171.108C22.8919 167.021 22.2479 161.64 19.6196 158.177Z" fill="black"/>
</g>
<path d="M-25.5409 142.795C-25.5409 142.795 -30.2127 139.877 -51.5149 132.873C-72.8172 125.869 -86.5303 123.53 -107.543 124.121C-128.557 124.712 -156.863 132.584 -162.08 134.634C-167.298 136.684 -169.67 137.262 -168.5 138.714C-167.33 140.167 -160.911 145.43 -161.791 147.762C-162.672 150.095 -176.996 162.954 -177.87 164.971C-178.744 166.988 -174.952 174.019 -174.368 175.773C-173.783 177.528 -170.576 178.106 -167.948 178.402C-165.32 178.697 21.4398 178.402 21.4398 178.402C21.4398 178.402 24.0681 175.195 23.4833 171.108C22.8985 167.021 22.248 161.64 19.6197 158.177C17.4908 155.378 15.283 152.428 9.76361 151.843C6.2877 151.475 -24.667 143.091 -25.5409 142.795Z" stroke="#263238" stroke-width="0.657072" stroke-miterlimit="10"/>
<path d="M-5.91747 188.55C0.949212 181.683 0.949212 170.55 -5.91747 163.683C-12.7842 156.817 -23.9173 156.817 -30.7839 163.683C-37.6506 170.55 -37.6506 181.683 -30.7839 188.55C-23.9172 195.416 -12.7842 195.416 -5.91747 188.55Z" fill="#263238" stroke="#263238" stroke-width="0.657072" stroke-miterlimit="10"/>
<path d="M19.6197 158.177C19.6197 158.177 6.53079 157.52 5.946 158.177C5.3612 158.834 10.3221 164.091 12.0765 165.267C13.4629 166.193 19.9942 166.016 22.6356 165.924C22.1034 163.098 21.2426 160.28 19.6197 158.177Z" fill="white" stroke="#263238" stroke-width="0.657072" stroke-miterlimit="10"/>
<path d="M330.193 188.55C337.059 181.683 337.059 170.55 330.193 163.684C323.326 156.817 312.193 156.817 305.326 163.684C298.459 170.55 298.459 181.683 305.326 188.55C312.193 195.417 323.326 195.417 330.193 188.55Z" fill="#263238" stroke="#263238" stroke-width="0.657072" stroke-miterlimit="10"/>
<path d="M429.046 142.795C429.046 142.795 424.381 139.877 403.079 132.873C381.776 125.869 368.057 123.53 347.05 124.121C326.044 124.712 297.73 132.584 292.48 134.634C287.23 136.684 284.891 137.262 286.061 138.714C287.23 140.167 293.643 145.43 292.769 147.762C291.896 150.095 277.611 162.954 276.717 164.971C275.824 166.988 279.641 174.019 280.219 175.773C280.798 177.528 284.017 178.106 286.639 178.402C289.261 178.697 476.033 178.402 476.033 178.402C476.033 178.402 478.662 175.195 478.077 171.108C477.492 167.021 476.868 161.633 474.233 158.183C472.104 155.384 469.903 152.434 464.377 151.849C460.875 151.475 429.927 143.091 429.046 142.795Z" fill="#80F17E"/>
<mask id="mask7_110_5755" style="mask-type:luminance" maskUnits="userSpaceOnUse" x="276" y="124" width="203" height="55">
<path d="M429.046 142.795C429.046 142.795 424.381 139.877 403.079 132.873C381.776 125.869 368.057 123.53 347.05 124.121C326.044 124.712 297.73 132.584 292.48 134.634C287.23 136.684 284.891 137.262 286.061 138.714C287.23 140.167 293.643 145.43 292.769 147.762C291.896 150.095 277.611 162.954 276.717 164.971C275.824 166.988 279.641 174.019 280.219 175.773C280.798 177.528 284.017 178.106 286.639 178.402C289.261 178.697 476.033 178.402 476.033 178.402C476.033 178.402 478.662 175.195 478.077 171.108C477.492 167.021 476.868 161.633 474.233 158.183C472.104 155.384 469.903 152.434 464.377 151.849C460.875 151.475 429.927 143.091 429.046 142.795Z" fill="white"/>
</mask>
<g mask="url(#mask7_110_5755)">
<path d="M429.046 142.795C429.046 142.795 424.381 139.877 403.079 132.873C381.776 125.869 368.057 123.53 347.05 124.121C326.044 124.712 297.73 132.584 292.48 134.634C287.23 136.684 284.891 137.262 286.061 138.714C287.23 140.167 293.643 145.43 292.769 147.762C291.896 150.095 277.611 162.954 276.717 164.971C275.824 166.988 279.641 174.019 280.219 175.773C280.798 177.528 284.017 178.106 286.639 178.402C289.261 178.697 476.033 178.402 476.033 178.402C476.033 178.402 478.662 175.195 478.077 171.108C477.492 167.021 476.868 161.633 474.233 158.183C472.104 155.384 469.903 152.434 464.377 151.849C460.875 151.475 429.927 143.091 429.046 142.795Z" fill="#80F17E"/>
<mask id="mask8_110_5755" style="mask-type:luminance" maskUnits="userSpaceOnUse" x="276" y="124" width="203" height="55">
<path d="M429.046 142.795C429.046 142.795 424.381 139.877 403.079 132.873C381.776 125.869 368.057 123.53 347.05 124.121C326.044 124.712 297.73 132.584 292.48 134.634C287.23 136.684 284.891 137.262 286.061 138.714C287.23 140.167 293.643 145.43 292.769 147.762C291.896 150.095 277.611 162.954 276.717 164.971C275.824 166.988 279.641 174.019 280.219 175.773C280.798 177.528 284.017 178.106 286.639 178.402C289.261 178.697 476.033 178.402 476.033 178.402C476.033 178.402 478.662 175.195 478.077 171.108C477.492 167.021 476.868 161.633 474.233 158.183C472.104 155.384 469.903 152.434 464.377 151.849C460.875 151.475 429.927 143.091 429.046 142.795Z" fill="white"/>
</mask>
<g mask="url(#mask8_110_5755)">
<path opacity="0.15" d="M429.046 142.795C429.046 142.795 424.381 139.877 403.079 132.873C381.776 125.869 368.057 123.53 347.05 124.121C326.044 124.712 297.73 132.584 292.48 134.634C287.23 136.684 284.891 137.262 286.061 138.714C287.23 140.167 293.643 145.43 292.769 147.762C291.896 150.095 277.611 162.954 276.717 164.971C275.824 166.988 279.641 174.019 280.219 175.773C280.798 177.528 284.017 178.106 286.639 178.402C289.261 178.697 476.033 178.402 476.033 178.402C476.033 178.402 478.662 175.195 478.077 171.108C477.492 167.021 476.868 161.633 474.233 158.183C472.104 155.384 469.903 152.434 464.377 151.849C460.875 151.475 429.927 143.091 429.046 142.795Z" fill="black"/>
</g>
</g>
<path d="M429.046 142.795C429.046 142.795 424.381 139.877 403.079 132.873C381.776 125.869 368.057 123.53 347.05 124.121C326.044 124.712 297.73 132.584 292.48 134.634C287.23 136.684 284.891 137.262 286.061 138.714C287.23 140.167 293.643 145.43 292.769 147.762C291.896 150.095 277.611 162.954 276.717 164.971C275.824 166.988 279.641 174.019 280.219 175.773C280.798 177.528 284.017 178.106 286.639 178.402C289.261 178.697 476.033 178.402 476.033 178.402C476.033 178.402 478.662 175.195 478.077 171.108C477.492 167.021 476.868 161.633 474.233 158.183C472.104 155.384 469.903 152.434 464.377 151.849C460.875 151.475 429.927 143.091 429.046 142.795Z" stroke="#263238" stroke-width="0.657072" stroke-miterlimit="10"/>
<path d="M271.763 138.117V157.829C271.763 157.829 283.761 147.973 282.276 145.167C280.791 142.361 271.763 138.117 271.763 138.117Z" fill="#8F8F8F" stroke="#263238" stroke-width="0.657072" stroke-miterlimit="10"/>
<path d="M414.459 142.795C414.459 142.795 409.787 139.877 388.485 132.873C367.183 125.869 353.47 123.53 332.457 124.121C311.443 124.712 283.137 132.584 277.92 134.634C272.702 136.684 270.33 137.262 271.5 138.714C272.67 140.167 279.089 145.43 278.209 147.762C277.328 150.095 263.004 162.954 262.13 164.971C261.256 166.988 265.048 174.019 265.632 175.773C266.217 177.528 269.424 178.106 272.052 178.402C274.68 178.697 461.44 178.402 461.44 178.402C461.44 178.402 464.068 175.195 463.483 171.108C462.898 167.021 462.248 161.64 459.62 158.177C457.491 155.378 455.283 152.428 449.764 151.843C446.288 151.475 415.333 143.091 414.459 142.795Z" fill="#80F17E"/>
<mask id="mask9_110_5755" style="mask-type:luminance" maskUnits="userSpaceOnUse" x="262" y="124" width="202" height="55">
<path d="M414.459 142.795C414.459 142.795 409.787 139.877 388.485 132.873C367.183 125.869 353.47 123.53 332.457 124.121C311.443 124.712 283.137 132.584 277.92 134.634C272.702 136.684 270.33 137.262 271.5 138.714C272.67 140.167 279.089 145.43 278.209 147.762C277.328 150.095 263.004 162.954 262.13 164.971C261.256 166.988 265.048 174.019 265.632 175.773C266.217 177.528 269.424 178.106 272.052 178.402C274.68 178.697 461.44 178.402 461.44 178.402C461.44 178.402 464.068 175.195 463.483 171.108C462.898 167.021 462.248 161.64 459.62 158.177C457.491 155.378 455.283 152.428 449.764 151.843C446.288 151.475 415.333 143.091 414.459 142.795Z" fill="white"/>
</mask>
<g mask="url(#mask9_110_5755)">
<path opacity="0.15" d="M459.62 158.177C457.491 155.378 455.283 152.428 449.764 151.843C448.844 151.744 445.999 151.087 442.299 150.167C424.663 149.99 414.84 157.119 388.492 159.537C354.179 162.678 330.439 154.103 301.844 150.667C289.918 149.241 280.292 150.995 273.11 153.518C268.609 158.065 262.676 163.683 262.124 164.971C261.25 167.015 265.041 174.019 265.626 175.773C266.211 177.528 269.417 178.106 272.045 178.402C274.674 178.697 461.433 178.402 461.433 178.402C461.433 178.402 464.061 175.195 463.477 171.108C462.892 167.021 462.248 161.64 459.62 158.177Z" fill="black"/>
</g>
<path d="M414.459 142.795C414.459 142.795 409.787 139.877 388.485 132.873C367.183 125.869 353.47 123.53 332.457 124.121C311.443 124.712 283.137 132.584 277.92 134.634C272.702 136.684 270.33 137.262 271.5 138.714C272.67 140.167 279.089 145.43 278.209 147.762C277.328 150.095 263.004 162.954 262.13 164.971C261.256 166.988 265.048 174.019 265.632 175.773C266.217 177.528 269.424 178.106 272.052 178.402C274.68 178.697 461.44 178.402 461.44 178.402C461.44 178.402 464.068 175.195 463.483 171.108C462.898 167.021 462.248 161.64 459.62 158.177C457.491 155.378 455.283 152.428 449.764 151.843C446.288 151.475 415.333 143.091 414.459 142.795Z" stroke="#263238" stroke-width="0.657072" stroke-miterlimit="10"/>
<path d="M304.097 132.032L315.773 144.365H401.6V141.566C401.6 141.566 384.01 134.66 365.461 131.053C346.912 127.446 342.28 127.768 333.922 127.925C325.564 128.083 304.097 132.032 304.097 132.032Z" fill="#8F8F8F"/>
<mask id="mask10_110_5755" style="mask-type:luminance" maskUnits="userSpaceOnUse" x="304" y="127" width="98" height="18">
<path d="M304.097 132.032L315.773 144.365H401.6V141.566C401.6 141.566 384.01 134.66 365.461 131.053C346.912 127.446 342.28 127.768 333.922 127.925C325.564 128.083 304.097 132.032 304.097 132.032Z" fill="white"/>
</mask>
<g mask="url(#mask10_110_5755)">
<path d="M345.946 138.971C335.021 136.476 323.592 137.419 313.224 141.671L315.774 144.365H401.6V141.566C401.6 141.566 398.755 140.449 394.142 138.879C384.49 142.585 365.343 143.242 345.946 138.971Z" fill="#263238" stroke="#263238" stroke-width="0.657072" stroke-miterlimit="10"/>
</g>
<path d="M304.097 132.032L315.773 144.365H401.6V141.566C401.6 141.566 384.01 134.66 365.461 131.053C346.912 127.446 342.28 127.768 333.922 127.925C325.564 128.083 304.097 132.032 304.097 132.032Z" stroke="#263238" stroke-width="2.62829" stroke-miterlimit="10"/>
<path d="M301.872 193.256C311.331 191.06 317.219 181.612 315.023 172.152C312.827 162.693 303.379 156.805 293.919 159.001C284.46 161.197 278.572 170.646 280.768 180.105C282.964 189.564 292.412 195.453 301.872 193.256Z" fill="#263238" stroke="#263238" stroke-width="0.657072" stroke-miterlimit="10"/>
<path d="M297.914 163.427C295.404 163.427 292.95 164.172 290.863 165.567C288.776 166.962 287.15 168.944 286.19 171.264C285.23 173.584 284.98 176.136 285.471 178.598C285.963 181.059 287.173 183.32 288.949 185.094C290.726 186.867 292.988 188.074 295.451 188.562C297.914 189.049 300.465 188.795 302.783 187.832C305.102 186.868 307.082 185.239 308.474 183.15C309.865 181.061 310.606 178.606 310.602 176.095C310.595 172.734 309.256 169.513 306.877 167.138C304.499 164.763 301.275 163.429 297.914 163.427ZM306.456 173.572L299.064 174.959L301.16 167.829C302.417 168.325 303.546 169.099 304.461 170.094C305.376 171.089 306.054 172.278 306.443 173.572H306.456ZM298.571 175.478V176.752H297.303V175.478H298.571ZM295.398 167.593L296.784 174.985L289.648 172.882C290.138 171.627 290.905 170.499 291.893 169.583C292.881 168.667 294.063 167.986 295.352 167.593H295.398ZM289.412 178.658L296.804 177.271L294.695 184.401C293.431 183.911 292.297 183.139 291.378 182.144C290.459 181.148 289.779 179.956 289.392 178.658H289.412ZM300.477 184.637L299.09 177.252L306.206 179.381C305.708 180.635 304.932 181.759 303.936 182.67C302.94 183.581 301.751 184.253 300.457 184.637H300.477Z" fill="white" stroke="#263238" stroke-width="0.657072" stroke-miterlimit="10"/>
<path d="M301.85 176.095C301.85 175.316 301.619 174.553 301.186 173.905C300.753 173.257 300.137 172.751 299.416 172.453C298.696 172.155 297.903 172.076 297.139 172.229C296.374 172.381 295.671 172.756 295.12 173.308C294.569 173.859 294.193 174.561 294.041 175.326C293.889 176.091 293.967 176.884 294.265 177.604C294.564 178.324 295.069 178.94 295.717 179.373C296.366 179.807 297.128 180.038 297.908 180.038C298.953 180.038 299.956 179.622 300.695 178.883C301.435 178.144 301.85 177.141 301.85 176.095Z" fill="white" stroke="#263238" stroke-width="0.657072" stroke-miterlimit="10"/>
<path d="M146.987 188.514C145.943 189.186 144.844 189.768 143.702 190.255C142.295 190.794 141.362 191.123 141.632 191.996C141.901 192.87 143.432 193.6 145.377 194C147.322 194.401 150.791 193.534 151.731 193.265C152.671 192.995 152.802 191.458 152.132 190.59C151.462 189.723 148.124 188.047 146.987 188.514Z" fill="#263238" stroke="#263238" stroke-width="0.657072" stroke-linecap="round" stroke-linejoin="round"/>
<path d="M147.591 193.534C145.982 193.534 143.307 192.929 143.307 192.332C143.307 191.734 143.964 191.26 143.176 191.057C142.387 190.853 141.862 191.95 141.73 192.207C142.164 192.982 143.603 193.633 145.384 194C147.355 194.401 150.798 193.534 151.738 193.265C151.906 193.207 152.058 193.11 152.181 192.98C152.303 192.851 152.393 192.694 152.441 192.522C150.885 193.105 149.25 193.447 147.591 193.534Z" fill="white" stroke="#263238" stroke-width="0.657072" stroke-linecap="round" stroke-linejoin="round"/>
<path d="M155.213 145.568L155.614 146.882C155.365 147.083 155.163 147.337 155.025 147.626C154.886 147.914 154.813 148.23 154.813 148.551C154.961 149.289 155.363 149.951 155.949 150.423" stroke="#263238" stroke-width="0.657072" stroke-linecap="round" stroke-linejoin="round"/>
<path d="M151.126 142.959C150.72 144.051 150.386 145.168 150.128 146.304V148.111C150.128 148.446 148.814 155.535 148.518 159.885C148.222 164.235 148.051 169.314 147.716 170.458C147.381 171.601 147.782 172.192 147.848 173.802C147.913 175.412 147.986 183.5 147.986 183.5C147.986 183.5 147.651 185.643 147.585 186.175C147.519 186.707 146.849 186.911 146.645 187.246C146.426 187.788 146.248 188.346 146.113 188.915C147.154 189.197 148.1 189.753 148.853 190.525C149.793 191.661 152.329 193.067 152.664 192.995C152.999 192.923 153.203 191.996 153.735 190.722C154.267 189.447 154.208 188.783 154.471 188.251C154.734 187.719 155.128 186.845 155.746 182.83C156.363 178.816 156.882 172.862 157.218 172.061C157.553 171.259 159.287 168.25 159.287 168.25C160.799 165.336 162.097 162.317 163.171 159.215C164.151 156.338 164.89 153.384 165.378 150.384C165.691 148.322 165.89 146.245 165.976 144.162V143.504C165.976 143.504 163.506 144.438 159.09 143.971C154.675 143.504 151.126 142.959 151.126 142.959Z" fill="white" stroke="#263238" stroke-width="0.657072" stroke-linecap="round" stroke-linejoin="round"/>
<path d="M160.365 146.842C160.365 146.842 157.356 148.446 156.889 149.247C156.422 150.049 155.818 153.466 154.478 157.678C153.137 161.889 151.935 165.102 150.798 168.651C150.078 170.682 149.608 172.794 149.398 174.939C148.991 177.567 148.084 184.506 148.084 184.506" stroke="#263238" stroke-width="0.657072" stroke-linecap="round" stroke-linejoin="round"/>
<path d="M152.441 191.793C152.441 191.793 153.912 191.26 153.912 188.251C153.912 185.242 153.374 183.1 153.912 180.222C154.451 177.344 155.785 172.659 156.587 171.259C157.388 169.86 158.328 168.046 158.328 168.046" stroke="#263238" stroke-width="0.657072" stroke-linecap="round" stroke-linejoin="round"/>
<path d="M157.559 167.041C157.559 167.041 159.898 168.651 160.365 168.046C161.086 166.765 161.691 165.421 162.172 164.031C162.776 162.494 163.039 161.758 163.039 161.758C163.039 161.758 163.696 161.692 163.775 161.101C163.854 160.51 163.979 159.36 163.979 159.36C163.258 159.338 162.541 159.25 161.837 159.097C160.569 158.827 160.096 158.893 159.833 159.498C159.622 159.906 159.442 160.33 159.294 160.766C158.893 161.837 157.323 165.451 157.29 165.983C157.257 166.515 157.158 166.64 157.559 167.041Z" fill="white" stroke="#263238" stroke-width="0.657072" stroke-linecap="round" stroke-linejoin="round"/>
<path d="M163.039 161.758C162.12 161.705 161.204 161.593 160.299 161.423C159.563 161.226 159.964 160.286 159.964 160.286" fill="#80F17E"/>
<path d="M163.039 161.758C162.12 161.705 161.204 161.593 160.299 161.423C159.563 161.226 159.964 160.286 159.964 160.286" stroke="#263238" stroke-width="0.657072" stroke-linecap="round" stroke-linejoin="round"/>
<path d="M162.106 159.084C162.106 159.084 163.847 153.466 164.077 152.322L164.347 151.186" stroke="#263238" stroke-width="0.657072" stroke-linecap="round" stroke-linejoin="round"/>
<path d="M162.638 145.298C162.638 145.298 162.172 147.644 162.638 148.912C163.175 150.011 163.982 150.957 164.984 151.659" stroke="#263238" stroke-width="0.657072" stroke-linecap="round" stroke-linejoin="round"/>
<path d="M152.94 146.304C152.94 146.304 156.422 147.309 158.492 146.573" stroke="#263238" stroke-width="0.657072" stroke-linecap="round" stroke-linejoin="round"/>
<path d="M159.294 120.014C159.294 120.014 154.747 121.151 153.38 121.42C152.014 121.69 151.311 121.69 151.107 122.288C149.646 125.021 147.944 127.618 146.021 130.048C144.484 131.723 144.352 133.333 144.819 134.194C145.285 135.055 145.824 135.469 147.828 134.93C149.119 134.539 150.264 133.77 151.113 132.722C151.113 132.722 151.587 137.742 150.916 139.746C150.246 141.75 149.977 143.36 150.443 143.688C152.473 144.807 154.749 145.405 157.067 145.43C160.746 145.561 164.951 145.226 165.608 144.556C165.835 144.373 166.014 144.137 166.129 143.869C166.243 143.601 166.29 143.309 166.266 143.018C166.266 142.552 166.003 139.411 166.804 136.934C167.606 134.457 169.879 128.103 169.945 125.691C170.011 123.28 169.078 122.951 167.271 122.215C165.464 121.479 162.586 120.211 161.922 120.073C161.048 119.996 160.17 119.977 159.294 120.014Z" fill="#263238" stroke="#263238" stroke-width="0.657072" stroke-linecap="round" stroke-linejoin="round"/>
<path d="M158.354 118.812C157.806 119.164 157.291 119.567 156.817 120.014C156.745 120.218 154.405 123.957 154.675 123.957C154.944 123.957 157.888 122.485 157.888 122.485C157.888 122.485 159.353 120.277 159.202 119.403C159.196 119.304 159.168 119.207 159.12 119.12C159.071 119.033 159.004 118.958 158.922 118.901C158.84 118.844 158.747 118.807 158.648 118.791C158.55 118.776 158.45 118.783 158.354 118.812Z" fill="white" stroke="#263238" stroke-width="0.657072" stroke-linecap="round" stroke-linejoin="round"/>
<path d="M157.789 118.069C157.859 119.549 157.747 121.032 157.454 122.485C156.988 124.292 156.653 125.494 157.323 125.698C157.993 125.902 160.201 122.616 160.799 121.683C161.152 121.146 161.422 120.559 161.6 119.942L162.073 114.725C162.073 114.725 159.393 117.616 157.789 118.069Z" fill="white" stroke="#263238" stroke-width="0.657072" stroke-linecap="round" stroke-linejoin="round"/>
<path d="M155.384 105.624C155.384 105.624 154.727 111.315 154.727 113.457C154.727 115.599 156.133 118.339 156.797 118.601C157.461 118.864 159.143 119.14 159.813 118.674C160.483 118.207 162.349 115.329 162.349 115.329C162.982 113.318 163.452 111.259 163.755 109.173C163.959 106.899 163.355 105.828 161.278 105.158C159.202 104.488 156.449 104.474 155.384 105.624Z" fill="white" stroke="#263238" stroke-width="0.657072" stroke-linecap="round" stroke-linejoin="round"/>
<path d="M156.988 110.513C156.988 110.513 156.383 113.798 156.652 113.857C157.051 113.906 157.453 113.928 157.855 113.923" stroke="#263238" stroke-width="0.657072" stroke-linecap="round" stroke-linejoin="round"/>
<path d="M156.922 115.06C156.922 115.06 158.729 115.461 159.662 114.593" stroke="#263238" stroke-width="0.657072" stroke-linecap="round" stroke-linejoin="round"/>
<path d="M159.458 110.572C159.458 110.848 159.294 111.058 159.143 111.045C158.992 111.032 158.9 110.789 158.926 110.52C158.952 110.25 159.097 110.027 159.248 110.046C159.399 110.066 159.491 110.296 159.458 110.572Z" fill="#263238"/>
<path d="M156.652 110.303C156.652 110.579 156.482 110.789 156.337 110.776C156.192 110.763 156.094 110.526 156.12 110.25C156.146 109.974 156.291 109.764 156.436 109.777C156.58 109.79 156.679 110.027 156.652 110.303Z" fill="#263238"/>
<path d="M155.384 109.304C155.477 109.181 155.595 109.081 155.731 109.01C155.867 108.939 156.017 108.898 156.17 108.892C156.324 108.886 156.477 108.914 156.618 108.973C156.759 109.033 156.885 109.124 156.988 109.238" stroke="#263238" stroke-width="0.657072" stroke-linecap="round" stroke-linejoin="round"/>
<path d="M158.256 109.173C158.256 109.173 159.531 108.167 160.227 109.238" stroke="#263238" stroke-width="0.657072" stroke-linecap="round" stroke-linejoin="round"/>
<path d="M154.313 104.691C154.309 104.746 154.309 104.801 154.313 104.856C154.418 105.197 154.605 105.506 154.859 105.758C155.112 106.009 155.423 106.193 155.765 106.295C157.237 106.899 160.713 106.163 161.916 106.564C163.118 106.965 162.573 108.101 161.85 108.502C161.127 108.903 160.983 109.107 161.318 109.573C161.653 110.04 162.454 110.513 162.185 111.045C161.916 111.577 161.784 112.116 162.251 112.182C162.717 112.248 163.052 112.248 163.256 111.985C163.46 111.722 164.794 108.837 164.794 107.168C164.794 105.499 163.992 104.757 162.119 104.021C160.247 103.285 156.363 102.819 155.227 103.489C154.988 103.6 154.78 103.767 154.621 103.977C154.462 104.186 154.356 104.432 154.313 104.691Z" fill="#263238" stroke="#263238" stroke-width="0.657072" stroke-linecap="round" stroke-linejoin="round"/>
<path d="M162.073 114.574C162.244 114.742 162.466 114.849 162.704 114.876C162.943 114.904 163.183 114.85 163.387 114.725C164.123 114.258 164.458 112.583 163.992 111.715C163.525 110.848 162.586 112.517 162.586 112.517" fill="white"/>
<path d="M162.073 114.574C162.244 114.742 162.466 114.849 162.704 114.876C162.943 114.904 163.183 114.85 163.387 114.725C164.123 114.258 164.458 112.583 163.992 111.715C163.525 110.848 162.586 112.517 162.586 112.517" stroke="#263238" stroke-width="0.657072" stroke-linecap="round" stroke-linejoin="round"/>
<path d="M159.294 120.014C159.294 120.014 159.163 125.967 159.563 125.271C159.964 124.574 163.309 120.192 163.309 120.192L162.507 117.846L159.294 120.014Z" fill="white" stroke="#263238" stroke-width="0.657072" stroke-linecap="round" stroke-linejoin="round"/>
<path d="M165.181 126.572L162.908 133.662L167.054 138.918C167.054 138.918 167.258 139.319 167.593 138.852C167.928 138.386 168.191 138.386 168.729 135.843C169.268 133.3 170.044 127.143 169.998 125.672C169.952 124.2 169.662 123.464 168.526 123.267" fill="#263238"/>
<path d="M165.181 126.572L162.908 133.662L167.054 138.918C167.054 138.918 167.258 139.319 167.593 138.852C167.928 138.386 168.191 138.386 168.729 135.843C169.268 133.3 170.044 127.143 169.998 125.672C169.952 124.2 169.662 123.464 168.526 123.267" stroke="#263238" stroke-width="0.657072" stroke-linecap="round" stroke-linejoin="round"/>
<path d="M152.473 134.798C152.473 134.798 162.842 138.741 164.248 138.813C165.654 138.885 165.983 137.946 165.385 136.185C164.787 134.424 162.973 133.438 161.442 132.972C159.681 132.56 157.845 132.583 156.094 133.037C154.543 133.458 152.473 134.266 152.473 134.798Z" fill="white" stroke="#263238" stroke-width="0.657072" stroke-linecap="round" stroke-linejoin="round"/>
<path d="M161.101 132.926C161.101 132.926 163.578 138.274 163.729 138.747C163.88 139.22 166.41 139.549 167.212 139.483C168.013 139.418 167.678 138.209 166.876 136.474C166.075 134.739 164.8 133.188 163.867 132.926C162.951 132.779 162.017 132.779 161.101 132.926Z" fill="white" stroke="#263238" stroke-width="0.657072" stroke-linecap="round" stroke-linejoin="round"/>
<path d="M147.256 131.053C146.39 131.122 145.535 131.301 144.713 131.585C143.774 131.986 143.577 134.798 144.056 135.804C144.536 136.809 145.995 136.802 147 136.737C147.284 136.727 147.562 136.657 147.816 136.53C148.07 136.403 148.294 136.222 148.472 136.001L149.208 131.053H147.256Z" fill="#263238" stroke="#263238" stroke-width="0.657072" stroke-linecap="round" stroke-linejoin="round"/>
<path d="M149.195 131.053C149.195 131.053 156.751 131.053 158.624 130.987C160.496 130.922 160.969 131.388 161.37 132.058C161.771 132.729 161.902 132.991 161.902 132.991C159.531 133.22 157.197 133.736 154.951 134.529C151.869 135.738 149.195 136.802 148.255 136.802C147.315 136.802 146.941 134.397 147.322 132.722C147.4 132.273 147.627 131.864 147.967 131.561C148.307 131.258 148.74 131.079 149.195 131.053Z" fill="white" stroke="#263238" stroke-width="0.657072" stroke-linecap="round" stroke-linejoin="round"/>
<path d="M147.053 130.586C147.053 130.586 150.266 130.514 150.2 131.119C150.134 131.723 149.543 136.27 149.326 136.671C149.109 137.072 147.191 137.275 146.251 137.21C145.311 137.144 145.647 134.128 146.251 132.722C146.564 132.028 146.832 131.315 147.053 130.586Z" fill="white" stroke="#263238" stroke-width="0.657072" stroke-linecap="round" stroke-linejoin="round"/>
<path d="M156.62 145.87C156.62 145.87 157.158 146.672 156.955 146.875C156.751 147.079 155.752 148.012 155.818 148.61C155.849 148.958 155.99 149.286 156.219 149.55" stroke="#263238" stroke-width="0.657072" stroke-linecap="round" stroke-linejoin="round"/>
<path d="M34.7328 193.711H303.396" stroke="white" stroke-width="0.657072" stroke-linecap="round" stroke-linejoin="round"/>
</g>
<defs>
<clipPath id="clip0_110_5755">
<rect width="328.536" height="201.064" fill="white"/>
</clipPath>
</defs>
</svg>
