<svg width="332" height="222" viewBox="0 0 332 222" fill="none" xmlns="http://www.w3.org/2000/svg">
<path d="M28.127 79.0912C27.5847 79.6914 27.1689 80.3946 26.9042 81.1589C26.6395 81.9233 26.5315 82.7331 26.5865 83.54C26.7074 85.1555 27.1981 86.7216 28.0208 88.1172C29.5258 90.8529 32.3412 93.0751 35.0414 94.6466C36.5908 91.5479 35.6346 87.6391 35.0414 85.6914C34.0809 82.5927 30.4687 77.6216 28.1447 79.0912" fill="#EBEBEB"/>
<path d="M34.1782 100.534C34.0059 99.6464 33.6019 98.8202 33.0071 98.1392C32.4124 97.4581 31.6481 96.9465 30.7918 96.6562C29.9325 96.3788 29.0266 96.275 28.1268 96.351C27.227 96.427 26.3512 96.6812 25.5506 97.0989C24.8069 97.4708 24.0721 98.0374 23.8906 98.8696C23.8321 99.2554 23.8767 99.6498 24.0197 100.013C24.1627 100.376 24.3992 100.695 24.7051 100.937C25.3255 101.416 26.0618 101.721 26.8388 101.822C29.4948 102.265 32.1021 102.229 34.1782 100.547" fill="#EBEBEB"/>
<path d="M40.8892 108.055C40.796 107.861 40.6864 107.676 40.5616 107.502L39.6143 106.032C38.7998 104.81 37.6754 103.044 35.8782 101.605C34.373 100.358 32.5621 99.536 30.6326 99.2237C30.0463 99.1377 29.4518 99.1228 28.8619 99.1795C28.7029 99.1922 28.5447 99.2143 28.3883 99.2459C28.2776 99.2459 28.2245 99.2768 28.2245 99.2857C29.0166 99.2381 29.8116 99.2707 30.5972 99.3831C32.49 99.7443 34.2599 100.581 35.7409 101.813C37.5116 103.208 38.636 104.939 39.4815 106.138C39.902 106.745 40.2429 107.236 40.4907 107.568C40.6072 107.743 40.7406 107.906 40.8892 108.055Z" fill="#E0E0E0"/>
<path d="M30.544 83.1328C30.5632 83.2248 30.5898 83.3151 30.6237 83.4028L30.8805 84.1598C31.1106 84.8193 31.4559 85.7622 31.8897 86.9264C32.775 89.2548 34.0101 92.4553 35.4665 95.9568C36.9228 99.4583 38.3128 102.597 39.3531 104.863C39.871 105.992 40.3004 106.9 40.6014 107.519C40.7475 107.811 40.867 108.05 40.9555 108.236C40.9935 108.322 41.0395 108.403 41.0928 108.48C41.0717 108.39 41.0405 108.302 40.9998 108.219C40.9157 108.028 40.8139 107.776 40.6811 107.479L39.4992 104.788C38.4987 102.513 37.1309 99.3654 35.6745 95.8639C34.2182 92.3624 32.9477 89.1752 32.0402 86.86L30.9646 84.1199C30.8406 83.8189 30.7432 83.571 30.6635 83.3807C30.6331 83.2938 30.593 83.2107 30.544 83.1328Z" fill="#E0E0E0"/>
<path d="M39.0743 100.565C38.6498 98.7056 38.675 96.7718 39.1477 94.9241C39.6204 93.0764 40.527 91.3681 41.7922 89.941C42.4385 89.2195 43.3903 88.5378 44.3022 88.8653C45.214 89.1929 45.5062 90.3306 45.5239 91.3C45.5261 93.3233 44.9296 95.302 43.8094 96.9869C42.6893 98.6718 41.0957 99.9876 39.2292 100.769" fill="#EBEBEB"/>
<path d="M42.496 92.8316C42.3395 92.9628 42.1985 93.1113 42.0755 93.2743C41.9153 93.4451 41.7674 93.6271 41.6328 93.8187C41.469 94.0445 41.2654 94.2835 41.0839 94.5846C40.8736 94.9018 40.68 95.2298 40.504 95.5673C40.294 95.9501 40.1063 96.3447 39.9418 96.7492C39.5641 97.6804 39.2938 98.6517 39.1362 99.6442C38.9942 100.638 38.9674 101.645 39.0565 102.646C39.0969 103.081 39.1634 103.515 39.2557 103.943C39.3289 104.317 39.425 104.687 39.5435 105.049C39.6323 105.35 39.7372 105.645 39.8577 105.935C39.9401 106.156 40.0377 106.372 40.1499 106.581C40.228 106.767 40.3243 106.945 40.4376 107.112C40.4863 107.112 40.0746 106.329 39.6939 105.001C39.59 104.641 39.5058 104.276 39.4416 103.907C39.3595 103.484 39.3004 103.057 39.2646 102.628C39.1869 101.643 39.218 100.653 39.3575 99.6752C39.5151 98.7019 39.7748 97.7478 40.1322 96.8289C40.3093 96.4083 40.473 96.0099 40.6678 95.6514C40.8353 95.3145 41.02 94.9865 41.2212 94.6687C41.9648 93.4912 42.558 92.8626 42.496 92.8316Z" fill="#E0E0E0"/>
<path d="M303.2 51.4998C303.2 51.4998 307.273 52.8278 303.324 61.5484C299.375 70.2689 296.556 74.6425 296.556 74.6425C296.556 74.6425 295.878 76.6566 297.56 76.8868C299.243 77.117 302.872 76.36 303.722 78.3653C304.608 80.4414 303.147 82.5086 300.115 84.4077C297.082 86.3067 290.588 90.7024 290.004 91.1008C289.42 91.4992 288.88 92.4288 290.004 92.7829C291.129 93.1371 299.42 93.5974 298.959 97.5195C298.499 101.441 289.176 105.355 288.176 105.797C287.176 106.24 286.941 106.683 287.052 107.249C287.162 107.816 289.964 107.692 292.319 107.94C294.674 108.188 297.361 108.852 296.905 111.092C296.449 113.332 291.053 118.25 277.481 120.224L271.133 120.728L267.424 115.518C260.155 103.889 260.421 96.5943 261.833 94.7971C263.245 92.9998 265.507 94.6111 267.202 96.2579C268.898 97.9046 270.637 100.109 271.133 99.8302C271.629 99.5513 271.828 99.0909 271.518 98.033C271.209 96.975 268.15 87.347 270.846 84.4608C273.541 81.5746 279.256 87.5949 280.248 88.2323C281.239 88.8698 281.598 87.8339 281.527 87.1389C281.456 86.444 280.615 78.6397 280.102 75.0984C279.588 71.5571 280.23 69.1224 282.377 68.4584C284.449 67.8033 286.228 71.0701 287.49 72.2034C288.751 73.3366 289.849 71.5172 289.849 71.5172C289.849 71.5172 291.359 66.5505 295.467 57.8919C299.575 49.2334 303.289 51.5662 303.289 51.5662" fill="#EBEBEB"/>
<path d="M270.868 122.229C273.86 115.855 278.986 104.443 283.439 94.6687C287.893 84.8946 291.93 76.0501 294.891 69.6669L298.402 62.1061L299.353 60.0522L299.597 59.5121C299.63 59.449 299.66 59.384 299.685 59.3173C299.685 59.3173 299.65 59.3749 299.588 59.4944L299.327 60.0256C299.101 60.4992 298.769 61.1854 298.34 62.0663C297.485 63.837 296.268 66.4088 294.772 69.5916C291.779 75.9616 287.72 84.7972 283.262 94.5713C278.805 104.345 273.701 115.784 270.739 122.176" fill="#E0E0E0"/>
<path d="M298.667 79.6268C298.515 79.6613 298.367 79.7102 298.225 79.7729C297.95 79.8747 297.552 80.0385 297.065 80.2421C296.091 80.6538 294.758 81.2558 293.298 81.9464L289.57 83.7171L288.437 84.2483C288.295 84.3058 288.159 84.377 288.03 84.4607C288.183 84.4323 288.332 84.3847 288.473 84.3191C288.752 84.2173 289.145 84.0535 289.632 83.8454C290.606 83.4028 291.93 82.8052 293.386 82.1146L297.127 80.3439L298.26 79.8172C298.402 79.7693 298.539 79.7054 298.667 79.6268Z" fill="#E0E0E0"/>
<path d="M287.583 84.1067C287.631 84.1067 286.511 81.2824 285.082 77.8518C283.652 74.4211 282.426 71.6544 282.399 71.6544C282.373 71.6544 283.466 74.4787 284.9 77.9138C286.334 81.3488 287.53 84.1067 287.583 84.1067Z" fill="#E0E0E0"/>
<path d="M281.421 99.4008C281.341 99.2659 281.248 99.1397 281.142 99.0245C280.929 98.7545 280.659 98.4225 280.341 98.0285C279.668 97.1875 278.738 96.0188 277.76 94.6953C276.782 93.3717 275.936 92.1499 275.33 91.2557L274.613 90.1978C274.531 90.064 274.438 89.9381 274.334 89.8215C274.387 89.9693 274.46 90.1093 274.551 90.2376C274.701 90.5032 274.927 90.875 275.215 91.331C275.79 92.2473 276.618 93.4912 277.605 94.8148C278.592 96.1383 279.531 97.2981 280.234 98.1171C280.589 98.5243 280.876 98.8519 281.084 99.0732C281.183 99.1957 281.296 99.3057 281.421 99.4008Z" fill="#E0E0E0"/>
<path d="M292.337 97.5814C292.189 97.5717 292.04 97.5806 291.894 97.608L290.721 97.7541C289.734 97.8913 288.371 98.0905 286.866 98.3207C285.361 98.5509 284.002 98.7634 283.019 98.9404L281.855 99.1529C281.711 99.1695 281.57 99.2037 281.434 99.2547C281.582 99.2645 281.731 99.2555 281.877 99.2282L283.045 99.0821C284.037 98.9449 285.4 98.7457 286.906 98.5155C288.411 98.2853 289.77 98.0728 290.752 97.8957L291.912 97.6833C292.057 97.6652 292.2 97.6311 292.337 97.5814Z" fill="#E0E0E0"/>
<path d="M288.619 111.795C288.433 111.791 288.248 111.804 288.065 111.835L286.56 112.021C285.294 112.185 283.546 112.424 281.616 112.703C279.686 112.982 277.937 113.243 276.676 113.447L275.179 113.69C274.995 113.715 274.813 113.755 274.635 113.81C274.822 113.814 275.008 113.801 275.193 113.77L276.693 113.584C277.959 113.42 279.712 113.177 281.642 112.898C283.572 112.619 285.321 112.358 286.582 112.158L288.074 111.911C288.259 111.889 288.441 111.851 288.619 111.795Z" fill="#E0E0E0"/>
<path d="M274.953 113.668C274.855 113.494 274.741 113.33 274.613 113.177C274.365 112.84 274.037 112.406 273.643 111.88C272.824 110.782 271.7 109.263 270.505 107.55C269.309 105.837 268.265 104.261 267.521 103.124L266.636 101.765C266.536 101.593 266.422 101.431 266.295 101.278C266.372 101.461 266.466 101.637 266.574 101.804C266.764 102.136 267.047 102.615 267.406 103.194C268.123 104.363 269.15 105.957 270.35 107.67C271.549 109.383 272.687 110.897 273.537 111.973C273.98 112.508 274.312 112.942 274.56 113.234C274.677 113.391 274.808 113.536 274.953 113.668Z" fill="#E0E0E0"/>
<path d="M171.547 103.872C182.888 98.1658 187.155 85.1425 188.483 73.0754C188.704 71.0613 189.231 68.9808 188.532 67.0862C187.832 65.1915 185.783 63.6643 183.866 64.2531C182.277 64.7356 181.378 66.3735 180.325 67.6838C178.937 69.4343 177.081 70.7558 174.973 71.4951C173.6 71.9732 171.963 72.1503 170.803 71.2738C169.214 70.0697 169.355 67.6528 169.656 65.6608C170.217 61.9453 170.778 58.2328 171.338 54.5233C171.639 52.5313 171.936 50.4994 171.591 48.5163C171.245 46.5331 170.13 44.581 168.311 43.7753C166.491 42.9697 163.986 43.7222 163.304 45.6168C163.021 46.4048 163.065 47.2724 162.888 48.0913C162.711 48.9103 162.197 49.769 161.378 49.8886C160.56 50.0081 159.829 49.3264 159.32 48.6535C157.549 46.3472 156.531 43.5496 155.597 40.7829C154.663 38.0162 153.782 35.192 152.233 32.7264C150.684 30.2607 148.351 28.1492 145.522 27.5737C142.693 26.9983 139.391 28.3218 138.267 31.0221C137.142 33.7224 138.364 36.8166 139.821 39.3487C141.971 43.1095 144.655 46.5389 147.789 49.53C148.355 50.0656 148.966 50.6455 149.117 51.4202C149.356 52.8102 147.908 53.9478 146.531 54.1957C144.973 54.4746 143.384 54.0895 141.804 54.0452C140.223 54.0009 138.439 54.448 137.638 55.8159C136.527 57.737 137.922 60.1186 139.409 61.7609C142.361 65.0479 145.858 67.8018 149.745 69.9015C151.135 70.6496 152.609 71.3446 153.645 72.5575C154.681 73.7704 155.132 75.6562 154.216 76.9532C153.3 78.2502 151.401 78.4406 149.905 77.9315C148.408 77.4224 147.156 76.391 145.77 75.6296C143.18 74.1998 139.617 73.859 137.519 75.9882C136.142 77.3782 135.726 79.5295 136.04 81.4728C136.355 83.4161 137.306 85.1779 138.351 86.8335C141.999 92.6192 147.018 97.5815 153.056 100.702C159.094 103.823 164.893 105.271 171.542 103.876" fill="#F5F5F5"/>
<path d="M169.541 95.8949C168.491 89.0661 167.052 82.3029 165.23 75.6385L163.822 70.384C163.357 68.662 162.897 66.9533 162.343 65.311C161.275 62.1576 160.032 59.066 158.621 56.0505C157.293 53.1643 155.934 50.4729 154.637 47.9629C153.34 45.453 152.078 43.1423 150.847 41.0839C148.917 37.8259 146.731 34.7264 144.309 31.8145C143.455 30.783 142.764 30.0039 142.291 29.486L141.751 28.8973C141.692 28.8266 141.627 28.7614 141.556 28.7025C141.602 28.7807 141.657 28.8534 141.72 28.9194L142.238 29.5347C142.68 30.0703 143.362 30.8627 144.199 31.9074C146.57 34.8416 148.718 37.9489 150.626 41.2034C151.843 43.2662 153.083 45.5814 154.367 48.0913C155.65 50.6012 157.001 53.2971 158.315 56.1788C159.717 59.1927 160.952 62.2813 162.016 65.4306C162.565 67.0684 163.021 68.7594 163.486 70.4858C163.95 72.2122 164.411 73.9652 164.884 75.7358C166.705 82.387 168.152 89.135 169.218 95.948" fill="#E0E0E0"/>
<path d="M162.242 65.2845C162.378 65.0225 162.485 64.7464 162.561 64.4611C162.742 63.9255 163.003 63.1331 163.269 62.1726C163.835 60.2248 164.53 57.5157 165.283 54.5233C166.036 51.5309 166.77 48.835 167.364 46.905C167.66 45.94 167.908 45.1609 168.085 44.6253C168.194 44.3512 168.275 44.0663 168.324 43.7753C168.17 44.0258 168.045 44.2931 167.952 44.5721C167.731 45.0945 167.448 45.8647 167.116 46.8253C166.456 48.7376 165.681 51.4335 164.924 54.4303L163.017 62.1017C162.783 63.0225 162.584 63.7957 162.419 64.4213C162.327 64.7013 162.268 64.991 162.242 65.2845Z" fill="#E0E0E0"/>
<path d="M137.306 56.7897C137.632 56.911 137.969 57.0014 138.311 57.0597C138.958 57.2146 139.9 57.4315 141.051 57.737C143.362 58.3302 146.527 59.2598 149.971 60.4372C153.415 61.6147 156.487 62.8321 158.683 63.7661C159.785 64.2088 160.666 64.6249 161.277 64.8949C161.585 65.0553 161.908 65.1858 162.242 65.2844C161.964 65.0831 161.667 64.9082 161.356 64.7621C160.763 64.4522 159.896 64.0184 158.807 63.5226C156.629 62.5222 153.561 61.2739 150.108 60.0831C147.163 59.0615 144.166 58.1927 141.131 57.4802C139.967 57.2058 139.015 57.0376 138.356 56.918C138.011 56.8414 137.659 56.7984 137.306 56.7897Z" fill="#E0E0E0"/>
<path d="M169.289 95.377C169.375 95.293 169.45 95.1977 169.51 95.0937C169.665 94.859 169.851 94.5713 170.081 94.2083C170.577 93.4558 171.263 92.3491 172.091 90.9724C173.751 88.2146 175.924 84.3324 178.266 80.0164C180.608 75.7004 182.746 71.8227 184.348 69.056L186.252 65.7626L186.765 64.8772C186.832 64.7754 186.886 64.6653 186.925 64.5497C186.838 64.6346 186.763 64.7314 186.703 64.8374L186.132 65.7227C185.637 66.4752 184.95 67.5819 184.123 68.963C182.463 71.7208 180.285 75.603 177.925 79.919C175.566 84.235 173.45 88.1261 171.847 90.9149L169.944 94.2127C169.736 94.5713 169.568 94.8723 169.431 95.0981C169.373 95.1853 169.325 95.2789 169.289 95.377Z" fill="#E0E0E0"/>
<path d="M136.819 79.4808C136.917 79.556 137.024 79.6184 137.138 79.6667L138.077 80.1227L141.551 81.8314C144.486 83.2789 148.519 85.3196 152.968 87.586C157.417 89.8525 161.476 91.8533 164.442 93.2389C165.925 93.9294 167.129 94.4784 167.983 94.8413L168.953 95.2486C169.062 95.3063 169.18 95.3466 169.302 95.3681C169.203 95.2943 169.096 95.2319 168.984 95.1822L168.045 94.7085L164.566 92.9998C161.631 91.5568 157.603 89.5161 153.149 87.2452C148.696 84.9743 144.646 82.9779 141.68 81.5923C140.197 80.9018 138.993 80.3529 138.139 79.9899L137.169 79.5826C137.058 79.531 136.94 79.4967 136.819 79.4808Z" fill="#E0E0E0"/>
<path d="M80.468 49.4237C80.468 42.1994 88.0553 37.6267 95.7931 41.2432C97.5418 42.0633 98.9726 43.4351 99.8656 45.1476C101.809 48.9191 100.95 53.2218 99.1839 56.7986L93.1637 72.0573C92.974 72.544 92.6418 72.9621 92.2105 73.2569C91.7793 73.5516 91.2691 73.7093 90.7467 73.7093C90.2243 73.7093 89.7141 73.5516 89.2829 73.2569C88.8516 72.9621 88.5194 72.544 88.3297 72.0573L82.4246 56.7144C80.3839 52.0266 80.468 49.4237 80.468 49.4237ZM87.7366 55.7096C92.9379 58.733 98.2101 53.1421 95.3593 47.6265C94.9873 46.8907 94.4129 46.2764 93.7037 45.8558C88.5024 42.8324 83.2346 48.4233 86.0854 53.9389C86.4558 54.6745 87.0287 55.2888 87.7366 55.7096Z" fill="#F5F5F5"/>
<path d="M17.7066 196.579C17.7066 196.646 84.1066 196.694 165.973 196.694C247.84 196.694 314.267 196.646 314.267 196.579C314.267 196.513 247.893 196.464 165.973 196.464C84.0535 196.464 17.7066 196.517 17.7066 196.579Z" fill="#263238"/>
<path d="M188.505 196.579L247.344 196.309C250.741 196.288 253.991 194.922 256.383 192.509C258.774 190.096 260.111 186.834 260.102 183.437L259.478 35.9268C259.458 32.5283 258.091 29.2763 255.677 26.884C253.263 24.4916 249.999 23.1541 246.601 23.1647L187.761 23.4348C184.366 23.4558 181.117 24.8213 178.726 27.2322C176.335 29.6431 174.997 32.9032 175.004 36.2987L175.628 183.808C175.645 187.209 177.011 190.463 179.425 192.857C181.84 195.251 185.105 196.59 188.505 196.579Z" fill="#455A64"/>
<path d="M187.846 28.5254L199.253 28.4722C200.004 28.4862 200.719 28.7974 201.241 29.3376C201.763 29.8778 202.049 30.6029 202.037 31.354V33.4257C202.032 33.7975 202.099 34.1669 202.236 34.5126C202.373 34.8583 202.577 35.1736 202.836 35.4404C203.095 35.7073 203.404 35.9204 203.746 36.0677C204.087 36.2149 204.454 36.2934 204.826 36.2986L227.066 36.1968C227.816 36.1748 228.528 35.8565 229.045 35.3115C229.561 34.7666 229.841 34.0392 229.824 33.2884V31.2168C229.81 30.4709 230.092 29.7499 230.606 29.2097C231.12 28.6696 231.827 28.3537 232.573 28.3306H236.583L246.565 28.2553C248.945 28.2436 251.233 29.1775 252.925 30.8518C254.616 32.5261 255.574 34.8038 255.587 37.1839L256.193 181.166C256.204 183.546 255.269 185.833 253.594 187.524C251.919 189.215 249.64 190.171 247.26 190.183L188.536 190.453C187.357 190.458 186.189 190.231 185.098 189.785C184.006 189.338 183.014 188.682 182.177 187.852C181.339 187.022 180.674 186.035 180.218 184.948C179.762 183.861 179.524 182.694 179.519 181.515L178.913 37.538C178.907 36.3597 179.134 35.1919 179.58 34.1012C180.026 33.0106 180.683 32.0185 181.512 31.1816C182.342 30.3447 183.328 29.6794 184.415 29.2236C185.501 28.7678 186.667 28.5306 187.846 28.5254Z" fill="#FAFAFA"/>
<path d="M255.658 54.4701H246.034L237.446 63.0623L246.375 71.9908L255.556 62.8055L255.658 54.4701Z" fill="#EBEBEB"/>
<path d="M235.485 59.2907L240.31 54.4701H229.456L235.485 59.2907Z" fill="#EBEBEB"/>
<path d="M231.267 63.2304L222.816 54.7799H193.29C193.29 54.7799 188.771 74.9655 206.57 87.9268L231.267 63.2304Z" fill="#EBEBEB"/>
<path d="M234.883 65.9219L243.923 74.9656L218.908 99.9807L209.868 90.636L234.883 65.9219Z" fill="#EBEBEB"/>
<path d="M255.768 80.0917L250.102 74.2131L255.658 68.6576L255.768 80.0917Z" fill="#EBEBEB"/>
<path d="M246.711 77.6791L255.414 86.382V98.4756L237.446 116.86L222.223 102.694L246.711 77.6791Z" fill="#EBEBEB"/>
<path d="M203.184 90.4633C203.184 90.4633 184.539 76.7937 190.568 54.7799H178.975L179.116 116.913L203.184 90.4633Z" fill="#EBEBEB"/>
<path d="M206.69 94.0489L215.703 103.46L188.063 131.105L179.608 122.145L206.69 94.0489Z" fill="#EBEBEB"/>
<path d="M219.47 106.036L233.639 120.104L205.3 148.245L191.157 134.571L219.47 106.036Z" fill="#EBEBEB"/>
<path d="M226.898 176.522L205.233 154.07L184.627 175.075L226.898 176.522Z" fill="#EBEBEB"/>
<path d="M201.856 151.171L179.28 128.816C179.28 129.808 179.475 175.168 179.475 175.168L201.856 151.171Z" fill="#EBEBEB"/>
<path d="M221.169 138.617L208.372 151.414L233.639 177.487L245.312 163.486L221.169 138.617Z" fill="#EBEBEB"/>
<path d="M255.746 165.301C254.538 165.181 223.591 136.2 223.591 136.2L255.746 102.88V165.301Z" fill="#EBEBEB"/>
<path d="M256.193 171.905L248.743 165.301L238.425 177.487H256.193V172.826" fill="#EBEBEB"/>
<path d="M246.565 45.6964C247.353 45.1155 248.093 44.4731 248.779 43.7752C248.779 43.4388 248.779 43.6823 248.779 43.607L248.748 43.5805L248.694 43.5318L248.584 43.43L248.371 43.2308L247.968 42.8589L247.274 42.2392C247.063 42.0241 246.825 41.8381 246.565 41.6859C246.723 41.9266 246.914 42.1441 247.132 42.3321L247.796 42.9873L248.19 43.368L248.402 43.5716L248.509 43.6734L248.566 43.7221L248.593 43.7487V43.5805C247.863 44.2319 247.185 44.9394 246.565 45.6964Z" fill="#263238"/>
<path d="M185.367 42.3189C185.366 42.4147 185.393 42.5086 185.446 42.5886C185.499 42.6686 185.574 42.7312 185.662 42.7682C185.751 42.8053 185.848 42.8152 185.942 42.7967C186.036 42.7783 186.122 42.7322 186.19 42.6645C186.258 42.5967 186.304 42.5104 186.322 42.4163C186.341 42.3223 186.331 42.225 186.294 42.1366C186.257 42.0483 186.194 41.973 186.114 41.9203C186.034 41.8676 185.94 41.8399 185.845 41.8408C185.718 41.8408 185.596 41.8912 185.507 41.9808C185.417 42.0705 185.367 42.1921 185.367 42.3189Z" fill="#263238"/>
<path d="M185.504 43.6336C185.436 43.701 185.39 43.787 185.371 43.8806C185.353 43.9743 185.362 44.0713 185.399 44.1595C185.435 44.2478 185.497 44.3232 185.576 44.3762C185.656 44.4293 185.749 44.4576 185.845 44.4576C185.94 44.4576 186.033 44.4293 186.113 44.3762C186.192 44.3232 186.254 44.2478 186.29 44.1595C186.327 44.0713 186.336 43.9743 186.318 43.8806C186.299 43.787 186.253 43.701 186.185 43.6336C186.094 43.5444 185.972 43.4944 185.845 43.4944C185.717 43.4944 185.595 43.5444 185.504 43.6336Z" fill="#263238"/>
<path d="M185.367 45.6257C185.378 45.7451 185.434 45.8559 185.522 45.9366C185.611 46.0173 185.727 46.062 185.847 46.062C185.967 46.062 186.082 46.0173 186.171 45.9366C186.26 45.8559 186.316 45.7451 186.327 45.6257C186.334 45.5587 186.326 45.4912 186.305 45.4273C186.284 45.3635 186.249 45.3048 186.204 45.255C186.159 45.2053 186.104 45.1655 186.042 45.1383C185.981 45.111 185.914 45.097 185.847 45.097C185.78 45.097 185.713 45.111 185.652 45.1383C185.59 45.1655 185.535 45.2053 185.49 45.255C185.444 45.3048 185.41 45.3635 185.389 45.4273C185.368 45.4912 185.36 45.5587 185.367 45.6257Z" fill="#263238"/>
<path d="M206.11 44.2799H226.818V46.0063H206.11V44.2799Z" fill="#263238"/>
<path d="M208.363 75.2533C208.363 67.1879 216.836 62.0795 225.477 66.1211C227.432 67.0344 229.031 68.5669 230.027 70.4813C232.201 74.6911 231.24 79.4985 229.27 83.4913L222.542 100.538C222.329 101.082 221.958 101.548 221.476 101.877C220.994 102.206 220.425 102.382 219.842 102.382C219.258 102.382 218.689 102.206 218.207 101.877C217.725 101.548 217.354 101.082 217.141 100.538L210.55 83.4028C208.266 78.1793 208.363 75.2533 208.363 75.2533ZM216.464 82.2917C222.272 85.6692 228.159 79.4276 224.976 73.2657C224.557 72.4531 223.917 71.7751 223.131 71.3091C217.318 67.9316 211.431 74.1732 214.618 80.3351C215.036 81.1489 215.676 81.8275 216.464 82.2917Z" fill="#80F17E"/>
<path d="M32.2837 136.837H277.884V172.875H32.2837V136.837Z" fill="#80F17E"/>
<g opacity="0.5">
<path d="M32.2837 136.837H277.884V172.875H32.2837V136.837Z" fill="black"/>
</g>
<path d="M243.288 196.258C230.238 195.38 220.371 184.089 221.249 171.039C222.127 157.989 233.418 148.122 246.469 149C259.519 149.878 269.386 161.169 268.508 174.219C267.629 187.269 256.338 197.137 243.288 196.258Z" fill="#263238"/>
<path d="M268.557 172.228C268.557 172.25 268.557 172.273 268.557 172.29C268.602 175.4 268.034 178.489 266.885 181.379C265.737 184.27 264.03 186.906 261.863 189.137C259.696 191.368 257.11 193.15 254.254 194.382C251.398 195.614 248.327 196.271 245.217 196.316C242.107 196.361 239.019 195.793 236.128 194.645C233.238 193.496 230.602 191.789 228.371 189.622C226.14 187.455 224.357 184.869 223.126 182.013C221.894 179.157 221.237 176.086 221.192 172.976C221.192 172.954 221.192 172.932 221.192 172.914L268.557 172.228Z" fill="#263238"/>
<path d="M261.505 172.392C261.554 175.681 260.626 178.91 258.84 181.671C257.053 184.432 254.487 186.601 251.468 187.904C248.448 189.207 245.11 189.585 241.875 188.991C238.64 188.396 235.655 186.856 233.296 184.564C230.937 182.273 229.31 179.333 228.622 176.117C227.934 172.901 228.215 169.553 229.43 166.497C230.645 163.441 232.738 160.813 235.447 158.947C238.155 157.081 241.356 156.06 244.644 156.013C249.052 155.951 253.304 157.641 256.465 160.712C259.627 163.783 261.44 167.985 261.505 172.392Z" fill="#FAFAFA"/>
<path d="M244.644 156.009C249.052 155.945 253.305 157.635 256.467 160.706C259.629 163.778 261.441 167.98 261.505 172.388L228.257 172.87C228.194 168.461 229.885 164.208 232.959 161.046C236.032 157.884 240.235 156.072 244.644 156.009Z" fill="#E0E0E0"/>
<path d="M255.007 172.485C255.037 174.488 254.471 176.455 253.383 178.137C252.294 179.819 250.732 181.141 248.892 181.934C247.052 182.728 245.019 182.958 243.048 182.596C241.078 182.233 239.259 181.295 237.822 179.899C236.385 178.503 235.395 176.712 234.976 174.753C234.557 172.794 234.728 170.754 235.468 168.892C236.209 167.031 237.484 165.43 239.134 164.294C240.784 163.157 242.734 162.536 244.737 162.507C246.067 162.488 247.387 162.731 248.623 163.222C249.858 163.713 250.985 164.442 251.939 165.369C252.893 166.295 253.654 167.401 254.181 168.622C254.707 169.843 254.988 171.156 255.007 172.485Z" fill="#263238"/>
<path d="M62.4043 196.25C49.3467 195.493 39.3754 184.293 40.1329 171.236C40.8904 158.178 52.0897 148.207 65.1474 148.964C78.205 149.722 88.1762 160.921 87.4188 173.979C86.6613 187.037 75.4619 197.008 62.4043 196.25Z" fill="#263238"/>
<path d="M87.4621 172.228C87.4621 172.25 87.4621 172.273 87.4621 172.29C87.5072 175.4 86.9392 178.489 85.7907 181.379C84.6421 184.27 82.9355 186.906 80.7682 189.137C78.6009 191.368 76.0154 193.15 73.1594 194.382C70.3033 195.614 67.2325 196.271 64.1225 196.316C61.0124 196.361 57.924 195.793 55.0334 194.645C52.1429 193.496 49.5068 191.789 47.2758 189.622C45.0449 187.455 43.2626 184.869 42.0308 182.013C40.799 179.157 40.1418 176.086 40.0968 172.976C40.0968 172.954 40.0968 172.932 40.0968 172.914L87.4621 172.228Z" fill="#263238"/>
<path d="M80.4104 172.392C80.4591 175.681 79.5314 178.91 77.7447 181.671C75.958 184.432 73.3926 186.601 70.3729 187.904C67.3532 189.207 64.0149 189.585 60.7802 188.991C57.5455 188.396 54.5599 186.856 52.2008 184.564C49.8417 182.273 48.2152 179.333 47.5271 176.117C46.839 172.901 47.1201 169.553 48.3349 166.497C49.5497 163.441 51.6436 160.813 54.3518 158.947C57.06 157.081 60.2607 156.06 63.5492 156.013C67.9567 155.951 72.2087 157.641 75.3705 160.712C78.5323 163.783 80.3451 167.985 80.4104 172.392Z" fill="#FAFAFA"/>
<path d="M63.5491 156.009C67.9569 155.945 72.2096 157.635 75.3717 160.706C78.5337 163.778 80.3462 167.98 80.4103 172.388L47.1616 172.87C47.0989 168.461 48.7902 164.208 51.8634 161.046C54.9367 157.884 59.1401 156.072 63.5491 156.009Z" fill="#E0E0E0"/>
<path d="M73.9253 172.485C73.9549 174.488 73.3897 176.455 72.3012 178.137C71.2127 179.819 69.6498 181.141 67.8102 181.934C65.9707 182.728 63.937 182.958 61.9666 182.596C59.9962 182.233 58.1775 181.295 56.7405 179.899C55.3036 178.503 54.3129 176.712 53.8939 174.753C53.4749 172.794 53.6464 170.754 54.3866 168.892C55.1268 167.031 56.4025 165.43 58.0524 164.294C59.7023 163.157 61.6522 162.536 63.6554 162.507C64.9849 162.488 66.3052 162.731 67.5409 163.222C68.7766 163.713 69.9034 164.442 70.8571 165.369C71.8108 166.295 72.5726 167.401 73.099 168.622C73.6255 169.843 73.9062 171.156 73.9253 172.485Z" fill="#263238"/>
<path d="M213.839 116.563C213.839 116.563 248.712 119.135 261.647 122.034C270.757 124.075 288.322 127.603 288.11 138.652L286.715 146.576C286.715 146.576 293.227 149.55 293.227 157.147C293.227 164.743 294.816 176.518 279.606 176.991C277.1 177.067 272.342 176.991 272.342 176.991C272.342 176.991 275.259 144.597 245.503 143.65C215.229 142.685 217.239 176.695 217.239 176.695H90.8883C90.8883 176.695 96.0764 143.561 63.4872 143.495C30.8981 143.428 35.856 176.912 35.856 176.912C35.856 176.912 23.8686 177.948 18.291 167.872C12.7134 157.797 14.1609 150.608 14.1609 150.608L14.3468 144.238C14.3821 143.193 14.8132 142.2 15.5529 141.461C16.2925 140.721 17.2854 140.29 18.3308 140.254C18.3308 140.254 16.1529 124.221 19.495 121.446C22.8372 118.67 41.1503 101.924 41.1503 101.924L40.265 101.38C39.9368 101.172 39.6741 100.876 39.5074 100.525C39.3407 100.174 39.2768 99.7837 39.3232 99.3982C39.3695 99.0127 39.5242 98.6482 39.7692 98.347C40.0142 98.0459 40.3396 97.8203 40.7076 97.6965C47.6619 95.3061 61.4112 90.574 64.6426 89.4452C65.1266 89.2732 65.6312 89.166 66.1432 89.1265C68.0733 88.9804 73.5358 88.6351 83.5622 88.5289C95.7754 88.3961 144.265 88.5289 144.265 88.5289C144.265 88.5289 160.954 89.9012 170.25 93.9914C179.997 98.2941 213.839 116.563 213.839 116.563Z" fill="#80F17E"/>
<g opacity="0.4">
<path d="M284.382 156.261C285.648 156.005 287.587 155.982 288.552 156.837C289.269 157.474 289.46 158.506 289.566 159.457C289.769 160.761 289.739 162.091 289.477 163.384C289.344 164.03 289.078 164.641 288.697 165.18C288.317 165.718 287.829 166.172 287.264 166.513C286.104 167.142 284.519 167.04 283.621 166.071C282.797 165.185 282.705 163.857 282.736 162.676C282.766 160.967 282.629 159.519 282.944 157.842C283.013 157.486 283.164 157.15 283.386 156.863C283.496 156.691 283.645 156.547 283.82 156.442C283.995 156.337 284.192 156.274 284.396 156.257" fill="black"/>
</g>
<path d="M286.706 146.576C283.006 146.576 279.416 146.372 275.719 146.133C275.317 146.151 274.92 146.031 274.595 145.792C274.446 145.607 274.336 145.395 274.27 145.167C274.203 144.939 274.183 144.7 274.21 144.464C274.21 142.481 274.29 140.224 275.795 138.931C276.715 138.143 277.977 137.895 279.185 137.784C282.186 137.46 285.222 137.762 288.101 138.67L286.706 146.576Z" fill="#FAFAFA"/>
<path d="M209.824 175.681C209.824 175.681 209.824 175.575 209.851 175.362C209.877 175.15 209.886 174.836 209.913 174.433C209.957 173.609 210.023 172.41 210.107 170.86C210.191 169.311 210.298 167.412 210.519 165.216C210.748 162.73 211.184 160.268 211.825 157.855C212.633 154.94 213.832 152.148 215.388 149.555C217.152 146.56 219.495 143.948 222.281 141.87C228.252 137.621 236.322 135.23 244.764 135.115C253.205 135 261.28 137.669 267.105 142.145C269.897 144.21 272.343 146.707 274.352 149.542C276.105 152.002 277.53 154.681 278.592 157.51C279.468 159.848 280.07 162.279 280.385 164.756C280.632 166.624 280.705 168.51 280.602 170.391C280.529 171.58 280.381 172.763 280.159 173.933C280.088 174.326 280.031 174.632 279.996 174.844C279.96 175.057 279.947 175.159 279.947 175.159C279.947 175.159 279.973 175.057 280.018 174.853L280.208 173.968C280.449 172.8 280.609 171.617 280.686 170.427C280.806 168.539 280.747 166.645 280.509 164.769C280.204 162.28 279.61 159.835 278.738 157.483C277.68 154.632 276.255 151.931 274.498 149.449C272.485 146.591 270.028 144.075 267.22 141.994C261.368 137.497 253.276 134.801 244.768 134.911C236.26 135.022 228.177 137.435 222.157 141.724C219.354 143.822 216.999 146.459 215.229 149.48C213.674 152.093 212.482 154.906 211.688 157.842C211.051 160.265 210.623 162.738 210.408 165.234C210.2 167.447 210.107 169.333 210.036 170.883C209.966 172.432 209.917 173.636 209.882 174.459C209.882 174.862 209.855 175.172 209.846 175.389C209.837 175.606 209.824 175.681 209.824 175.681Z" fill="white"/>
<path d="M208.496 176.23V175.964L208.523 175.181C208.545 174.481 208.576 173.459 208.62 172.122C208.695 169.435 208.806 165.509 208.948 160.511C209.089 155.513 209.253 149.444 209.443 142.494C209.492 140.755 209.536 138.953 209.589 137.116C209.62 136.177 209.579 135.237 209.465 134.305L209.266 132.88L208.974 131.45C208.516 129.496 207.856 127.596 207.004 125.779C206.128 123.875 205.044 122.073 203.773 120.405L181.892 106.621L175.982 102.902C173.99 101.579 171.899 100.411 169.727 99.4096C167.506 98.3637 165.227 97.4459 162.901 96.6607C161.742 96.2534 160.551 95.9214 159.36 95.5673C158.169 95.2131 156.956 94.921 155.726 94.6819C151.085 93.6893 146.368 93.0969 141.627 92.9113C137.077 92.6932 132.519 92.708 127.971 92.9555H127.842L127.873 93.0839L133.752 119.383C134.838 121.166 135.728 123.061 136.408 125.036C137.077 126.908 137.377 128.892 137.293 130.879C137.143 132.822 137.089 134.726 137.041 136.571C136.992 138.417 136.97 140.206 136.935 141.945C136.833 148.895 136.806 154.955 136.788 159.949C136.771 164.942 136.788 168.868 136.788 171.551C136.788 172.879 136.788 173.91 136.788 174.61C136.788 174.951 136.788 175.212 136.788 175.393C136.788 175.575 136.788 175.659 136.788 175.659C136.788 175.659 136.788 175.566 136.788 175.393C136.788 175.221 136.788 174.951 136.788 174.61C136.788 173.91 136.788 172.888 136.788 171.551C136.788 168.868 136.828 164.942 136.859 159.953C136.89 154.964 136.934 148.886 137.054 141.945C137.089 140.21 137.128 138.42 137.169 136.576C137.222 134.73 137.275 132.835 137.43 130.892C137.52 128.881 137.219 126.871 136.545 124.974C135.87 122.983 134.979 121.073 133.889 119.277V119.307C132.087 111.211 130.117 102.375 128.032 93.0042L127.931 93.137C132.469 92.8925 137.017 92.8807 141.556 93.1016C146.286 93.2847 150.992 93.8772 155.619 94.8723C156.846 95.1158 158.041 95.4566 159.24 95.7576C160.44 96.0586 161.613 96.4438 162.782 96.8466C165.108 97.6331 167.387 98.5524 169.608 99.6C171.769 100.595 173.85 101.755 175.832 103.07L181.746 106.789L203.627 120.543V120.52C204.895 122.177 205.976 123.969 206.849 125.863C207.7 127.666 208.358 129.554 208.815 131.494C209.811 135.288 209.311 139.019 209.302 142.494L208.859 160.511C208.739 165.504 208.647 169.435 208.585 172.118C208.554 173.446 208.536 174.481 208.518 175.181C208.518 175.52 208.518 175.781 208.518 175.964C208.496 176.141 208.496 176.23 208.496 176.23Z" fill="#263238"/>
<path d="M128.13 93.6859H127.922L127.315 93.6638L124.965 93.6063L116.249 93.4381L86.8644 92.9334H86.8068L86.7714 92.9777L82.6546 98.0197C78.4847 103.141 74.5095 108.011 70.8974 112.437L69.5694 114.075C69.1394 114.624 68.7699 115.218 68.4671 115.846C67.9187 117.011 67.6208 118.277 67.5925 119.565C67.5643 120.852 67.8065 122.13 68.3033 123.318L69.6313 126.417L73.695 135.819L74.8106 138.369L75.1071 139.033C75.1735 139.179 75.2134 139.254 75.2134 139.254C75.2134 139.254 75.1868 139.174 75.1293 139.024C75.0717 138.873 74.9699 138.639 74.8548 138.351C74.6025 137.758 74.2439 136.89 73.7791 135.784L69.7951 126.355C69.0337 124.354 67.6925 122.247 67.7854 119.679C67.8051 118.374 68.1072 117.089 68.6708 115.912C68.9675 115.301 69.3297 114.724 69.7509 114.19L71.0789 112.552L82.8494 98.148L86.9618 93.1061L86.8732 93.1503L116.262 93.593L124.978 93.6948H127.329H127.931L128.13 93.6859Z" fill="#263238"/>
<path d="M142.981 132.765C142.981 132.765 142.857 132.765 142.632 132.711C142.299 132.652 141.983 132.526 141.702 132.34C141.256 132.049 140.922 131.615 140.755 131.109C140.653 130.795 140.611 130.465 140.631 130.135C140.641 129.768 140.735 129.407 140.905 129.082C141.103 128.711 141.397 128.4 141.756 128.181C142.115 127.962 142.526 127.844 142.946 127.838H145.929H152.769C153.346 127.839 153.902 128.057 154.327 128.449C154.741 128.826 155.005 129.34 155.07 129.896C155.138 130.434 155.039 130.979 154.787 131.459C154.53 131.909 154.132 132.262 153.654 132.464C153.181 132.626 152.678 132.688 152.18 132.645H150.732H148.129L144.362 132.68L143.34 132.703C143.22 132.7 143.1 132.709 142.981 132.729C143.1 132.743 143.22 132.75 143.34 132.751H144.362L148.129 132.787H150.732H152.18C152.432 132.787 152.676 132.787 152.946 132.787C153.217 132.77 153.483 132.709 153.734 132.605C154.259 132.39 154.696 132.005 154.978 131.512C155.258 130.994 155.368 130.401 155.292 129.816C155.222 129.195 154.927 128.622 154.461 128.204C153.996 127.787 153.394 127.556 152.769 127.554H145.929H142.941C142.49 127.564 142.049 127.695 141.666 127.934C141.282 128.174 140.971 128.512 140.763 128.913C140.586 129.262 140.491 129.647 140.485 130.038C140.47 130.383 140.52 130.728 140.631 131.056C140.818 131.582 141.178 132.028 141.653 132.322C141.946 132.508 142.278 132.625 142.623 132.663C142.738 132.711 142.858 132.745 142.981 132.765Z" fill="#263238"/>
<path d="M77.4666 132.765C77.4666 132.765 77.3427 132.765 77.1169 132.711C76.7848 132.652 76.4684 132.526 76.1873 132.34C75.7412 132.049 75.4072 131.615 75.24 131.109C75.1385 130.795 75.0965 130.465 75.116 130.135C75.1265 129.768 75.2204 129.407 75.3905 129.082C75.5883 128.711 75.882 128.4 76.2409 128.181C76.5999 127.962 77.0109 127.844 77.4312 127.838H80.4147H87.254C87.8316 127.839 88.3878 128.057 88.8121 128.449C89.2264 128.826 89.4905 129.34 89.5558 129.896C89.623 130.434 89.5241 130.979 89.2725 131.459C89.0157 131.909 88.6174 132.262 88.1393 132.464C87.6659 132.626 87.1639 132.688 86.6652 132.645H85.2177H82.6148L78.8477 132.68L77.8252 132.703C77.7051 132.7 77.585 132.709 77.4666 132.729C77.5856 132.743 77.7053 132.75 77.8252 132.751H78.8477L82.6148 132.787H85.2177H86.6652C86.9175 132.787 87.161 132.787 87.431 132.787C87.7019 132.77 87.9681 132.709 88.219 132.605C88.7439 132.39 89.1817 132.005 89.4629 131.512C89.7438 130.994 89.8538 130.401 89.7772 129.816C89.7076 129.195 89.412 128.622 88.9467 128.204C88.4814 127.787 87.8789 127.556 87.254 127.554H80.4147H77.4267C76.975 127.564 76.5342 127.695 76.1509 127.934C75.7676 128.174 75.4559 128.512 75.2488 128.913C75.0716 129.262 74.9762 129.647 74.9699 130.038C74.9556 130.383 75.0051 130.728 75.116 131.056C75.3032 131.582 75.6638 132.028 76.1386 132.322C76.4315 132.508 76.7631 132.625 77.108 132.663C77.2231 132.711 77.3435 132.745 77.4666 132.765Z" fill="#263238"/>
<path d="M20.0572 122.079H33.1601C34.0409 122.078 34.9051 122.319 35.6595 122.773C36.4138 123.228 37.0297 123.88 37.4407 124.659C37.7784 125.304 37.9665 126.016 37.991 126.744C38.0155 127.471 37.8759 128.194 37.5823 128.86L32.4474 140.533L19.3267 140.405C19.3267 140.405 16.5335 125.607 20.0572 122.079Z" fill="#FAFAFA"/>
<path d="M202.033 120.427L134.424 119.179L90.4234 118.373L75.9128 109.994C75.637 109.833 75.3984 109.616 75.2129 109.356C75.0274 109.096 74.8992 108.8 74.8369 108.487C74.7745 108.174 74.7794 107.851 74.8512 107.54C74.9229 107.229 75.06 106.937 75.2532 106.683L84.2881 94.8147C84.7522 94.2037 85.3503 93.7072 86.0364 93.3634C86.7224 93.0196 87.4782 92.8377 88.2455 92.8316L137.461 92.4332C137.461 92.4332 155.991 91.3531 170.595 99.5158C185.951 108.135 202.033 120.427 202.033 120.427Z" fill="#263238"/>
<path d="M171.051 93.6594C171.051 93.6594 167.66 95.2043 169.864 96.6341C172.069 98.0639 206.322 119.653 206.322 119.653L214.198 116.089C200.249 108.329 186.163 100.782 171.051 93.6594Z" fill="#455A64"/>
<path d="M205.216 120.202L205.428 120.255L206.052 120.392L208.456 120.888C210.545 121.304 213.573 121.888 217.309 122.535C224.835 123.827 235.246 125.332 246.831 126.333C249.73 126.585 252.585 126.775 255.295 126.97C258.004 127.165 260.669 127.32 263.174 127.546C268.189 127.988 272.678 128.714 276.326 129.799C279.225 130.605 282.015 131.761 284.635 133.243C285.577 133.738 286.25 134.225 286.724 134.518L287.264 134.858L287.454 134.969C287.398 134.923 287.338 134.88 287.277 134.841L286.751 134.478C286.281 134.172 285.617 133.672 284.679 133.15C282.075 131.628 279.291 130.438 276.392 129.608C272.736 128.497 268.234 127.749 263.214 127.302C260.704 127.063 258.066 126.895 255.33 126.713C252.594 126.532 249.766 126.319 246.871 126.067C235.291 125.067 224.866 123.588 217.354 122.335C213.595 121.711 210.568 121.153 208.474 120.764L206.061 120.321L205.433 120.206L205.216 120.202Z" fill="#263238"/>
<path d="M14.8203 150.476C14.8203 150.542 19.3267 150.591 24.8821 150.591C30.4376 150.591 34.9484 150.542 34.9484 150.476C34.9484 150.409 30.442 150.361 24.8821 150.361C19.3222 150.361 14.8203 150.414 14.8203 150.476Z" fill="#263238"/>
<path d="M97.2582 161.976C97.2582 162.043 122.694 162.091 154.066 162.091C185.437 162.091 210.877 162.043 210.877 161.976C210.877 161.91 185.446 161.861 154.066 161.861C122.685 161.861 97.2582 161.914 97.2582 161.976Z" fill="#263238"/>
<path d="M275.339 150.856C275.339 150.923 278.937 150.971 283.373 150.971C287.808 150.971 291.407 150.923 291.407 150.856C291.407 150.79 287.808 150.741 283.373 150.741C278.937 150.741 275.339 150.794 275.339 150.856Z" fill="#263238"/>
<path d="M41.4911 101.464C41.4911 101.464 44.5101 104.841 43.3237 107.32C42.1374 109.799 29.8711 118.484 29.8711 118.484L20.9691 120.153L41.4911 101.464Z" fill="#455A64"/>
<path d="M126.129 95.4123L128.13 117.032L92.3092 116.01L77.8738 107.617L87.2185 95.4123H126.129Z" fill="#455A64"/>
<path d="M193.552 118.139C193.552 118.139 171.941 102.53 163.415 99.4273C155.186 96.4349 150.896 95.6824 143.167 95.4433C135.779 95.2308 131.277 95.4433 131.277 95.4433L136.988 117.422L193.552 118.139Z" fill="#455A64"/>
<path d="M196.712 118.192C196.712 117.52 196.533 116.86 196.194 116.28C195.855 115.7 195.368 115.22 194.782 114.89L189.815 112.101C188.401 111.304 186.804 110.887 185.181 110.888C184.181 110.889 183.188 111.048 182.237 111.357C181.202 111.715 180.301 112.38 179.654 113.264C179.007 114.147 178.645 115.207 178.616 116.302C178.588 117.037 178.709 117.77 178.971 118.458C179.233 119.145 179.631 119.773 180.142 120.303C180.652 120.833 181.264 121.254 181.942 121.542C182.619 121.829 183.347 121.977 184.083 121.977H192.936C193.938 121.974 194.899 121.575 195.607 120.865C196.315 120.156 196.712 119.194 196.712 118.192Z" fill="#80F17E"/>
<path d="M196.712 118.192C196.712 118.192 196.712 118.36 196.655 118.67C196.588 119.126 196.438 119.566 196.212 119.967C195.854 120.6 195.327 121.119 194.689 121.468C194.292 121.676 193.86 121.811 193.414 121.866C192.906 121.904 192.396 121.914 191.887 121.897L184.313 121.871C183.595 121.89 182.88 121.773 182.206 121.525C181.495 121.259 180.848 120.845 180.307 120.311C179.767 119.777 179.346 119.135 179.072 118.427C178.793 117.679 178.68 116.88 178.74 116.085C178.799 115.301 179.03 114.54 179.417 113.855C179.803 113.17 180.335 112.579 180.975 112.123C181.594 111.696 182.29 111.395 183.025 111.238C185.044 110.76 187.163 110.964 189.054 111.818C189.625 112.074 190.147 112.397 190.665 112.676L192.144 113.5L194.689 114.907C195.33 115.252 195.858 115.773 196.212 116.408C196.435 116.811 196.585 117.25 196.655 117.705C196.699 118.015 196.695 118.183 196.708 118.183C196.724 118.021 196.724 117.858 196.708 117.696C196.658 117.232 196.52 116.781 196.301 116.368C195.953 115.707 195.419 115.162 194.765 114.801L192.237 113.363L190.767 112.526C190.254 112.243 189.731 111.915 189.147 111.641C187.221 110.754 185.054 110.536 182.99 111.021C182.228 111.172 181.505 111.473 180.86 111.906C180.191 112.38 179.635 112.996 179.231 113.71C178.827 114.424 178.585 115.218 178.523 116.036C178.458 116.866 178.576 117.7 178.868 118.48C179.154 119.22 179.594 119.891 180.159 120.448C180.723 121.005 181.4 121.436 182.144 121.711C182.843 121.963 183.584 122.082 184.326 122.061L191.9 122.039C192.416 122.05 192.932 122.034 193.445 121.99C193.911 121.925 194.362 121.775 194.773 121.547C195.426 121.183 195.96 120.639 196.314 119.98C196.53 119.567 196.667 119.116 196.717 118.652C196.727 118.499 196.726 118.345 196.712 118.192Z" fill="#263238"/>
<path d="M30.2164 175.88C30.2164 175.88 30.2164 175.778 30.2164 175.575C30.2164 175.371 30.181 175.066 30.1544 174.689C30.1278 174.313 30.0836 173.804 30.057 173.229C30.0305 172.653 30.0127 171.98 29.9906 171.232C29.9685 170.484 29.9906 169.643 29.9906 168.731C29.9906 167.819 30.057 166.823 30.181 165.761C30.3821 163.353 30.8104 160.97 31.4603 158.643C31.8431 157.285 32.3148 155.954 32.8724 154.659C33.4644 153.259 34.1784 151.914 35.006 150.639C36.8508 147.829 39.1978 145.383 41.9293 143.424C44.9359 141.241 48.292 139.585 51.8539 138.528C55.5458 137.399 59.5652 136.988 63.6554 136.957C67.645 136.92 71.6165 137.498 75.4304 138.67C77.236 139.24 78.9895 139.964 80.6715 140.834C82.2751 141.686 83.7982 142.682 85.2221 143.809C87.8692 145.882 90.2274 148.3 92.234 150.998C93.1163 152.236 93.8951 153.545 94.5624 154.911C95.171 156.177 95.7089 157.476 96.1737 158.802C97.5882 162.798 98.4491 166.968 98.7323 171.197C98.8031 172.697 98.7943 173.853 98.7545 174.658C98.7323 175.048 98.7146 175.345 98.7058 175.544C98.6969 175.743 98.7058 175.849 98.7058 175.849C98.7058 175.849 98.7058 175.747 98.7412 175.544C98.7766 175.34 98.7854 175.035 98.8164 174.658C98.875 173.504 98.875 172.347 98.8164 171.192C98.5717 166.94 97.7328 162.742 96.3242 158.722C95.8592 157.391 95.3243 156.085 94.7218 154.809C94.0488 153.433 93.2672 152.113 92.3845 150.861C90.3714 148.145 88.006 145.71 85.3505 143.619C83.9179 142.483 82.386 141.478 80.7733 140.617C79.0801 139.741 77.3147 139.01 75.4967 138.435C71.6613 137.249 67.6653 136.666 63.651 136.704C59.543 136.735 55.5059 137.147 51.7831 138.289C48.1977 139.356 44.8205 141.027 41.7965 143.229C40.3961 144.26 39.0869 145.409 37.8834 146.664C36.7401 147.842 35.7211 149.134 34.8423 150.52C34.0121 151.806 33.2966 153.163 32.7042 154.575C32.1478 155.87 31.679 157.201 31.3009 158.559C30.655 160.898 30.2355 163.293 30.0482 165.712C29.9286 166.775 29.9286 167.771 29.88 168.687C29.8313 169.603 29.88 170.458 29.88 171.192C29.88 171.927 29.9464 172.613 29.9729 173.193C29.9995 173.773 30.057 174.256 30.0924 174.654C30.1278 175.052 30.1544 175.34 30.1721 175.539C30.1898 175.739 30.2164 175.88 30.2164 175.88Z" fill="white"/>
<path d="M138.037 120.427H138.338L139.493 120.454L143.738 120.529C147.324 120.596 152.273 120.728 157.744 120.879C163.215 121.029 168.169 121.131 171.754 121.158C173.547 121.158 174.999 121.158 176.004 121.158H177.159H177.456C177.491 121.165 177.527 121.165 177.562 121.158C177.527 121.152 177.491 121.152 177.456 121.158H177.159L176.004 121.131L171.759 121.056C168.173 120.99 163.22 120.857 157.748 120.711C152.277 120.565 147.324 120.454 143.738 120.427C141.967 120.427 140.493 120.427 139.493 120.427H138.338H138.037Z" fill="white"/>
<path d="M143.805 127.081C145.094 127.197 146.389 127.236 147.682 127.196C148.976 127.236 150.271 127.197 151.56 127.081C150.271 126.967 148.976 126.928 147.682 126.966C146.389 126.928 145.094 126.967 143.805 127.081Z" fill="white"/>
<path d="M142.379 103.394C142.357 103.451 147.169 105.456 153.132 107.869C159.094 110.282 163.946 112.194 163.972 112.132C163.999 112.07 159.183 110.069 153.22 107.657C147.257 105.244 142.406 103.336 142.379 103.394Z" fill="white"/>
<path d="M152.136 104.912C152.109 104.974 156.695 106.993 162.374 109.423C168.054 111.853 172.675 113.779 172.702 113.721C172.728 113.664 168.142 111.645 162.463 109.21C156.784 106.776 152.162 104.846 152.136 104.912Z" fill="white"/>
<path d="M90.2687 102.557C90.2421 102.614 95.0583 104.62 101.021 107.032C106.984 109.445 111.835 111.353 111.862 111.295C111.889 111.238 107.072 109.232 101.105 106.82C95.138 104.407 90.3041 102.495 90.2687 102.557Z" fill="white"/>
<path d="M100.042 104.066C100.016 104.128 104.602 106.147 110.277 108.577C115.952 111.007 120.582 112.933 120.609 112.876C120.635 112.818 116.049 110.799 110.37 108.365C104.69 105.93 100.042 104.027 100.042 104.066Z" fill="white"/>
<path d="M89.3256 120.405C89.3256 120.467 98.9005 120.578 110.711 120.649C122.521 120.72 132.096 120.724 132.096 120.649C132.096 120.573 122.526 120.476 110.711 120.41C98.8961 120.343 89.3256 120.357 89.3256 120.405Z" fill="white"/>
<path d="M78.7237 126.713C78.7237 126.775 81.4063 126.851 84.7218 126.882C88.0374 126.913 90.72 126.882 90.72 126.824C90.72 126.766 88.0374 126.682 84.7218 126.651C81.4063 126.62 78.7237 126.647 78.7237 126.713Z" fill="white"/>
<path d="M262.059 123.438C262.143 123.466 262.231 123.484 262.32 123.491L263.068 123.588C263.395 123.623 263.794 123.672 264.254 123.752C264.715 123.832 265.241 123.889 265.817 124.004C266.972 124.208 268.34 124.509 269.836 124.89C271.457 125.337 273.054 125.866 274.621 126.474C276.286 127.134 277.831 127.855 279.212 128.568C280.593 129.281 281.788 129.998 282.753 130.64C283.253 130.945 283.687 131.255 284.081 131.525C284.475 131.795 284.798 132.016 285.064 132.211L285.679 132.654C285.75 132.708 285.825 132.756 285.905 132.796C285.846 132.73 285.781 132.671 285.71 132.618L285.117 132.145C284.86 131.941 284.542 131.702 284.156 131.423C283.771 131.144 283.351 130.835 282.828 130.538C281.855 129.878 280.651 129.157 279.287 128.418C276.302 126.822 273.141 125.581 269.867 124.721C268.362 124.332 266.985 124.044 265.821 123.863C265.241 123.756 264.715 123.703 264.25 123.641C263.785 123.579 263.364 123.539 263.059 123.517L262.302 123.46C262.222 123.447 262.14 123.439 262.059 123.438Z" fill="white"/>
<path d="M183.007 112.995C183.007 112.995 183.136 112.822 183.45 112.583C183.874 112.258 184.379 112.055 184.911 111.995C185.707 111.928 186.51 112.014 187.274 112.247C189.97 112.926 192.473 114.215 194.592 116.014C195.645 116.899 196.203 117.55 196.234 117.519C196.127 117.35 196.002 117.193 195.862 117.05C195.496 116.643 195.109 116.256 194.702 115.89C193.35 114.686 191.814 113.705 190.152 112.986C189.239 112.587 188.293 112.271 187.323 112.043C186.533 111.814 185.706 111.741 184.888 111.831C184.333 111.907 183.812 112.146 183.392 112.517C183.281 112.617 183.181 112.73 183.096 112.853C183.025 112.942 182.998 112.991 183.007 112.995Z" fill="white"/>
<path d="M40.4864 101.304C41.1034 101.453 41.7377 101.519 42.3721 101.499C43.1169 101.477 43.8579 101.385 44.5855 101.225C45.5458 100.999 46.4882 100.703 47.4053 100.339C48.4278 99.9541 49.5168 99.4539 50.6943 98.9625L52.5313 98.2232C53.1644 97.9709 53.8328 97.754 54.5056 97.5061C57.4604 96.5055 60.4731 95.6851 63.5272 95.0493C69.0796 93.8935 74.7174 93.1947 80.3839 92.9599C81.4729 92.9024 82.4556 92.9024 83.3232 92.8803H85.5366L86.9354 92.9112H87.4268C87.3858 92.9035 87.3437 92.9035 87.3028 92.9112L86.9398 92.8847L85.5366 92.8094L83.3232 92.7696C82.4379 92.7696 81.4729 92.7696 80.3839 92.8227C74.7017 93.0082 69.0466 93.6895 63.4829 94.859C60.4223 95.4877 57.4047 96.3098 54.4481 97.3202C53.7752 97.5681 53.1201 97.7894 52.4694 98.0462L50.6323 98.8031C49.4548 99.3122 48.3703 99.808 47.3566 100.202C46.452 100.567 45.5213 100.863 44.5722 101.087C43.8547 101.259 43.1225 101.363 42.3854 101.397C41.9201 101.413 41.4541 101.397 40.991 101.348L40.6325 101.304H40.4864Z" fill="#263238"/>
<path d="M253.466 101.915C255.237 92.2296 256.428 90.7422 257.428 87.4089C258.429 84.0757 260.018 81.911 261.997 81.1452C263.325 80.6317 269.996 78.228 272.315 79.0248C274.585 79.8317 276.745 80.9172 278.747 82.2563C280.301 83.2868 281.478 84.7935 282.103 86.5502L285.644 96.5412L279.411 102.738L276.286 96.0985L272.895 104.066L273.395 112.101L253.949 117.333C252.196 114.5 252.462 107.409 253.466 101.915Z" fill="#80F17E"/>
<g opacity="0.2">
<path d="M258.517 91.3487C259.376 96.3906 259.513 97.1033 260.372 102.128C260.669 103.858 261.532 106.554 262.762 107.811C263.674 108.737 264.568 109.626 265.839 109.927C267.016 110.206 268.809 110.237 269.916 109.75C271.023 109.263 271.97 107.094 271.514 105.983C269.863 106.337 269.354 106.869 267.933 105.983C266.693 105.195 264.931 103.451 264.259 102.145C261.421 96.6562 260.638 96.4615 258.504 91.3487" fill="black"/>
</g>
<path d="M272.607 101.118C272.922 100.695 273.209 100.251 273.466 99.7903L275.467 96.5013L277.521 93.2654C277.827 92.83 278.104 92.3745 278.349 91.9019C278.242 91.9988 278.149 92.1089 278.07 92.2295C277.902 92.4464 277.667 92.7696 277.388 93.1724C276.822 93.9781 276.06 95.1069 275.272 96.3773C274.484 97.6478 273.798 98.8253 273.324 99.6885C273.085 100.131 272.882 100.468 272.776 100.715C272.699 100.84 272.642 100.976 272.607 101.118Z" fill="#263238"/>
<path d="M259.035 110.162C259.176 110.235 259.324 110.293 259.478 110.335C259.659 110.395 259.844 110.446 260.031 110.485C260.276 110.551 260.524 110.603 260.775 110.64C261.424 110.755 262.081 110.816 262.74 110.822C263.549 110.823 264.356 110.753 265.153 110.613C265.949 110.464 266.729 110.243 267.486 109.954C268.098 109.715 268.69 109.428 269.256 109.095C269.504 108.958 269.699 108.807 269.894 108.688C270.055 108.583 270.21 108.469 270.359 108.347C270.493 108.254 270.617 108.146 270.726 108.024C270.699 107.988 270.15 108.418 269.177 108.953C268.606 109.261 268.014 109.529 267.406 109.755C265.912 110.312 264.331 110.601 262.736 110.609C262.086 110.61 261.437 110.567 260.793 110.481C259.712 110.326 259.048 110.118 259.035 110.162Z" fill="#263238"/>
<path d="M266.84 95.0715C266.875 95.2441 268.964 99.4052 268.964 99.4052L278.827 94.2083L279.832 89.9587C279.998 89.2763 280.427 88.6873 281.026 88.3207C281.625 87.954 282.345 87.8395 283.028 88.0021L285.936 89.1929C286.056 89.2398 286.163 89.3157 286.246 89.4138C286.329 89.5119 286.387 89.6292 286.414 89.7551C286.454 89.9676 286.414 90.1977 286.029 90.149C285.308 90.0915 283.816 89.9321 283.816 89.9321L284.502 92.3535C284.683 92.9881 284.613 93.668 284.307 94.2526L283.864 95.0892L282.904 96.643H282.926C282.926 96.643 273.338 106.492 267.955 107.134C264.719 107.519 261.054 98.449 261.054 98.449L266.84 95.0715Z" fill="#B78876"/>
<path d="M283.886 90.0959C283.886 90.0959 283.811 89.9941 283.647 89.8834C283.428 89.7307 283.167 89.6502 282.899 89.6533C282.76 89.6611 282.625 89.7063 282.509 89.7842C282.393 89.8621 282.3 89.9698 282.24 90.0959C282.147 90.2951 282.209 90.4279 282.24 90.4191C282.271 90.4102 282.24 90.2951 282.346 90.1446C282.411 90.0491 282.497 89.9695 282.598 89.912C282.698 89.8545 282.81 89.8205 282.926 89.8126C283.165 89.816 283.401 89.8767 283.612 89.9897C283.749 90.0561 283.873 90.1136 283.886 90.0959Z" fill="#AA6550"/>
<path d="M282.643 91.6054C282.643 91.6054 282.709 91.5257 282.802 91.4062C282.921 91.2537 283.078 91.1359 283.258 91.065C283.438 90.9942 283.634 90.9729 283.825 91.0034C283.975 91.0034 284.068 91.0565 284.077 91.0388C284.086 91.0211 284.006 90.9547 283.847 90.9016C283.636 90.8401 283.411 90.8502 283.207 90.9303C283.002 91.0104 282.831 91.156 282.718 91.3442C282.638 91.4948 282.629 91.601 282.643 91.6054Z" fill="#AA6550"/>
<path d="M264.794 81.9375L267.45 94.5934L260.368 98.8474L257.65 91.0697C257.65 91.0697 258.792 81.6232 264.794 81.9375Z" fill="#80F17E"/>
<path d="M260.978 82.1589C260.978 82.1589 261.036 82.2076 261.16 82.274C261.284 82.3404 261.461 82.4378 261.696 82.5573C262.165 82.7963 262.855 83.1327 263.719 83.5179C265.963 84.5437 268.325 85.2872 270.753 85.7312C273.195 86.1677 275.702 86.0832 278.11 85.4833C278.83 85.294 279.532 85.0407 280.208 84.7263C280.451 84.6245 280.651 84.5139 280.752 84.4519C280.816 84.4202 280.877 84.3832 280.934 84.3412C280.675 84.4289 280.42 84.5309 280.172 84.6467C279.484 84.9246 278.777 85.1524 278.057 85.3284C275.667 85.8753 273.192 85.9356 270.779 85.5054C268.368 85.0616 266.016 84.3443 263.767 83.3674C262.882 83.0044 262.205 82.6901 261.722 82.482C261.482 82.358 261.233 82.25 260.978 82.1589Z" fill="#EBEBEB"/>
<path d="M259.115 83.5577C259.176 83.6125 259.242 83.6601 259.314 83.6994L259.898 84.0757C260.207 84.2779 260.527 84.4641 260.855 84.6334C261.235 84.8326 261.66 85.0761 262.161 85.2974L262.931 85.6515C263.201 85.7755 263.493 85.8773 263.79 85.9968C264.378 86.2403 265.033 86.4395 265.715 86.6608C268.704 87.5623 271.828 87.9324 274.945 87.7542C275.662 87.6967 276.344 87.6568 276.972 87.555C277.291 87.5063 277.596 87.4753 277.888 87.4222L278.725 87.254C279.256 87.161 279.73 87.0194 280.146 86.9131C280.504 86.8267 280.857 86.7218 281.204 86.5989L281.864 86.3687C281.943 86.3476 282.018 86.3164 282.089 86.2757C282.008 86.2802 281.927 86.2966 281.85 86.3244L281.177 86.5103C280.89 86.5989 280.536 86.7007 280.115 86.7892C279.695 86.8777 279.23 87.015 278.69 87.0946L277.857 87.2451C277.57 87.2983 277.264 87.3248 276.972 87.3647C276.344 87.4576 275.644 87.493 274.958 87.5417C271.864 87.699 268.766 87.3323 265.795 86.4572C265.118 86.2447 264.467 86.0544 263.878 85.8153C263.586 85.7002 263.294 85.6029 263.024 85.4878L262.249 85.1469C261.749 84.9433 261.324 84.7042 260.921 84.5183C260.518 84.3324 260.208 84.1509 259.952 84.0004L259.341 83.664C259.271 83.6186 259.195 83.5829 259.115 83.5577Z" fill="#EBEBEB"/>
<path d="M260.385 98.8474C260.584 98.7636 260.776 98.666 260.961 98.5553L262.519 97.67L267.831 94.6023L267.897 94.5624V94.4872C267.707 93.5443 267.503 92.5262 267.291 91.4815C266.972 89.9056 266.662 88.4094 266.406 87.0548C266.26 86.3731 266.14 85.7268 266.007 85.1115C265.887 84.5427 265.697 83.991 265.441 83.4692C265.07 82.6941 264.413 82.0929 263.608 81.7915C263.39 81.7165 263.161 81.6791 262.931 81.6808C262.852 81.6754 262.772 81.6844 262.696 81.7074C262.998 81.7176 263.297 81.7743 263.581 81.8756C264.342 82.1963 264.955 82.7901 265.299 83.54C265.538 84.0557 265.715 84.5981 265.826 85.1558C265.945 85.7622 266.069 86.4129 266.202 87.0902C266.477 88.4625 266.778 89.9587 267.087 91.5169C267.3 92.566 267.508 93.5797 267.698 94.5226L267.751 94.4075L262.47 97.546L260.943 98.4756C260.747 98.5838 260.561 98.7082 260.385 98.8474Z" fill="#263238"/>
<path d="M258.221 90.6935C258.182 91.0873 258.194 91.4846 258.256 91.8754C258.349 92.8214 258.518 93.7585 258.761 94.6775C259.004 95.5974 259.318 96.4973 259.699 97.3689C259.838 97.7396 260.024 98.0907 260.253 98.4136C260.144 98.0358 260.01 97.666 259.85 97.3069C259.178 95.5456 258.697 93.7172 258.415 91.8533C258.375 91.4629 258.31 91.0755 258.221 90.6935Z" fill="#263238"/>
<path d="M296.622 161.091L296.702 167.846C296.702 167.846 303.599 170.037 303.731 171.285L290.637 171.905L290.079 161.383L296.622 161.091Z" fill="#455A64"/>
<path d="M292.603 167.47C292.478 167.514 292.375 167.603 292.312 167.719C292.249 167.835 292.231 167.97 292.262 168.098C292.301 168.224 292.387 168.331 292.502 168.395C292.618 168.459 292.754 168.477 292.881 168.443C293.013 168.395 293.122 168.301 293.188 168.177C293.254 168.054 293.272 167.911 293.24 167.775C293.184 167.648 293.082 167.548 292.954 167.495C292.826 167.442 292.683 167.441 292.554 167.492" fill="#E0E0E0"/>
<path d="M290.637 171.905V170.843L303.2 170.643C303.2 170.643 303.798 170.869 303.749 171.285L290.637 171.905Z" fill="#E0E0E0"/>
<path d="M296.91 167.771C296.91 167.833 296.591 167.877 296.29 168.098C295.989 168.319 295.847 168.594 295.768 168.572C295.688 168.55 295.768 168.178 296.162 167.917C296.556 167.655 296.923 167.709 296.91 167.771Z" fill="#263238"/>
<path d="M298.313 168.271C298.313 168.333 298.056 168.457 297.87 168.736C297.684 169.015 297.618 169.307 297.552 169.307C297.485 169.307 297.432 168.948 297.693 168.603C297.954 168.258 298.309 168.213 298.313 168.271Z" fill="#263238"/>
<path d="M299.172 169.878C299.114 169.878 299.008 169.581 299.172 169.223C299.335 168.864 299.614 168.713 299.641 168.78C299.667 168.846 299.495 169.028 299.38 169.324C299.265 169.621 299.243 169.869 299.172 169.878Z" fill="#263238"/>
<path d="M296.724 166.23C296.697 166.292 296.401 166.23 296.038 166.257C295.675 166.283 295.405 166.429 295.369 166.376C295.334 166.323 295.591 166.08 296.016 166.035C296.441 165.991 296.75 166.181 296.724 166.23Z" fill="#263238"/>
<g opacity="0.3">
<path d="M296.635 162.428L296.653 163.632L290.212 163.88L290.155 162.795L296.635 162.428Z" fill="black"/>
</g>
<path d="M296.68 164.867C296.468 164.937 296.242 164.948 296.024 164.898C295.786 164.867 295.552 164.806 295.329 164.716C295.196 164.667 295.067 164.606 294.944 164.535C294.868 164.499 294.798 164.451 294.736 164.393C294.692 164.349 294.663 164.292 294.655 164.23C294.647 164.169 294.66 164.106 294.692 164.052C294.722 164.006 294.763 163.968 294.811 163.941C294.858 163.913 294.912 163.897 294.966 163.893C295.05 163.889 295.133 163.896 295.214 163.915C295.355 163.942 295.493 163.982 295.626 164.035C295.851 164.125 296.062 164.249 296.25 164.402C296.569 164.672 296.693 164.907 296.662 164.92C296.631 164.933 296.476 164.747 296.157 164.53C295.97 164.405 295.768 164.304 295.555 164.229C295.431 164.187 295.304 164.154 295.174 164.132C295.033 164.101 294.913 164.105 294.882 164.167C294.851 164.229 294.882 164.203 294.882 164.243C294.928 164.284 294.979 164.319 295.033 164.349C295.152 164.415 295.272 164.477 295.387 164.53C295.596 164.62 295.812 164.692 296.033 164.743C296.251 164.77 296.467 164.811 296.68 164.867Z" fill="#263238"/>
<path d="M296.587 164.964C296.455 164.783 296.385 164.564 296.388 164.34C296.363 164.098 296.381 163.854 296.441 163.618C296.476 163.478 296.527 163.341 296.591 163.211C296.622 163.123 296.676 163.044 296.746 162.983C296.817 162.922 296.902 162.88 296.994 162.861C297.052 162.859 297.109 162.874 297.159 162.904C297.208 162.934 297.248 162.977 297.273 163.03C297.312 163.105 297.339 163.185 297.353 163.269C297.375 163.415 297.375 163.565 297.353 163.711C297.328 163.959 297.243 164.196 297.105 164.402C296.866 164.756 296.6 164.845 296.596 164.822C296.591 164.8 296.79 164.659 296.972 164.322C297.076 164.13 297.136 163.917 297.149 163.698C297.156 163.57 297.146 163.442 297.118 163.317C297.091 163.18 297.034 163.07 296.981 163.087C296.928 163.105 296.812 163.198 296.764 163.313C296.704 163.429 296.655 163.551 296.618 163.676C296.554 163.89 296.521 164.112 296.52 164.336C296.556 164.716 296.635 164.951 296.587 164.964Z" fill="#263238"/>
<path d="M269.929 112.172C269.929 112.172 290.389 103.584 296.719 103.225C300.703 102.995 303.696 105.545 303.156 109.653C302.886 111.711 297.233 135.77 297.233 135.77L288.619 131.839L292.762 115.2L275.941 123.371L269.929 112.172Z" fill="#263238"/>
<path d="M295.334 110.99C295.4 111.047 294.723 111.919 294.006 113.075C293.289 114.23 292.811 115.226 292.731 115.195C292.651 115.164 293.019 114.097 293.749 112.92C294.48 111.742 295.259 110.937 295.334 110.99Z" fill="#455A64"/>
<path d="M297.007 111.946C297.052 112.021 296.02 112.676 294.794 113.571C293.568 114.465 292.647 115.248 292.581 115.186C292.514 115.124 293.4 114.208 294.63 113.323C295.861 112.437 296.972 111.875 297.007 111.946Z" fill="#455A64"/>
<path d="M253.971 117.333C253.971 117.333 256.543 120.649 258.996 121.556C262.094 122.694 284.874 133.446 284.874 133.446C284.874 133.446 289.008 164.163 288.681 162.879L298.22 162.649L297.184 134.358C297.06 130.737 294.157 126.576 291.036 124.726L269.929 112.172L253.971 117.333Z" fill="#263238"/>
<path d="M297.366 139.537C297.335 139.41 297.322 139.279 297.326 139.148C297.326 138.865 297.29 138.497 297.268 138.037C297.214 136.675 297.087 135.317 296.888 133.969C296.608 131.976 295.901 130.067 294.816 128.373C294.144 127.399 293.316 126.544 292.364 125.841C291.331 125.089 290.25 124.404 289.128 123.792C284.537 121.162 280.575 118.48 277.645 116.643C276.184 115.713 274.989 114.974 274.174 114.469L273.227 113.885C273.113 113.822 273.004 113.747 272.904 113.664C273.026 113.708 273.143 113.764 273.254 113.832C273.479 113.951 273.811 114.128 274.232 114.367C275.077 114.841 276.281 115.558 277.773 116.461C280.735 118.258 284.719 120.91 289.283 123.544C290.416 124.163 291.507 124.857 292.549 125.62C293.525 126.344 294.372 127.227 295.055 128.232C296.147 129.97 296.844 131.927 297.096 133.964C297.278 135.322 297.373 136.689 297.379 138.059C297.379 138.502 297.379 138.887 297.379 139.174C297.385 139.296 297.381 139.417 297.366 139.537Z" fill="#455A64"/>
<path d="M262.391 120.569C262.567 120.295 262.763 120.033 262.975 119.786C263.415 119.146 263.72 118.424 263.872 117.663C264.024 116.902 264.02 116.118 263.86 115.359C263.762 115.047 263.685 114.729 263.63 114.407C263.845 114.663 263.997 114.967 264.073 115.292C264.299 116.079 264.333 116.908 264.17 117.709C264.011 118.511 263.659 119.262 263.143 119.896C262.74 120.405 262.408 120.596 262.391 120.569Z" fill="#455A64"/>
<path d="M294.714 162.649C294.698 162.599 294.69 162.547 294.688 162.494C294.688 162.37 294.652 162.22 294.63 162.029C294.581 161.587 294.519 161.002 294.44 160.259C294.285 158.683 294.063 156.438 293.789 153.676C293.661 152.286 293.515 150.763 293.346 149.13C293.178 147.497 293.023 145.748 292.904 143.906C292.784 142.065 292.589 140.139 292.253 138.152C291.924 136.113 291.329 134.126 290.482 132.242C289.598 130.381 288.43 128.668 287.021 127.165C285.7 125.766 284.254 124.492 282.7 123.358C280.038 121.483 277.273 119.758 274.418 118.192C271.996 116.802 270.066 115.616 268.787 114.721C268.141 114.279 267.654 113.92 267.326 113.668L266.959 113.38C266.876 113.315 266.836 113.28 266.839 113.274C266.889 113.294 266.935 113.321 266.977 113.354L267.362 113.619C267.698 113.854 268.198 114.199 268.849 114.629C270.151 115.487 272.089 116.643 274.524 118.01C277.402 119.554 280.187 121.266 282.864 123.137C284.438 124.274 285.902 125.556 287.237 126.966C288.672 128.489 289.86 130.228 290.757 132.118C291.607 134.025 292.202 136.036 292.527 138.099C292.859 140.091 293.028 142.025 293.165 143.853C293.302 145.682 293.439 147.443 293.607 149.077C293.776 150.71 293.882 152.233 294.001 153.627C294.236 156.394 294.444 158.638 294.555 160.219C294.614 160.98 294.658 161.57 294.688 161.989C294.688 162.18 294.71 162.335 294.719 162.454C294.727 162.574 294.723 162.649 294.714 162.649Z" fill="#455A64"/>
<path d="M272.24 63.4518C272.561 62.6245 273.167 61.9387 273.948 61.5177C274.729 61.0966 275.635 60.9678 276.503 61.1543C276.885 61.294 277.284 61.3804 277.689 61.4111C278.18 61.3269 278.663 61.1995 279.132 61.0304C279.664 60.9443 280.208 61.0588 280.66 61.3517C281.111 61.6446 281.438 62.0949 281.576 62.6151C281.992 62.5141 282.424 62.5049 282.844 62.5882C283.264 62.6716 283.66 62.8454 284.006 63.0976C284.345 63.3601 284.586 63.7291 284.689 64.1451C284.793 64.5611 284.753 64.9999 284.577 65.3906C284.404 65.7138 284.134 65.9705 283.962 66.3025C283.701 66.847 283.82 67.5022 283.639 68.0732C283.468 68.4885 283.184 68.8474 282.82 69.1088C282.455 69.3703 282.024 69.5238 281.576 69.5517C280.675 69.5981 279.773 69.4703 278.92 69.1754" fill="#263238"/>
<path d="M276.361 80.9593C276.472 80.1005 276.543 79.4985 276.543 79.4985C276.543 79.4985 279.398 79.4985 280.527 75.9571C281.098 74.1865 281.478 71.2295 281.708 68.7859C281.759 68.2654 281.703 67.7401 281.545 67.2416C281.387 66.7432 281.129 66.2819 280.788 65.8857C280.447 65.4894 280.029 65.1663 279.559 64.936C279.09 64.7056 278.579 64.5727 278.056 64.5452L270.478 64.1512L270.314 65.3243L268.318 79.8969C268.246 80.4252 268.279 80.9626 268.415 81.4782C268.551 81.9937 268.788 82.4773 269.112 82.901C269.435 83.3247 269.84 83.6803 270.301 83.9472C270.763 84.2141 271.273 84.3872 271.802 84.4563C272.331 84.5272 272.869 84.4929 273.385 84.3554C273.9 84.2178 274.384 83.9798 274.808 83.6549C275.231 83.3299 275.587 82.9245 275.853 82.462C276.12 81.9994 276.292 81.4887 276.361 80.9593Z" fill="#B78876"/>
<path d="M280.651 70.8709C280.632 70.992 280.567 71.1011 280.47 71.1754C280.372 71.2497 280.25 71.2833 280.128 71.2693C280.068 71.2655 280.009 71.2495 279.955 71.2221C279.902 71.1948 279.854 71.1567 279.815 71.1103C279.777 71.0639 279.748 71.01 279.731 70.9521C279.714 70.8942 279.709 70.8334 279.717 70.7735C279.733 70.6515 279.797 70.5409 279.895 70.4662C279.993 70.3915 280.117 70.3588 280.239 70.3751C280.299 70.3789 280.358 70.395 280.412 70.4223C280.466 70.4496 280.513 70.4877 280.552 70.5341C280.59 70.5806 280.619 70.6344 280.636 70.6923C280.653 70.7502 280.658 70.811 280.651 70.8709Z" fill="#263238"/>
<path d="M280.845 70.2158C280.779 70.2645 280.469 69.9502 279.96 69.8705C279.451 69.7908 279.075 69.9856 279.008 69.9148C278.942 69.844 279.061 69.782 279.239 69.6935C279.479 69.5757 279.75 69.5369 280.013 69.5828C280.274 69.6217 280.515 69.7445 280.699 69.9325C280.845 70.0741 280.881 70.1937 280.845 70.2158Z" fill="#263238"/>
<path d="M275.905 70.0652C275.887 70.1859 275.822 70.2947 275.724 70.3682C275.626 70.4418 275.504 70.4744 275.383 70.4592C275.323 70.4559 275.264 70.4404 275.21 70.4136C275.156 70.3868 275.108 70.3492 275.069 70.3032C275.03 70.2572 275.001 70.2037 274.983 70.1461C274.966 70.0884 274.96 70.0277 274.967 69.9678C274.985 69.8467 275.05 69.7376 275.148 69.6633C275.245 69.5891 275.367 69.5554 275.489 69.5694C275.55 69.5726 275.609 69.5882 275.663 69.6153C275.718 69.6424 275.766 69.6804 275.805 69.7269C275.844 69.7734 275.873 69.8274 275.89 69.8856C275.907 69.9438 275.913 70.0049 275.905 70.0652Z" fill="#263238"/>
<path d="M275.914 69.5251C275.848 69.5782 275.538 69.2595 275.029 69.1843C274.52 69.109 274.143 69.2949 274.077 69.2241C274.011 69.1533 274.13 69.0957 274.307 69.0028C274.549 68.8889 274.818 68.8504 275.082 68.8921C275.342 68.934 275.582 69.0563 275.768 69.2418C275.914 69.3835 275.945 69.4986 275.914 69.5251Z" fill="#263238"/>
<path d="M277.14 73.5269C277.418 73.4894 277.699 73.4894 277.977 73.5269C278.105 73.5269 278.229 73.5269 278.265 73.4428C278.305 73.3146 278.305 73.177 278.265 73.0488C278.194 72.7212 278.119 72.376 278.039 72.0174C277.823 71.1374 277.675 70.242 277.596 69.3393C277.886 70.2057 278.107 71.0938 278.256 71.9953C278.327 72.3583 278.398 72.7035 278.459 73.0355C278.521 73.1996 278.521 73.3805 278.459 73.5446C278.434 73.5865 278.399 73.6222 278.357 73.649C278.316 73.6758 278.269 73.6931 278.22 73.6995C278.147 73.7088 278.073 73.7088 277.999 73.6995C277.707 73.6785 277.418 73.6205 277.14 73.5269Z" fill="#263238"/>
<path d="M276.543 79.4985C274.832 79.2529 273.223 78.5373 271.895 77.4312C271.895 77.4312 272.683 80.1226 276.361 80.3484L276.543 79.4985Z" fill="#AA6550"/>
<path d="M275.613 73.6375C275.697 73.6375 275.613 74.1864 276.011 74.6468C276.41 75.1072 277.003 75.1382 276.999 75.2134C276.994 75.2887 276.853 75.3019 276.605 75.2665C276.286 75.2236 275.993 75.0663 275.781 74.8239C275.574 74.5942 275.466 74.2919 275.48 73.9828C275.494 73.7526 275.578 73.6287 275.613 73.6375Z" fill="#263238"/>
<path d="M276.357 67.5863C276.286 67.7147 275.795 67.5863 275.197 67.5464C274.599 67.5066 274.099 67.6084 274.042 67.4756C273.984 67.3428 274.117 67.2986 274.329 67.1967C274.611 67.0738 274.917 67.0174 275.224 67.032C275.532 67.0466 275.831 67.1317 276.1 67.2808C276.295 67.4004 276.388 67.5243 276.357 67.5863Z" fill="#263238"/>
<path d="M280.894 68.7372C280.788 68.8346 280.451 68.6619 280.048 68.5911C279.646 68.5203 279.269 68.5468 279.207 68.414C279.181 68.3521 279.256 68.2458 279.424 68.1662C279.651 68.0654 279.903 68.0376 280.146 68.0865C280.388 68.1292 280.611 68.2469 280.783 68.4229C280.912 68.5646 280.943 68.6885 280.894 68.7372Z" fill="#263238"/>
<path d="M282.107 67.1878C282.107 67.1878 280.102 67.8651 277.8 66.3246C276.29 65.3154 274.458 64.6824 274.002 64.9568C273.546 65.2313 273.249 66.878 271.589 67.1701C271.589 67.1701 271.297 70.3573 270.044 70.0829C269.159 69.8881 269.672 66.3733 270.044 64.3681C270.122 63.9804 270.327 63.6298 270.627 63.3723C270.927 63.1148 271.305 62.9651 271.7 62.9471L274.033 62.8541L276.945 63.6686L280.071 64.5186L282.452 65.5146L282.107 67.1878Z" fill="#263238"/>
<path d="M270.323 68.7859C270.279 68.7549 268.345 67.7368 267.986 69.8483C267.628 71.9598 269.819 71.8801 269.836 71.8226C269.854 71.7651 270.323 68.7859 270.323 68.7859Z" fill="#B78876"/>
<path d="M269.327 70.9107C269.327 70.9107 269.283 70.9328 269.217 70.9505C269.123 70.9727 269.025 70.9584 268.942 70.9107C268.822 70.8007 268.732 70.6611 268.682 70.5058C268.633 70.3505 268.625 70.1848 268.659 70.0254C268.684 69.8438 268.749 69.6701 268.849 69.5163C268.881 69.4541 268.928 69.4004 268.985 69.3596C269.042 69.3188 269.107 69.2921 269.177 69.2817C269.221 69.2779 269.265 69.2896 269.301 69.3146C269.337 69.3396 269.364 69.3765 269.376 69.4189C269.376 69.4809 269.376 69.5207 269.376 69.5296C269.376 69.5384 269.425 69.4986 269.425 69.4101C269.421 69.3558 269.399 69.3044 269.363 69.264C269.311 69.2105 269.242 69.1788 269.168 69.1755C269.078 69.1771 268.99 69.2021 268.912 69.2478C268.835 69.2936 268.77 69.3586 268.725 69.4366C268.604 69.6038 268.526 69.7986 268.499 70.0032C268.455 70.1896 268.468 70.3848 268.536 70.5639C268.604 70.7429 268.724 70.8976 268.88 71.0081C268.934 71.0337 268.993 71.047 269.053 71.047C269.112 71.047 269.171 71.0337 269.225 71.0081C269.314 70.9638 269.332 70.9196 269.327 70.9107Z" fill="#AA6550"/>
<path d="M281.093 61.8361C281.093 61.8361 281.022 61.9512 280.872 62.1194C280.656 62.358 280.381 62.5352 280.075 62.6329C279.62 62.7799 279.134 62.8014 278.667 62.6949C278.088 62.554 277.518 62.3735 276.963 62.1548C276.389 61.9285 275.775 61.8187 275.157 61.8317C274.635 61.8506 274.141 62.073 273.78 62.4514C273.535 62.6984 273.386 63.0249 273.36 63.3722C273.341 63.4981 273.363 63.6267 273.422 63.7396C273.444 63.7396 273.422 63.6068 273.448 63.381C273.504 63.0674 273.659 62.7801 273.891 62.5621C274.232 62.2352 274.685 62.0501 275.157 62.0442C275.747 62.0447 276.331 62.1558 276.879 62.3717C277.443 62.5962 278.025 62.7739 278.619 62.903C279.12 63.0066 279.64 62.9667 280.119 62.7879C280.445 62.6684 280.728 62.456 280.934 62.177C281.093 61.9734 281.093 61.8405 281.093 61.8361Z" fill="#455A64"/>
<path d="M273.962 63.859C273.962 63.859 274.068 63.7484 274.289 63.5935C274.605 63.4003 274.969 63.2991 275.339 63.3013C275.9 63.2992 276.453 63.4345 276.95 63.6953C277.571 64.0307 278.213 64.3264 278.871 64.5806C279.496 64.7745 280.154 64.838 280.804 64.7672C281.454 64.6964 282.083 64.4927 282.651 64.1689C282.995 63.9755 283.31 63.734 283.585 63.4518C283.693 63.3559 283.783 63.242 283.851 63.1154C283.459 63.4618 283.032 63.7659 282.576 64.0228C281.457 64.6103 280.151 64.7328 278.942 64.3637C278.293 64.1011 277.657 63.8056 277.038 63.4784C276.51 63.211 275.921 63.0859 275.33 63.1154C274.928 63.1308 274.541 63.2716 274.223 63.5182C274.107 63.6063 274.017 63.724 273.962 63.859Z" fill="#455A64"/>
<path d="M280.518 99.8301L290.797 91.0698L294.188 91.8356C294.188 91.8356 290.615 99.2635 288.03 101.986C288.03 101.986 285.476 105.403 281.262 103.925C277.047 102.446 280.518 99.8301 280.518 99.8301Z" fill="#B78876"/>
<path d="M291.576 81.4196H295.945C296.11 81.4286 296.27 81.4742 296.415 81.5531C296.56 81.632 296.686 81.7422 296.783 81.8757C296.88 82.0093 296.946 82.1628 296.977 82.3251C297.007 82.4874 297.001 82.6544 296.958 82.814L292.563 91.3708C292.479 91.5337 292.353 91.6704 292.196 91.7658C292.04 91.8611 291.86 91.9113 291.677 91.9108H286.365C286.241 91.8969 286.121 91.8523 286.018 91.781C285.914 91.7096 285.83 91.6138 285.773 91.5021C285.715 91.3903 285.686 91.266 285.689 91.1404C285.691 91.0148 285.724 90.8917 285.786 90.782L290.022 82.4023C290.166 82.112 290.387 81.8668 290.661 81.6935C290.935 81.5202 291.251 81.4255 291.576 81.4196Z" fill="#455A64"/>
<path d="M291.868 81.9375H296.237C296.362 81.9367 296.486 81.9683 296.596 82.029C296.705 82.0898 296.797 82.1778 296.863 82.2845C296.929 82.3913 296.966 82.5132 296.971 82.6384C296.976 82.7637 296.949 82.8882 296.892 82.9999L292.603 91.3708C292.519 91.5331 292.392 91.6692 292.235 91.7645C292.079 91.8597 291.9 91.9103 291.717 91.9108H286.45C286.377 91.9078 286.307 91.8871 286.244 91.8505C286.182 91.8139 286.129 91.7626 286.091 91.701C286.053 91.6394 286.031 91.5694 286.026 91.4972C286.022 91.4249 286.035 91.3526 286.064 91.2866L290.305 82.9114C290.448 82.6191 290.671 82.3729 290.947 82.2008C291.223 82.0286 291.542 81.9374 291.868 81.9375Z" fill="#263238"/>
<path d="M292.24 85.4346L294.896 86.497L295.462 88.6395L294.183 91.8267L289.504 92.5172L290.876 91.114L290.703 89.8878C290.703 89.8878 289.375 89.4761 289.375 89.2769C289.375 89.0777 289.539 88.3916 289.738 88.3695C290.263 88.4891 290.776 88.6505 291.275 88.852C291.275 88.852 289.65 87.5638 289.694 87.3557C289.738 87.1477 289.916 86.6209 290.239 86.5589C290.562 86.497 293.191 87.7409 293.191 87.7409L293.634 88.7103L294.006 87.1566C294.006 87.1566 291.664 86.5014 292.24 85.4346Z" fill="#B78876"/>
<path d="M291.903 90.4633C291.903 90.4633 291.97 90.3748 291.996 90.1977C292.024 89.9722 291.999 89.7434 291.922 89.5296C291.845 89.3158 291.719 89.1231 291.553 88.9671C291.421 88.852 291.319 88.8122 291.31 88.8254C291.512 89.0491 291.678 89.3031 291.801 89.578C291.88 89.8662 291.914 90.1647 291.903 90.4633Z" fill="#AA6550"/>
<path d="M293.169 89.9985C293.117 89.7696 293.082 89.5374 293.063 89.3035C293.052 89.0421 293.008 88.7832 292.93 88.5333C292.88 88.3728 292.791 88.2267 292.673 88.1074C292.554 87.988 292.409 87.8988 292.249 87.8471C291.616 87.617 291.04 87.431 290.624 87.2938C290.401 87.2097 290.172 87.146 289.938 87.1035C290.144 87.2211 290.362 87.316 290.589 87.3868C291 87.5461 291.576 87.7498 292.2 87.9755C292.346 88.0257 292.479 88.1073 292.589 88.2146C292.688 88.3188 292.763 88.4424 292.811 88.5775C292.892 88.8169 292.944 89.0651 292.966 89.3168C292.974 89.5577 293.044 89.7924 293.169 89.9985Z" fill="#AA6550"/>
<path d="M293.78 89.5204C293.822 89.3474 293.822 89.1668 293.78 88.9937C293.732 88.7104 293.665 88.489 293.625 88.4935C293.584 88.6666 293.584 88.8471 293.625 89.0202C293.674 89.3035 293.74 89.5249 293.78 89.5204Z" fill="#AA6550"/>
<path d="M293.851 83.5533C293.851 83.6636 293.818 83.7714 293.757 83.8632C293.696 83.9549 293.609 84.0264 293.507 84.0686C293.405 84.1108 293.293 84.1219 293.184 84.1003C293.076 84.0788 292.977 84.0257 292.899 83.9477C292.821 83.8697 292.768 83.7703 292.746 83.6621C292.725 83.5539 292.736 83.4418 292.778 83.3399C292.82 83.2379 292.892 83.1508 292.983 83.0895C293.075 83.0282 293.183 82.9955 293.293 82.9955C293.367 82.9949 293.439 83.009 293.507 83.0368C293.575 83.0646 293.637 83.1057 293.689 83.1576C293.741 83.2095 293.782 83.2712 293.81 83.3392C293.837 83.4071 293.852 83.4799 293.851 83.5533Z" fill="#FAFAFA"/>
<path d="M309.158 167.93C308.465 168.145 307.822 168.498 307.268 168.967C306.715 169.436 306.261 170.012 305.936 170.661C305.29 171.965 304.953 173.399 304.949 174.853C304.86 177.651 306.02 180.661 307.388 183.109C310.004 181.427 311.049 177.952 311.474 176.181C312.138 173.357 311.629 167.85 309.158 167.926" fill="#80F17E"/>
<path d="M304.028 187.27C304.3 186.505 304.366 185.682 304.219 184.884C304.071 184.086 303.715 183.34 303.187 182.724C302.648 182.117 301.993 181.624 301.261 181.274C300.529 180.924 299.734 180.723 298.924 180.683C298.18 180.63 297.348 180.727 296.839 181.276C296.615 181.547 296.468 181.872 296.412 182.218C296.356 182.564 296.393 182.919 296.52 183.246C296.785 183.898 297.217 184.467 297.773 184.897C299.601 186.456 301.655 187.624 304.028 187.27Z" fill="#80F17E"/>
<path d="M305.772 196.154C305.792 195.963 305.792 195.77 305.772 195.579C305.772 195.167 305.736 194.64 305.714 194.007C305.697 192.264 305.398 190.534 304.829 188.886C304.234 187.234 303.21 185.771 301.863 184.645C301.454 184.315 301.009 184.032 300.535 183.804C300.367 183.72 300.225 183.68 300.137 183.64C300.048 183.6 299.995 183.592 299.991 183.6C301.083 184.14 302.057 184.892 302.856 185.812C303.656 186.731 304.265 187.8 304.648 188.957C305.201 190.589 305.51 192.294 305.564 194.016C305.608 194.676 305.648 195.212 305.683 195.583C305.697 195.776 305.727 195.967 305.772 196.154Z" fill="#263238"/>
<path d="M309.176 172.157C309.15 172.237 309.129 172.318 309.114 172.401C309.076 172.584 309.027 172.818 308.968 173.105C308.844 173.716 308.676 174.605 308.481 175.703C308.087 177.917 307.596 180.949 307.113 184.322C306.631 187.695 306.272 190.758 306.042 192.98C305.927 194.092 305.843 194.99 305.79 195.614C305.769 195.909 305.751 196.148 305.737 196.331C305.724 196.414 305.724 196.497 305.737 196.579C305.759 196.498 305.774 196.415 305.781 196.331C305.803 196.15 305.834 195.915 305.874 195.619C305.954 194.977 306.06 194.087 306.193 192.998C306.458 190.785 306.843 187.722 307.317 184.348C307.791 180.975 308.269 177.952 308.623 175.739C308.8 174.654 308.942 173.769 309.065 173.127C309.11 172.835 309.145 172.6 309.176 172.419C309.188 172.332 309.188 172.244 309.176 172.157Z" fill="#263238"/>
<path d="M307.799 189.532C308.32 187.905 309.221 186.425 310.427 185.215C311.633 184.005 313.11 183.099 314.736 182.573C315.568 182.312 316.613 182.219 317.171 182.888C317.728 183.556 317.427 184.574 316.998 185.331C316.074 186.895 314.708 188.15 313.072 188.938C311.435 189.726 309.602 190.011 307.804 189.758" fill="#80F17E"/>
<path d="M313.997 185.132C313.819 185.163 313.644 185.211 313.474 185.274C313.271 185.334 313.071 185.406 312.877 185.491C312.647 185.592 312.376 185.681 312.102 185.831C311.799 185.98 311.503 186.144 311.217 186.323C310.88 186.526 310.553 186.746 310.238 186.982C308.79 188.07 307.629 189.496 306.856 191.135C306.689 191.49 306.541 191.856 306.414 192.228C306.297 192.549 306.201 192.877 306.126 193.211C306.057 193.485 306.004 193.763 305.967 194.043C305.928 194.252 305.903 194.463 305.891 194.676C305.873 194.855 305.87 195.036 305.883 195.216C305.931 195.216 305.962 194.441 306.277 193.242C306.36 192.916 306.461 192.596 306.578 192.281C306.705 191.916 306.852 191.558 307.02 191.21C307.413 190.423 307.889 189.681 308.441 188.996C309.009 188.314 309.647 187.694 310.345 187.146C310.65 186.91 310.968 186.69 311.296 186.487C311.582 186.301 311.878 186.131 312.182 185.977C313.266 185.389 314.014 185.172 313.997 185.132Z" fill="#263238"/>
</svg>
