<svg width="188" height="150" viewBox="0 0 188 150" fill="none" xmlns="http://www.w3.org/2000/svg">
<path d="M17.96 140L12.32 130.28H8.12V140H2.6V112H13.8C16.3867 112 18.5867 112.907 20.4 114.72C22.2133 116.533 23.12 118.72 23.12 121.28C23.12 123.013 22.6267 124.627 21.64 126.12C20.6533 127.587 19.3467 128.693 17.72 129.44L23.92 140H17.96ZM8.12 117.16V125.44H13.8C14.84 125.44 15.7333 125.04 16.48 124.24C17.2267 123.413 17.6 122.427 17.6 121.28C17.6 120.133 17.2267 119.16 16.48 118.36C15.7333 117.56 14.84 117.16 13.8 117.16H8.12ZM42.9547 137.52C40.9014 139.547 38.3947 140.56 35.4347 140.56C32.4747 140.56 29.968 139.547 27.9147 137.52C25.888 135.467 24.8747 132.96 24.8747 130C24.8747 127.04 25.888 124.547 27.9147 122.52C29.968 120.467 32.4747 119.44 35.4347 119.44C38.3947 119.44 40.9014 120.467 42.9547 122.52C45.008 124.547 46.0347 127.04 46.0347 130C46.0347 132.96 45.008 135.467 42.9547 137.52ZM31.5547 133.96C32.5947 135 33.888 135.52 35.4347 135.52C36.9814 135.52 38.2747 135 39.3147 133.96C40.3547 132.92 40.8747 131.6 40.8747 130C40.8747 128.4 40.3547 127.08 39.3147 126.04C38.2747 125 36.9814 124.48 35.4347 124.48C33.888 124.48 32.5947 125 31.5547 126.04C30.5414 127.08 30.0347 128.4 30.0347 130C30.0347 131.6 30.5414 132.92 31.5547 133.96ZM64.8647 120H70.0247V140H64.8647V137.64C63.318 139.587 61.1447 140.56 58.3447 140.56C55.678 140.56 53.3847 139.547 51.4647 137.52C49.5714 135.467 48.6247 132.96 48.6247 130C48.6247 127.04 49.5714 124.547 51.4647 122.52C53.3847 120.467 55.678 119.44 58.3447 119.44C61.1447 119.44 63.318 120.413 64.8647 122.36V120ZM55.3447 134.08C56.3847 135.12 57.7047 135.64 59.3047 135.64C60.9047 135.64 62.2247 135.12 63.2647 134.08C64.3314 133.013 64.8647 131.653 64.8647 130C64.8647 128.347 64.3314 127 63.2647 125.96C62.2247 124.893 60.9047 124.36 59.3047 124.36C57.7047 124.36 56.3847 124.893 55.3447 125.96C54.3047 127 53.7847 128.347 53.7847 130C53.7847 131.653 54.3047 133.013 55.3447 134.08ZM89.8638 112H95.0238V140H89.8638V137.64C88.3438 139.587 86.1838 140.56 83.3838 140.56C80.6904 140.56 78.3838 139.547 76.4638 137.52C74.5704 135.467 73.6238 132.96 73.6238 130C73.6238 127.04 74.5704 124.547 76.4638 122.52C78.3838 120.467 80.6904 119.44 83.3838 119.44C86.1838 119.44 88.3438 120.413 89.8638 122.36V112ZM80.3438 134.08C81.4104 135.12 82.7438 135.64 84.3438 135.64C85.9438 135.64 87.2638 135.12 88.3038 134.08C89.3438 133.013 89.8638 131.653 89.8638 130C89.8638 128.347 89.3438 127 88.3038 125.96C87.2638 124.893 85.9438 124.36 84.3438 124.36C82.7438 124.36 81.4104 124.893 80.3438 125.96C79.3038 127 78.7838 128.347 78.7838 130C78.7838 131.653 79.3038 133.013 80.3438 134.08Z" fill="white"/>
<path d="M105.823 140L97.9828 112H103.783L109.143 132.76L114.983 112H119.703L125.583 132.76L130.943 112H136.743L128.903 140H122.623L117.343 121.52L112.103 140H105.823ZM141.483 117.6C140.629 117.6 139.883 117.293 139.243 116.68C138.629 116.04 138.323 115.293 138.323 114.44C138.323 113.587 138.629 112.84 139.243 112.2C139.883 111.56 140.629 111.24 141.483 111.24C142.363 111.24 143.109 111.56 143.723 112.2C144.363 112.84 144.683 113.587 144.683 114.44C144.683 115.293 144.363 116.04 143.723 116.68C143.109 117.293 142.363 117.6 141.483 117.6ZM138.923 140V120H144.083V140H138.923ZM153.409 125.68C153.409 126.213 153.756 126.653 154.449 127C155.169 127.32 156.036 127.613 157.049 127.88C158.062 128.12 159.076 128.44 160.089 128.84C161.102 129.213 161.956 129.853 162.649 130.76C163.369 131.667 163.729 132.8 163.729 134.16C163.729 136.213 162.956 137.8 161.409 138.92C159.889 140.013 157.982 140.56 155.689 140.56C151.582 140.56 148.782 138.973 147.289 135.8L151.769 133.28C152.356 135.013 153.662 135.88 155.689 135.88C157.529 135.88 158.449 135.307 158.449 134.16C158.449 133.627 158.089 133.2 157.369 132.88C156.676 132.533 155.822 132.227 154.809 131.96C153.796 131.693 152.782 131.36 151.769 130.96C150.756 130.56 149.889 129.933 149.169 129.08C148.476 128.2 148.129 127.107 148.129 125.8C148.129 123.827 148.849 122.28 150.289 121.16C151.756 120.013 153.569 119.44 155.729 119.44C157.356 119.44 158.836 119.813 160.169 120.56C161.502 121.28 162.556 122.32 163.329 123.68L158.929 126.08C158.289 124.72 157.222 124.04 155.729 124.04C155.062 124.04 154.502 124.187 154.049 124.48C153.622 124.773 153.409 125.173 153.409 125.68ZM171.134 132.12C171.827 134.627 173.707 135.88 176.774 135.88C178.747 135.88 180.241 135.213 181.254 133.88L185.414 136.28C183.441 139.133 180.534 140.56 176.694 140.56C173.387 140.56 170.734 139.56 168.734 137.56C166.734 135.56 165.734 133.04 165.734 130C165.734 126.987 166.721 124.48 168.694 122.48C170.667 120.453 173.201 119.44 176.294 119.44C179.227 119.44 181.641 120.453 183.534 122.48C185.454 124.507 186.414 127.013 186.414 130C186.414 130.667 186.347 131.373 186.214 132.12H171.134ZM171.054 128.12H181.254C180.961 126.76 180.347 125.747 179.414 125.08C178.507 124.413 177.467 124.08 176.294 124.08C174.907 124.08 173.761 124.44 172.854 125.16C171.947 125.853 171.347 126.84 171.054 128.12Z" fill="#80F17E"/>
<path d="M129.652 38.2524C98.1094 42.6683 75.7429 59.0704 64.2156 71.63L76.6605 78.7988C89.3348 57.522 110.268 44.7903 129.652 38.2524Z" fill="white"/>
<path d="M129.824 32.46C99.1416 27.5853 73.6209 35.729 57.1042 44.9623V59.4718C77.7501 37.6789 106.253 31.5998 129.824 32.46Z" fill="white"/>
<path d="M129.766 28.1588C129.365 26.3236 128.046 24.4311 126.555 23.5708L96.905 6.48054C95.0698 5.39089 92.0303 5.39089 90.1377 6.48054L60.4878 23.5708C58.6526 24.6605 57.1042 27.2986 57.1042 29.4205V29.5925C82.1087 18.4667 109.522 21.3342 129.766 28.1588Z" fill="white"/>
<path d="M88.5319 85.6808L90.1377 86.5984C91.9729 87.688 95.0124 87.688 96.905 86.5984L126.555 69.5081C128.39 68.4184 129.939 65.8377 129.939 63.6584V45.0197C109.694 56.4897 96.4462 72.1462 88.5319 85.6808Z" fill="white"/>
<path d="M93.5213 93.0789C91.8582 93.0789 90.3097 92.6774 89.1054 91.9892L56.4159 73.1211C53.9499 71.6874 52 68.3037 52 65.4362V27.6426C52 24.7751 53.9499 21.3915 56.4159 19.9578L89.1054 1.08964C90.3097 0.401446 91.8582 0 93.5213 0C95.1845 0 96.7329 0.401446 97.9373 1.08964L130.684 19.9578C133.15 21.3915 135.1 24.7751 135.1 27.6426V65.4362C135.1 68.3037 133.15 71.6874 130.684 73.1211L97.9373 91.9892C96.7329 92.6774 95.1845 93.0789 93.5213 93.0789ZM93.5213 2.8675C92.3743 2.8675 91.2847 3.09688 90.5391 3.55568L57.7923 22.4238C56.1865 23.3414 54.8101 25.8074 54.8101 27.6426V65.4362C54.8101 67.2714 56.1865 69.7375 57.7923 70.6551L90.5391 89.5232C91.2847 89.982 92.3743 90.2114 93.5213 90.2114C94.6683 90.2114 95.758 89.982 96.5035 89.5232L129.193 70.6551C130.799 69.7375 132.175 67.2714 132.175 65.4362V27.6426C132.175 25.8074 130.741 23.3414 129.193 22.4238L96.5035 3.55568C95.758 3.09688 94.6683 2.8675 93.5213 2.8675Z" fill="white"/>
</svg>
